<?xml version="1.0" encoding="UTF-8" standalone="no"?><!DOCTYPE svg PUBLIC "-//W3C//DTD SVG 1.1//EN" "http://www.w3.org/Graphics/SVG/1.1/DTD/svg11.dtd"><svg width="100%" height="100%" viewBox="0 0 291 73" version="1.1" xmlns="http://www.w3.org/2000/svg" xmlns:xlink="http://www.w3.org/1999/xlink" xml:space="preserve" xmlns:serif="http://www.serif.com/" style="fill-rule:evenodd;clip-rule:evenodd;stroke-linejoin:round;stroke-miterlimit:2;"><path d="M54.337,32.099c-0.258,0 -1.793,0.82 -2.043,1.032c-1.208,-1.3 -0.38,-0.914 -1.491,-0.622c-0.5,-0.548 -1,-1.1 -1.5,-1.639c-0.119,0.037 -0.229,0.084 -0.338,0.13c0.044,0.281 1.01,2.247 0.838,2.399c-0.609,-0.352 -1.207,-0.701 -1.806,-1.054c-0.096,-2.128 2.079,-2.329 2.97,-3.768c-0.042,-0.069 -0.076,-0.129 -0.11,-0.186c-2.946,-0.469 -6.394,-1.382 -9.025,0.163c-0.12,0.702 -1.208,3.955 -1.588,3.955c-0.273,-0.104 -0.544,-0.208 -0.806,-0.302c0.056,-0.181 0.588,-0.147 0.752,-0.153c-0.284,-1.147 -0.349,-1.535 -1.23,-2.188c-1.447,-1.722 -2.306,-3.629 -3.35,-5.524c-0.804,-1.358 -2.053,-2.691 -2.436,-4.003c-0.14,-0.047 -0.272,-0.093 -0.403,-0.13c-0.052,-0.21 -0.096,-0.409 -0.14,-0.608c-0.36,-2.152 -1.796,-3.276 -0.36,-5.337c-0.075,-0.466 -0.142,-0.924 -0.205,-1.38c-0.512,-0.317 -0.479,-0.293 -0.653,-0.784c0.468,-0.375 0.989,0.198 1.392,0.586c3.948,0.525 1.382,-4.483 -0.807,-1.874c-1.249,-0.539 0.404,-1.685 0.144,-3.123c-0.935,-0.317 -1.674,-0.656 -2.47,-0.059c-0.771,1.193 0.512,1.884 0.434,3.16c-0.999,0.093 -1.707,-1.638 -3.022,-0.503c-1.251,4.153 1.643,1.485 3.165,1.754c0.12,0.938 -1.73,0.972 -0.25,2.879c-2.219,0.597 -4.536,0.667 -6.743,1.007c-0.077,0.246 -0.153,0.493 -0.229,0.749c0.097,0.059 0.195,0.115 0.305,0.174c-0.011,0.28 -0.11,0.61 -0.076,0.998l0.294,0.137c-0.197,0.435 -0.577,0.294 -0.023,0.889c1.416,0.212 3.816,-0.454 5.395,-0.618c0,2.668 -7.232,7.992 -4.807,9.794c0.456,-0.537 0.797,-1.32 0.928,-1.507c0.235,-0.335 2.018,-3.091 2.312,-3.407c0.065,0.024 0.133,0.047 0.208,0.082c0.292,0.946 -1.142,4.446 -1.514,5.711c-0.172,1.1 -0.227,2.33 -0.812,3.358c-0.465,-0.331 0.199,-0.57 -0.601,-0.797c0.437,-1.027 -0.053,-0.735 0.893,-1.485c-0.087,-1.462 -1.924,-2.071 -2.861,-2.597c0.076,-1.675 -0.64,-1.803 -1.707,-1.088c0.109,0.081 0.218,0.174 0.336,0.268l0,0.317c-0.836,0.596 -1.739,1.228 -2.556,1.755c-0.792,-0.516 0.674,-3.663 0.859,-4.377c-0.086,-2.668 0.013,-4.717 -2.543,-5.057c-0.206,0.4 0.195,2.05 0.261,2.705c-1.078,1.309 -2.252,2.142 -1.164,3.72c0.153,1.475 0.468,1.673 1.882,2.049c0,0.081 0.01,0.176 0.021,0.268l-1.294,0c0,0.13 0,0.27 0.011,0.412c0.239,0.128 1.022,-0.036 1.392,-0.074c0,0.085 0,0.178 0.01,0.271c-0.294,0.154 -1.098,0.071 -1.457,0.154c-0.042,0.76 -0.12,1.497 -0.271,2.246c-0.174,0.293 -1.153,1.932 -1.338,1.73c0.859,-1.73 1.424,-3.216 -0.632,-1.274c-1.207,0.537 -0.924,-0.949 -2.074,0.843c-0.828,-0.644 -0.796,-0.726 -1.622,-0.69c-0.098,-0.119 -0.195,-0.233 -0.283,-0.351c-0.294,-0.012 -0.576,-0.012 -0.859,-0.012c-0.099,0.186 -0.198,0.374 -0.284,0.574c0.066,0.173 0.141,0.361 0.219,0.548c-0.078,1.908 1.273,2.025 2.696,2.856c-0.239,0.257 -1.881,-0.713 -2.446,-0.632c-0.065,0.128 -0.131,0.259 -0.185,0.388l0.424,0.594c0.838,0.072 2.251,1.5 3.089,2.132c-0.143,1.521 -0.273,3.043 -0.403,4.564c0.076,0.044 0.151,0.104 0.239,0.163c-0.132,0.691 -0.522,1.92 -0.522,2.61c0.718,0.644 0.033,0.936 0,2.141c0.793,0.854 0.577,1.545 0.554,2.857c0.111,0.094 0.231,0.187 0.348,0.292c0.013,0.736 0.022,1.486 0.045,2.236c0.174,0.151 0.348,0.303 0.533,0.456c0.021,0.924 0.097,1.59 0.302,2.574c-0.596,0.316 -1.163,0.211 -1.793,0.517l0.229,0.28c1.991,0.105 3.404,-0.913 5.241,-0.913c3.035,1.627 2.512,3.053 6.145,0.993c1.751,-0.246 2.22,2.878 4.643,1.581c3.688,-3.079 2.753,-1.51 5.928,0.761c0.404,-0.012 0.805,-0.012 1.208,-0.012c3.165,-2.221 2.033,-3.193 5.534,-0.34c1.664,0.282 2.819,-1.99 3.862,-1.99c2.72,0.973 3.262,1.17 6.176,-0.34c-0.924,-1.192 -1.132,0.494 -1.967,0.494c-0.086,-0.469 0.023,-0.809 0.033,-1.195c0.848,-0.806 1.697,-1.615 2.545,-2.41l0,-0.046c-0.544,-0.28 -1.087,-0.552 -1.621,-0.82c0.044,-0.912 -0.055,-1.909 0.597,-2.469c-0.597,-3.253 -0.357,-6.799 -0.139,-10.052c0.227,-0.353 0.456,-0.703 0.684,-1.043c0.914,-1.088 2.077,-1.369 3.022,-2.444l-0.239,-0.33c-0.945,0.201 -1.468,0.398 -2.262,0.82c-0.371,-0.934 4.012,-0.57 2.262,-4.519m-30.159,-5.074l0.048,0.598c-0.032,0 -0.063,0 -0.098,0.015c-0.356,-0.312 -0.29,-0.366 -0.261,-0.665c0.132,-0.017 0.132,-0.017 0.311,0.052m0.385,-0.072c-0.369,-0.147 -0.418,-0.508 -0.506,-0.728c0.052,-0.07 0.105,-0.124 0.154,-0.18c0.61,0.126 0.352,0.908 0.352,0.908m0.302,-1.585c0.169,0.372 0.214,0.469 0.19,1.082c-0.369,-0.529 -0.38,-0.577 -0.413,-1.082l0.223,0Zm0.319,-0.739c0.098,0.188 0.211,0.398 0.332,0.609c-0.102,0.376 -0.102,0.376 -0.136,0.359c-0.181,-0.253 -0.336,-0.487 -0.49,-0.717l0.294,-0.251Zm0.451,-0.696c0.19,0.218 0.485,0.421 0.452,0.938c-0.079,0.035 -0.154,0.085 -0.217,0.136c-0.156,-0.285 -0.313,-0.573 -0.466,-0.841c0.078,-0.08 0.153,-0.165 0.231,-0.233m0.834,-0.366c0,0.166 0,0.332 0.014,0.498c-0.084,0.046 -0.168,0.107 -0.253,0.166c-0.336,-0.559 -0.268,-0.53 -0.295,-0.996c0.352,0 0.236,0.251 0.534,0.332m0.5,-0.089c-0.063,0.068 -0.14,0.169 -0.217,0.169l-0.325,-0.748c0.033,-0.066 0.063,-0.115 0.107,-0.169c0.31,0.054 0.355,0.234 0.435,0.748m0.181,-0.741c-0.173,-0.303 -0.196,-0.432 -0.206,-0.679c0.052,-0.058 0.107,-0.117 0.172,-0.175c0.227,0.166 0.13,0.961 0.034,0.854m18.38,33.307c0.063,-0.105 0.14,-0.199 0.216,-0.292c1.369,0.292 1.904,0.14 3.339,-0.222c-0.011,0.34 -0.021,0.691 -0.021,1.042l-1.806,0.104c-1.674,-0.583 -1.674,-0.583 -1.728,-0.632m-6.7,-7.981c-0.588,-0.749 -2.675,-2.972 -2.675,-3.885c1.121,-0.528 2.131,1.101 2.849,1.965c1.696,1.743 3.913,2.799 6.089,3.92c5.916,2.879 5.916,2.879 6.004,2.95c-1.359,1.837 -2.044,2.295 -4.112,2.585c-4.36,-1.051 -5.611,-3.849 -8.155,-7.535m6.437,-11.375c0.609,0.329 1.752,0.387 2.644,0.82c-0.088,0.199 -0.229,0.665 -0.382,0.831c-1.228,-0.586 -2.413,-1.44 -3.207,-2.492c0.349,-0.485 1.205,-0.417 1.773,-0.48c0,0.022 0,0.045 0.01,0.08c0.708,-0.153 0.87,-0.454 1.424,0.011l-0.261,0.389c-0.804,0 -2.108,-0.259 -2.643,0.315c1.11,0.011 2.014,0.094 3.209,0.351c-0.249,0.819 -2.109,0.045 -2.556,-0.07c-0.011,0.082 -0.011,0.164 -0.011,0.245m2.251,-3.218c0.11,0.258 1.122,3.253 0.62,2.717c-0.479,-1.174 -1.174,-1.746 -0.62,-2.717m-2.022,1.556c-0.023,-0.033 -0.042,-0.058 -0.055,-0.083c0.435,-0.409 0.698,-0.561 1.252,-0.82c0.076,0.118 0.162,0.236 0.25,0.353c-0.206,0.373 -1.088,0.492 -1.447,0.55m-15.476,-14.408c-0.044,0.083 -0.088,0.167 -0.164,0.202c-0.107,-0.084 -0.216,-0.153 -0.325,-0.223c0.033,-0.073 0.065,-0.141 0.109,-0.2c0.109,0.012 0.208,0.071 0.38,0.221m-0.01,-0.969c-0.065,0.035 -0.12,0.07 -0.174,0.104l-0.295,-0.176l0,-0.092c0.185,-0.153 0.131,-0.153 0.479,0.047c-0.01,0.034 -0.01,0.069 -0.01,0.117m-2.022,3.779c0.021,-0.046 0.052,-0.093 0.086,-0.128c0.14,0.068 0.281,0.152 0.424,0.234c0,0.116 -0.099,0.199 -0.206,0.199c-0.143,-0.106 -0.283,-0.258 -0.304,-0.305m0.529,1.201c-0.053,0.013 -0.112,0.044 -0.151,0.074c-0.22,-0.236 -0.44,-0.473 -0.66,-0.693c0.262,-0.282 0.689,0.163 0.811,0.619m-0.443,-1.739c0,-0.07 0,-0.07 0.109,-0.316c0.161,0.093 0.5,0.163 0.468,0.527c-0.044,0.024 -0.088,0.047 -0.122,0.082c-0.151,-0.106 -0.304,-0.199 -0.455,-0.293m1.36,2.527c-0.012,0.129 -0.023,0.258 -0.023,0.386c-0.01,0 -0.023,0.014 -0.033,0.023c-0.37,-0.21 -0.511,-0.491 -0.685,-0.608l0,0.786c0.273,0.081 0.588,-0.037 0.555,0.561c-0.032,0.023 -0.064,0.047 -0.097,0.081l-0.565,-0.501c-0.632,2.199 -1.002,4.762 -0.893,7.138c0.498,-0.374 0.498,-0.316 1.164,-0.201c0.174,-1.264 0.294,-2.619 0.684,-3.709c0.326,1.053 0.045,2.435 -0.098,3.629c-1.044,0.245 -1.63,0.562 -2.489,0.9c-0.478,1.031 -0.762,1.534 -0.686,3.006c0.119,0.025 0.239,0.06 0.359,0.096l0,0.141c-0.479,0.058 -0.555,0.468 -0.706,0.923l-0.033,0c-0.034,0 0.054,-1.403 0.041,-1.532c-1.043,-2.458 1.275,-5.992 1.752,-8.308c0.044,-0.751 0.393,-2.985 0.914,-3.3c0.272,0.162 0.556,0.326 0.839,0.489m-4.08,15.075l0.292,0c0.197,-0.996 0.395,-1.628 0.817,-2.482c0.262,0.014 0.523,0.025 0.796,0.048c-0.153,1.286 -0.153,3.3 -1.687,3.675c-1.119,-0.202 -0.554,-4.273 -0.359,-4.636c0.108,0.07 0.219,0.152 0.338,0.235c0,0.994 -0.142,2.049 -0.197,3.16m0.099,-4.062c-0.044,0.071 -0.109,0.153 -0.164,0.177c-0.533,-0.188 -0.859,-0.434 -1.205,-0.691c0,-0.06 0,-0.118 0.01,-0.178c0.5,0.035 0.935,0.118 1.359,0.692m-0.403,-1.345c-0.097,-0.072 -0.185,-0.142 -0.271,-0.201c0,-0.056 0,-0.115 0.01,-0.163c0.044,0.025 0.294,0.107 0.38,0.292c-0.042,0.024 -0.086,0.048 -0.119,0.072m-1.903,0.432l0.032,0.2c0.056,-0.047 0.109,-0.082 0.163,-0.117c0.513,0.608 0.534,1.954 -0.544,1.954c-1.969,-0.444 -1.283,-1.791 0.349,-2.037m-1.556,-0.128c-0.729,-0.188 -0.977,-0.714 0.088,-0.714c0.162,0.303 0.435,0.573 -0.088,0.714m1.936,-0.176c0.12,-0.117 0.252,-0.22 0.38,-0.329c0.164,0.109 0.229,0.059 0.349,0.41c-0.151,0.118 -0.336,0.129 -0.424,0.153c-0.282,-0.187 -0.282,-0.187 -0.305,-0.234m0.393,-1.1c0.13,-0.083 0.26,-0.162 0.401,-0.233c0.088,0.164 0.088,0.164 0.143,0.373c-0.044,0.06 -0.078,0.129 -0.112,0.2l-0.042,0c-0.119,-0.024 -0.239,-0.048 -0.357,-0.059l-0.033,-0.281Zm0.359,2.341c0.107,0.059 0.227,0.117 0.349,0.174c0,0.025 -0.229,1.839 -0.36,1.698c-0.577,-1.206 -0.556,-0.726 0.011,-1.872m4.828,-1.417c0,0.399 -0.882,0.598 -1.174,0.667l-0.13,-0.104c0.477,-0.352 0.672,-0.421 1.304,-0.563m-0.37,-0.233c-0.185,0.045 -0.728,0.246 -0.827,0.209c-0.021,-0.045 -0.044,-0.094 -0.065,-0.129c0.38,-0.198 0.499,-0.396 0.991,-0.362l-0.099,0.282Zm0.12,1.195c-0.229,0.281 -0.653,0.49 -0.958,0.49l-0.096,-0.14c0.315,-0.246 0.607,-0.679 1.054,-0.35m-1.031,0.947c0.084,0.011 0.172,0.046 0.357,0.174c-0.023,0 -0.044,0 -0.055,0.012l-0.325,-0.14c0,-0.024 0.01,-0.035 0.023,-0.046m0.487,0.926c-0.055,0.058 -0.099,0.092 -0.164,0.092c-0.12,-0.084 -0.229,-0.152 -0.336,-0.222l0,-0.188c0.227,-0.163 0.315,0.046 0.5,0.318m-0.315,0.617c-0.044,0.036 -0.088,0.072 -0.122,0.107c-0.086,-0.071 -0.161,-0.141 -0.237,-0.212c0,-0.058 0,-0.104 0.01,-0.152c0.11,0.083 0.227,0.164 0.349,0.257m-0.447,0.246c0.632,0.272 0.338,0.657 0.304,0.622c-0.39,-0.27 -0.521,-0.306 -0.304,-0.622m0.413,1.369c-0.021,0.047 -0.044,0.107 -0.065,0.165c-0.109,-0.024 -0.218,-0.046 -0.315,-0.058c-0.042,-0.094 -0.077,-0.176 -0.109,-0.257c0.185,-0.129 0.263,-0.058 0.489,0.15m-0.533,-2.866c-0.021,0 -0.042,0 -0.065,0.011c-0.065,-0.046 -0.13,-0.093 -0.185,-0.129c0,-0.187 0.065,-0.187 0.13,-0.315c-0.151,-0.011 -0.304,-0.024 -0.445,-0.024c-0.372,-1.216 -0.164,-1.685 0.151,-2.82c0.742,-0.247 1.449,-0.503 2.298,-0.503c0.021,0.023 0.042,0.058 0.063,0.093c-0.727,1.18 -2.088,0.188 -1.947,2.072c-0.097,0.539 -0.454,0.657 0.057,0.995c0.01,0.2 0.086,0.35 -0.057,0.62m-0.172,0.327l0.031,0.198c-0.054,0.049 -0.098,0.094 -0.14,0.153c-0.066,-0.104 -0.12,-0.209 -0.173,-0.316l0.282,-0.035Zm0.567,4.073c0,0.06 0,0.128 0.008,0.199c-0.054,0.048 -0.054,0.048 -0.119,0.048c-0.284,-0.142 -0.372,-0.316 -0.49,-0.482c0.011,-0.069 0.021,-0.127 0.034,-0.187c0.271,0.06 0.271,0.246 0.567,0.422m-0.08,0.807l-0.031,0.257c-0.055,-0.011 -0.11,-0.011 -0.164,-0.011c-0.315,-0.045 -0.25,-0.234 -0.326,-0.375c0.206,-0.28 0.206,-0.175 0.521,0.129m-0.12,1.193c-0.357,-0.22 -0.781,-0.501 -0.781,-0.84c0.284,0 0.836,0.339 0.781,0.84m-0.26,0.703c-0.107,-0.011 -0.216,-0.011 -0.325,-0.011c-0.076,-0.082 -0.152,-0.163 -0.219,-0.245c0.055,-0.096 0.155,-0.21 0.239,-0.269c0.164,0.15 0.273,0.163 0.305,0.525m-8.308,-1.976c-0.044,0 -0.088,0 -0.132,0.01c-1.793,-0.316 -2.499,-3.744 -1.575,-5.043c1.5,-1.499 2.371,3.734 1.707,5.033m-1.587,-5.946c-0.055,-0.118 -0.109,-0.232 -0.164,-0.34c0.055,-0.08 0.12,-0.153 0.185,-0.223c0.021,0.06 0.151,0.751 -0.021,0.563m-0.361,0.48c-0.074,-0.188 -0.152,-0.363 -0.217,-0.539c0.143,-0.129 0.143,-0.129 0.185,-0.129c0.143,0.152 0.151,0.796 0.032,0.668m6.797,9.233c-0.128,0.387 -0.357,2.059 -0.815,2.059c-2.175,-0.62 -4.317,-2.014 -6.09,-3.276c0.425,-0.643 0.838,-1.182 1.338,-1.744c0.489,0 4.784,2.024 5.567,2.961m-7.862,-1.076c1.728,0.913 3.492,2.118 5.351,3.147c-0.045,0.423 -0.173,0.867 -0.336,1.323c-0.032,0 -0.068,0 -0.088,0.011c-2.023,-0.875 -3.894,-1.686 -5.645,-2.856c0,-0.653 0.424,-1.169 0.718,-1.625m-1.197,1.263c-0.804,-0.738 -1.195,-1.065 -1.619,-1.954c0.338,-0.503 0.229,-0.913 0.468,-1.392c0.718,0.469 1.294,0.877 1.989,1.555c0,0.399 -0.826,1.791 -0.838,1.791m2.404,2.726c1.164,-0.62 4.828,1.358 6.418,1.873c0.695,0.281 0.51,0.445 0.172,1.147l-0.063,0c-1.285,-0.456 -5.798,-1.45 -6.527,-3.02m3.993,2.87c0,0.292 -0.253,1.426 -0.675,1.426c-1.556,-0.41 -3.099,-1.276 -4.374,-2.083c0,-0.42 0.185,-1.031 0.361,-1.324c1.609,0.55 3.033,1.136 4.688,1.981m7.851,3.64c-0.044,0 -0.077,0.009 -0.109,0.021c-2.511,-0.467 -5.101,-1.088 -7.461,-1.815c0.023,-0.513 0.12,-0.957 0.262,-1.391c1.075,0 2.848,0.771 3.992,1.086c1.479,0.189 4.251,-0.431 3.316,2.099m-4.34,-3.151c-0.152,-0.327 -0.053,-0.888 -0.032,-1.123c2.556,0 5.143,0.655 7.831,0.727c0.195,0.023 0.38,0.023 0.63,0.199c0,0.339 0,0.689 0.013,1.041c-0.252,0.045 -0.502,0.105 -0.752,0.164c-2.524,-0.187 -5.372,-0.128 -7.69,-1.008m4.33,-2.667c0.01,0.375 0.054,0.805 0.01,1.309c-0.033,-0.01 -0.065,-0.01 -0.096,-0.01c-2.644,-0.164 -4.864,-0.702 -7.376,-1.357c0.066,-0.574 0.175,-0.914 0.349,-1.358c2.371,0.597 4.677,0.948 7.113,1.416m-5.091,-1.382c0,-0.712 0.315,-1.555 0.653,-2.129c2.077,0.082 4.371,0.293 6.515,0.597c0.283,0.151 0.054,2.505 0.033,2.481c-2.36,-0.248 -5.09,-0.152 -7.201,-0.949m11.876,1.817c0.055,0.327 0.065,0.723 0.023,1.109c-0.51,-0.012 -1.013,-0.012 -1.512,-0.012c-1.382,0 -3.709,0.212 -4.872,-0.199l0.031,-1.333c1.666,0 4.841,-0.292 6.33,0.435m5.688,2.691c-1.882,0.573 -5.339,0.746 -7.232,0.746c-0.858,-0.28 -0.598,-0.853 -0.577,-1.625c2.11,-0.247 4.317,-0.128 6.505,-0.06l0,-0.492c-1.11,0 -3.807,0.657 -3.807,-0.97c0.24,-0.163 0.544,-0.059 0.891,-0.023c-0.076,0.128 -0.151,0.257 -0.217,0.399c0.055,0.08 0.12,0.163 0.185,0.256c0.239,0 0.479,0 0.718,0.012l-0.064,-0.644c-0.133,-0.023 -0.253,-0.047 -0.37,-0.059c2.642,-0.419 2.315,-0.176 3.968,2.46m-2.883,-3.524l-0.866,-0.186c-0.209,-0.627 -0.631,-1.534 -0.307,-1.558c0.133,-0.01 1.142,1.195 1.274,1.614c-0.035,0.036 -0.067,0.083 -0.101,0.13m-6.602,-2.178c1.6,0 3.177,-0.187 4.83,0.235c0.013,0.574 0.023,1.157 0.044,1.743c-0.283,0.047 -0.565,0.106 -0.838,0.165c-1.424,-0.095 -2.826,-0.059 -4.176,-0.222c0,-0.608 -0.063,-1.557 0.14,-1.921m1.948,-9.869l0,-0.08c0.413,-0.216 0.413,-0.151 0.981,0.244l0,0.084l-0.184,0.146c-0.443,-0.083 -0.599,-0.214 -0.797,-0.394m0.151,0.594c0.269,0.082 0.539,0.176 0.826,0.274c-0.017,0.113 -0.017,0.245 -0.017,0.372c-0.073,-0.014 -0.148,-0.014 -0.223,-0.014c-0.403,-0.067 -0.705,-0.34 -0.586,-0.632m-0.168,-1.335c0.357,0 0.475,-0.088 0.885,0.223c-0.089,0.074 -0.154,0.146 -0.223,0.215c-0.338,-0.141 -0.561,-0.289 -0.662,-0.438m-0.02,-0.469l-0.157,-0.338c0.33,-0.101 0.59,0.095 0.999,0.297l0,0.21c-0.041,0 -0.082,0.015 -0.12,0.028c-0.248,-0.07 -0.483,-0.142 -0.722,-0.197m-0.224,-0.929c-0.016,-0.105 -0.016,-0.193 -0.016,-0.281c0.308,-0.052 0.518,0.124 0.829,0.404c-0.097,0.069 -0.179,0.157 -0.264,0.245c-0.191,-0.123 -0.371,-0.245 -0.549,-0.368m-0.113,-0.674c0,-0.106 0,-0.209 0.016,-0.297c0.305,0.088 0.611,0.176 0.928,0.266c-0.167,0.15 -0.446,0.18 -0.553,0.196c-0.142,-0.06 -0.266,-0.122 -0.391,-0.165m-0.081,-0.8c-0.132,-0.445 0.5,-0.081 0.674,-0.011c0,0.046 0.011,0.269 -0.077,0.223c-0.206,-0.069 -0.401,-0.14 -0.597,-0.212m-0.092,-0.771c0.19,-0.074 0.502,-0.338 0.814,-0.09l0,0.163l-0.205,0.13c-0.257,-0.013 -0.517,-0.058 -0.609,-0.203m-0.013,-0.914c0.184,0 0.365,0.014 0.55,0.026c0.044,0.088 0.09,0.171 0.137,0.27c-0.058,0.05 -0.115,0.112 -0.172,0.173l-0.378,-0.075c-0.044,-0.134 -0.09,-0.269 -0.137,-0.394m-0.328,-0.487l0,-0.214c0.278,0.065 0.559,0.133 0.852,0.214c-0.123,0.135 -0.156,0.184 -0.279,0.184c-0.199,-0.066 -0.385,-0.132 -0.573,-0.184m-0.285,-0.953c0.037,-0.055 0.071,-0.113 0.105,-0.152c0.249,0.19 0.493,0.398 0.741,0.607c-0.054,0.054 -0.105,0.114 -0.142,0.191l-0.085,0c-0.459,-0.191 -0.459,-0.4 -0.619,-0.646m0.663,-0.153c-0.202,-0.147 -0.403,-0.302 -0.589,-0.436l0.513,-0.099l0.295,0.267c0,0.185 -0.142,0.253 -0.219,0.268m-0.787,-0.914c0,-0.213 0.057,-0.18 0.114,-0.302c0.254,0.122 0.509,0.244 0.762,0.38c-0.156,0.167 -0.324,0.12 -0.48,0.138c-0.14,-0.077 -0.268,-0.153 -0.396,-0.216m-0.138,-0.606c-0.02,-0.086 -0.04,-0.171 -0.04,-0.239c0.224,0 0.466,0 0.71,0.023c0.042,0.085 0.081,0.173 0.121,0.284c-0.04,0 -0.079,0 -0.121,0.022c-0.224,-0.045 -0.447,-0.067 -0.67,-0.09m-0.221,-0.699c0.296,-0.101 0.522,-0.18 0.876,0.059c-0.13,0.143 -0.206,0.161 -0.318,0.184l-0.558,-0.243Zm-0.062,-0.769c0.23,-0.246 0.524,0.015 0.848,0.244c-0.05,0.052 -0.097,0.106 -0.145,0.177c-0.148,-0.017 -0.293,-0.017 -0.425,-0.017c-0.101,-0.142 -0.196,-0.283 -0.278,-0.404m0.534,-2.347c0.347,0.48 0.815,2.248 1.294,2.539c0.141,1.534 1.185,2.799 1.621,4.39c-0.348,0.198 -1.012,0.819 -1.241,0.865c-0.359,-0.386 -1.577,-6.869 -1.674,-7.794m3.121,9.339c0,0.399 -0.38,0.552 -0.676,0.784c0,0.362 -0.053,0.786 -0.151,1.219c-0.032,0 -0.055,0.011 -0.076,0.022c-0.033,-0.011 -0.067,-0.022 -0.088,-0.035c-0.032,-0.558 -0.426,-2.055 -0.099,-2.409c0.403,0.068 0.643,0.127 1.09,0.419m-0.957,-0.913c-0.013,-0.093 -0.021,-0.186 -0.021,-0.268c0.783,0.07 1.26,0.515 1.946,1.099c-0.044,0.047 -0.088,0.096 -0.153,0.096c-0.599,-0.315 -1.185,-0.621 -1.772,-0.927m0.188,5.518c-0.026,0.074 -0.168,0.179 -0.25,0.212c-0.54,-0.077 -0.471,-0.212 -0.692,-0.583c0.4,0.031 0.499,0.013 0.942,0.371m-0.321,0.534c0.099,0.08 0.208,0.164 0.317,0.246c-0.044,0.071 -0.086,0.14 -0.13,0.222l-0.414,0c-0.075,-0.092 -0.14,-0.187 -0.206,-0.27c0.141,-0.069 0.284,-0.142 0.433,-0.198m0.481,0.97c0,0.072 -0.164,0.389 -0.218,0.364c-0.338,-0.142 -0.401,-0.292 -0.544,-0.48c0.317,-0.047 0.38,-0.083 0.762,0.116m0.141,0.726c-0.011,0.023 -0.021,0.047 -0.034,0.082l-0.073,0c-0.164,-0.046 -0.328,-0.092 -0.492,-0.128c0.198,-0.128 0.338,-0.188 0.599,0.046m0.044,0.656c-0.023,0.093 -0.088,0.34 -0.151,0.305c-0.187,-0.072 -0.372,-0.128 -0.546,-0.188c-0.011,-0.071 -0.011,-0.141 -0.011,-0.212c0.141,-0.152 0.513,-0.187 0.708,0.095m-0.643,0.514c0.089,0 0.164,-0.035 0.349,0.119l0,0.058c-0.088,0.059 -0.172,0.08 -0.239,0.08c-0.045,-0.011 -0.087,-0.021 -0.121,-0.021c0,-0.083 0,-0.167 0.011,-0.236m1.882,0.773c-0.12,0.175 -2.165,1.474 -2.186,1.462c-0.164,-0.269 -0.328,-0.537 -0.479,-0.795c0.783,-0.468 1.741,-1.371 2.665,-0.667m-2.665,1.147c0.011,0.083 0.023,0.164 0.044,0.247c-0.239,0.327 -0.239,0.327 -0.26,0.315c-0.13,-0.071 -0.263,-0.128 -0.393,-0.187c0.044,-0.504 0.12,-0.48 0.609,-0.375m1.655,0.468c0.304,0.41 0.445,0.667 0.674,1.275c-0.729,0.223 -1.317,0.27 -2.014,0.281c-0.619,-0.023 -1.195,-0.103 -1.695,-0.222l0.032,-5.066c-0.099,-1.991 -1.294,-13.974 -0.771,-14.537c0.12,0.27 0.76,-0.023 0.88,0.376c-0.032,0.047 -0.065,0.092 -0.099,0.152c-0.359,-0.187 -0.476,-0.152 -0.791,-0.152c0.195,2.106 0.945,3.965 1.086,6.237c0.064,0.561 0.359,0.772 0.239,1.544c0.054,0.083 0.12,0.163 0.185,0.247c-0.555,2.094 2.251,6.283 0.543,8.485c-0.283,0.232 -0.564,0.467 -0.835,0.7c0,0.351 0,0.703 0.008,1.054c1.415,0.527 1.187,-0.186 2.558,-0.374m-3.342,-21.408c-0.038,-0.036 -0.256,0.058 -0.289,0.076c-0.105,-0.039 -0.409,-0.183 -0.492,-0.219c0.083,-0.093 0.367,-0.25 0.781,0.143m-0.432,-0.618c-0.071,-0.038 -0.338,-0.135 -0.338,-0.209c0.239,-0.211 0.174,-0.235 0.49,0.045c-0.032,0.059 -0.108,0.152 -0.152,0.164m-4.093,8.699c0.223,-0.24 0.652,-0.066 0.918,0.223c-0.043,0.063 -0.075,0.143 -0.103,0.223l-0.372,0c-0.146,-0.127 -0.294,-0.239 -0.443,-0.35l0,-0.096Zm0.789,1.108c0,0.016 0,0.031 0.015,0.049c-0.077,0.05 -0.151,0.114 -0.214,0.183l-0.648,-0.398c-0.015,-0.134 -0.015,-0.134 0.033,-0.216c0.262,0.117 0.538,0.25 0.814,0.382m0.062,-1.181c-0.468,-0.247 -0.739,-0.491 -0.456,-0.866c0.107,0.07 0.956,0.515 0.456,0.866m-0.797,-1.558c0.262,-0.282 0.711,0.11 1.06,0.392c-0.017,0.057 -0.034,0.112 -0.034,0.183c-0.07,0 -0.141,0.021 -0.208,0.038c-0.452,-0.092 -0.61,-0.407 -0.818,-0.613m0.504,-0.945c0.209,0.222 1.102,1.336 0.443,0.984c-0.143,-0.102 -1.032,-0.984 -0.443,-0.984m0.397,0.136c-0.272,-0.419 -0.259,-0.452 -0.228,-0.802c0.213,0.137 0.5,0.402 0.5,0.838c-0.093,-0.018 -0.19,-0.036 -0.272,-0.036m-0.331,-1.215c0.063,-0.075 0.132,-0.149 0.202,-0.204c0.206,0.149 0.411,0.295 0.634,0.462c0,0.039 -0.1,0.259 -0.153,0.274c-0.239,-0.182 -0.464,-0.366 -0.683,-0.532m0.071,-0.802c0.047,-0.105 0.098,-0.194 0.163,-0.279c0.21,0.104 0.423,0.207 0.649,0.312c0.016,0.086 -0.065,0.527 -0.1,0.505c-0.245,-0.191 -0.486,-0.364 -0.712,-0.538m0.972,0.886c0.171,0.342 0.261,0.863 0,1.147c-0.012,-0.014 -0.023,-0.024 -0.023,-0.036c-0.019,-0.075 -0.312,-1.111 0.023,-1.111m0.685,1.754c0.479,0.071 0.914,0.118 1.468,0.362c-0.01,0.084 -0.01,0.166 -0.01,0.247c-0.284,0.023 -0.565,0.057 -0.838,0.092c-0.229,-0.023 -0.456,-0.045 -0.685,-0.059c-0.198,-0.374 -0.078,-0.384 0.065,-0.642m1.554,1.404c0.088,3.746 0.403,7.559 0.271,11.366c-0.053,0.114 -0.107,0.232 -0.151,0.349c-0.477,0.163 -1.075,0.081 -1.523,0.105c-0.25,-0.069 -0.489,-0.138 -0.728,-0.197c0.119,-3.932 0.25,-7.866 0.38,-11.798c0.644,-0.023 1.001,-0.047 1.751,0.175m0.805,-7.213c-0.018,0.107 -0.036,0.21 -0.036,0.317c-0.056,0 -0.115,0 -0.174,0.012c-0.224,-0.119 -0.452,-0.234 -0.665,-0.351c0.059,-0.06 0.113,-0.117 0.191,-0.176c0.414,0 0.586,0.162 0.684,0.198m0.106,0.873c-0.078,0.089 -0.401,0.134 -0.528,0.134c-0.05,-0.072 -0.311,-0.123 -0.345,-0.176c0.096,-0.067 0.543,-0.208 0.72,-0.208l0.153,0.25Zm-0.669,0.665c0.065,-0.034 0.13,-0.07 0.203,-0.093c0.133,0.116 0.273,0.233 0.414,0.361c-0.053,0.047 -0.107,0.106 -0.162,0.166c-0.283,-0.036 -0.533,-0.166 -0.455,-0.434m0.793,0.866c-0.021,0.138 -0.303,0.258 -0.349,0.258c-0.151,-0.093 -0.303,-0.189 -0.437,-0.258c0.067,-0.116 0.134,-0.211 0.218,-0.305c0.177,0.094 0.374,0.189 0.568,0.305m-3.145,17.846c-0.206,-0.186 -0.194,-0.198 -0.172,-0.338c0.51,-0.152 2.436,-0.609 2.576,0.188c-0.794,0.021 -1.728,0.15 -2.404,0.15m-0.796,-19.896c0.081,0 0.384,0.287 0.546,0.425c0,0.114 0,0.226 0.014,0.353c-0.036,-0.015 -0.073,-0.015 -0.095,-0.015c-0.209,0 -0.454,-0.725 -0.465,-0.763m0.036,-0.638c0.186,-0.2 0.242,-0.076 0.582,0.086l0.068,0.539c-0.023,0 -0.034,0.013 -0.045,0.026c-0.569,-0.577 -0.569,-0.577 -0.605,-0.651m0.838,-0.377c-0.047,0 -0.094,0 -0.141,0.012c-0.187,-0.175 -0.371,-0.35 -0.547,-0.524c0,-0.302 0.634,0.048 0.688,0.512m-0.599,-2.483l-0.065,0c-0.021,-0.011 -0.044,-0.024 -0.055,-0.024c0.034,-0.093 0.067,-0.187 0.11,-0.28c0.153,0.012 0.13,0.127 0.01,0.304m0.109,1.104c0.048,-0.037 0.092,-0.073 0.153,-0.11c0.149,0.148 0.254,0.286 0.546,0.437c-0.036,0.063 -0.069,0.125 -0.094,0.187l-0.081,0c-0.301,-0.223 -0.395,-0.324 -0.524,-0.514m0.12,-0.777l0.304,0c0.143,0.176 0.445,0.351 0.206,0.611c-0.39,-0.211 -0.38,-0.329 -0.51,-0.611m0.989,-1.614c0.262,-0.094 0.37,-0.164 0.741,-0.141c0.456,2.096 0.803,7.385 0.269,10.066c-0.237,0 -0.466,0 -0.695,0.01c-0.164,-0.07 -0.326,-0.138 -0.489,-0.198c-0.532,-2.869 0.01,-6.858 0.174,-9.737m1.262,2.001c0.12,0.13 0.403,0.54 0.107,0.69c-0.096,-0.316 -0.258,-0.526 -0.107,-0.69m0.266,-0.141c0.161,0.083 0.34,0.163 0.518,0.244c-0.014,0.079 -0.014,0.161 -0.014,0.256c-0.058,0 -0.118,0 -0.164,0.014c-0.17,-0.036 -0.55,-0.289 -0.34,-0.514m1.008,0.956c-0.079,0.07 -0.139,0.155 -0.206,0.24c-0.204,-0.137 -0.392,-0.257 -0.58,-0.372c0.206,-0.104 0.692,-0.166 0.786,0.132m0.528,0.743c-0.14,0.107 -0.14,0.107 -0.335,0.161c-0.543,-0.143 -1.17,-0.207 -0.474,-0.454c0.33,0.126 0.534,0.188 0.809,0.293m0.103,0.49c-0.122,0.106 -0.242,0.246 -0.351,0.246c-0.292,-0.07 -0.336,-0.175 -0.435,-0.317c0.326,-0.092 0.469,-0.267 0.786,0.071m0.259,0.695c-0.015,0.032 -0.015,0.079 -0.015,0.13l-0.457,0.147c-0.673,-0.114 -0.614,-0.264 -0.215,-0.575c0.2,0.1 0.306,0.214 0.687,0.298m0.299,0.828c0.041,0.057 -0.201,0.054 -0.286,0.054c-0.32,-0.046 -0.63,-0.353 -0.74,-0.205c0.304,-0.408 0.753,-0.232 1.026,0.151m0.295,0.49c-0.015,0.106 -0.031,0.23 -0.031,0.351c-0.068,0 -0.139,0 -0.21,0.015c-0.411,-0.061 -0.514,0.036 -0.711,-0.144c0.082,-0.17 0.184,-0.321 0.282,-0.475c0.211,0.167 0.442,0.083 0.67,0.253m0.215,0.839l0,0.128c-0.169,0.185 -0.393,0.13 -0.598,0.107l-0.205,-0.441c0.238,-0.089 0.528,0.039 0.803,0.206m0.311,0.841l-0.854,-0.016l-0.115,-0.121c0.433,-0.259 0.503,-0.288 0.969,0.137m0.272,0.508c-0.115,0.124 -0.482,0.124 -0.562,0.124l-0.43,-0.209c0.012,-0.087 0.031,-0.155 0.046,-0.226c0.303,0.105 0.622,0.209 0.946,0.311m0.144,0.682c-0.031,0.035 -0.065,0.088 -0.096,0.14l-0.144,0c-0.131,-0.088 -0.26,-0.177 -0.375,-0.263c0.128,-0.21 0.438,-0.28 0.615,0.123m0.345,0.724l-0.131,0.106c-0.315,-0.037 -0.401,-0.119 -0.531,-0.258c0.074,-0.095 0.195,-0.316 0.315,-0.316c0.076,0.08 0.271,0.221 0.347,0.468m0.37,0.56c-0.05,0.053 -0.101,0.123 -0.132,0.193l-0.113,0c-0.259,-0.104 -0.499,-0.193 -0.743,-0.278c0.194,-0.209 0.632,-0.086 0.988,0.085m0.294,0.492c0,0.043 0,0.087 0.015,0.13c-0.078,0.085 -0.161,0.202 -0.281,0.202c-0.326,-0.043 -0.474,-0.056 -0.555,-0.245c0.258,-0.087 0.446,-0.263 0.821,-0.087m0.106,0.756c-0.133,0.035 -0.262,0.071 -0.391,0.123c-0.214,-0.14 -0.492,-0.261 -0.425,-0.422c0.472,0 0.513,-0.09 0.816,0.299m0.293,0.436l0.046,0.157l-0.892,0c0,-0.054 0.018,-0.106 0.034,-0.137c0.27,-0.02 0.541,-0.02 0.812,-0.02m0.38,0.711c-0.023,0.074 -0.023,0.074 -0.299,0.199c-0.165,-0.096 -0.327,-0.199 -0.464,-0.275c0.089,-0.071 0.182,-0.145 0.276,-0.196c0.161,0.074 0.321,0.178 0.487,0.272m1.929,5.776c-0.162,0.071 -0.327,0.139 -0.478,0.223c-1.013,-0.247 -1.208,-0.33 -1.741,-1.254c0.13,-0.305 0.262,-0.608 0.403,-0.904c0.065,-0.01 0.141,-0.01 0.216,-0.01c-0.021,0.889 -0.292,1.077 0.611,1.464c0.021,-0.283 -0.151,-0.412 -0.229,-0.491c0.055,-0.375 0.305,-0.642 0.477,-0.913c-0.445,-0.34 -0.575,-0.586 -1.01,-0.831c-0.458,0.022 -1.401,0.398 -1.684,0.245c-0.013,-0.07 -0.013,-0.141 -0.013,-0.2c0.695,-0.561 1.208,-0.489 2.1,-0.549c-0.445,-1.089 -1.426,-1.298 -2.306,-1.756c-0.01,-0.058 -0.01,-0.058 0.042,-0.186c2.655,0.713 3.349,2.21 3.612,5.162m-3.175,-1.991c0.076,0 0.13,0.037 0.271,0.116c-0.239,0.261 -0.37,0.539 -0.544,0.855c-0.032,0 -0.065,0 -0.099,0.013l-0.065,0c0.109,-0.386 0.252,-0.691 0.437,-0.984m0.935,-0.199c0.01,0 0.021,0 0.044,0.012c0,0.376 -0.196,0.984 -0.544,1.217c-0.055,-0.046 -0.109,-0.095 -0.154,-0.14l0.654,-1.089Zm2.413,2.74c-0.446,0.35 -0.793,0.503 -1.162,0.7c0.248,0.421 0.5,0.854 0.76,1.289c-0.044,0.058 -0.086,0.115 -0.119,0.187c-0.87,-0.023 -1.252,0.151 -1.903,0.246c0,0.314 -0.62,0.713 -0.892,0.796c0,-1.57 -0.435,-2.952 -0.664,-4.366c0.838,-0.902 2.196,0.832 2.839,1.487c0.403,-0.175 0.664,-0.257 1.141,-0.339m0.513,6.271l-0.099,0c-1.338,-0.268 -1.5,-0.854 -2.24,-1.92l-1.163,-0.035c-0.012,-0.021 -0.021,-0.036 -0.033,-0.046c1.805,-0.829 0.697,0.212 2.131,0.119c-0.195,-0.261 -0.39,-0.504 -0.575,-0.751c-0.565,0.047 -1.132,0.094 -1.687,0.152c-0.054,-0.058 -0.109,-0.105 -0.163,-0.152c0.827,-0.256 1.121,-0.399 2.141,-0.399l0.36,0.458c0.119,-0.012 0.249,-0.012 0.379,-0.012c-0.856,-0.82 -0.911,-0.806 -1.902,-0.936l0,-0.117c0.307,-0.247 1.208,-0.129 1.707,-0.129c0.707,1.428 1.373,1.99 1.144,3.768m6.285,5.524c-0.034,-0.011 -0.052,-0.011 -0.075,-0.011c-0.924,-0.317 -1.372,-0.644 -2.046,-1.193c2.121,-1.299 1.905,-1.698 2.415,0.525c-0.313,0.223 -0.294,0.285 -0.294,0.679m1.642,0.807l-0.086,0c-0.588,-0.199 -0.937,-0.42 -1.317,-0.726c0,-0.782 2.47,-0.746 1.403,0.726m-4.49,-2.351c-1.079,-0.632 -1.633,-1.111 -2.425,-1.946c0.922,-0.419 1.804,-0.302 2.826,-0.266c0.141,0.233 0.87,1.402 0.75,1.791c-0.325,0.094 -0.934,0.421 -1.151,0.421m-3.221,-2.623c-0.13,-0.118 -0.378,-0.182 -0.369,-0.349c0.037,-0.746 1.738,-0.18 2.575,-0.072c-0.891,0.162 -2.107,0.421 -2.206,0.421m1.632,-2.236l0.031,0c0.067,0.306 -0.096,0.446 -0.302,0.739l-0.099,-0.176c0.118,-0.188 0.24,-0.374 0.37,-0.563m-0.794,0.845c-0.023,0 -0.033,0 -0.042,0.01c-0.294,-0.431 0.086,-0.748 0.281,-1.041c0.065,0.037 0.141,0.071 0.219,0.116c0,0.07 -0.382,0.74 -0.458,0.915m-0.598,0.28l-0.066,0c-0.042,-0.035 -0.088,-0.059 -0.13,-0.082c0,-0.41 0.229,-0.783 0.349,-1.136c0.042,0.038 0.086,0.072 0.14,0.107c-0.021,0.41 -0.108,0.737 -0.293,1.111m-1.121,-5.268c1.165,-0.572 1.251,0.283 2.187,1.418c0,0.376 -0.773,2.305 -0.859,2.258c-0.403,-0.293 -0.207,-0.492 -0.098,-0.773c-0.424,-0.819 -1.23,-2.035 -1.23,-2.903m3.569,-1.484c0.227,0.152 0.466,0.304 0.706,0.467c0,0 -0.719,4.927 -1.434,4.541c-0.469,-0.503 1.824,-4.191 0.944,-4.75c-0.653,0.584 -1.098,3.533 -1.654,4.682c-0.173,0 -0.129,-0.049 -0.162,-0.083c0.262,-1.24 0.598,-4.144 1.6,-4.857m0.987,0.561c0.271,1.157 0.179,2.671 0.229,3.861c-0.282,0.118 -0.552,0.235 -0.827,0.365l-0.139,-0.119c0.096,-1.122 0.042,-3.24 0.737,-4.107m-0.718,-1.112c0,-0.937 0.447,-1.462 1.35,-1.416c0.393,0.504 0.467,0.902 0.544,1.708c-0.141,0.073 -0.281,0.142 -0.411,0.211c-0.786,-0.082 -0.981,-0.104 -1.483,-0.503m1.35,0.96c0.804,0.433 0.662,2.177 0.174,3.006l-0.041,0c-0.274,-0.746 -0.219,-2.128 -0.263,-2.864l0.13,-0.142Zm0.968,-0.9c0.836,0 0.151,1.218 -0.023,1.626l-0.13,0c-0.042,-0.012 -0.086,-0.024 -0.13,-0.024c-0.076,-0.831 -0.032,-0.947 0.283,-1.602m1.924,1.519c-0.195,1.897 -1.804,5.689 -3.925,6.005c-0.435,-0.058 -0.859,-0.116 -1.283,-0.163c0,-1.885 1.957,-1.51 3.013,-3.065c0.401,-1.195 0.706,-2.377 1.229,-3.442c0.455,0 0.575,0.247 0.966,0.665m0.96,6.732c-0.947,0.7 -2.067,1.672 -3.199,1.861c-0.195,-0.563 -0.424,-1.195 -0.556,-1.664c0.903,-0.585 3.755,-3.17 3.755,-0.197m1.728,-0.423c0.107,0.468 0.294,0.937 0.195,1.558c-0.62,0.42 -2.621,2.175 -3.089,2.269c-0.305,-0.561 -0.51,-1.053 -0.729,-1.543c0.502,-0.317 3.383,-2.458 3.623,-2.284m-1.458,5.089c-1.217,-1.54 0.066,-1.777 1.372,-2.632c0.096,0 0.193,0.212 0.292,0.387c0.195,1.637 -0.446,1.628 -1.664,2.245m1.554,-0.068l-0.031,1.219c-0.044,-0.015 -0.078,-0.015 -0.109,-0.015c-0.641,-0.034 -1.033,-0.137 -1.554,-0.315c-0.086,-0.275 1.436,-0.945 1.694,-0.889m-9.918,5.91c0.687,-0.467 1.403,-0.281 2.275,-0.467c0.783,-0.305 1.522,-0.89 2.337,-0.362c-1.25,0.923 -2.067,1.95 -3.61,1.95c-0.642,-0.242 -0.75,-0.606 -1.002,-1.121m-1.924,-0.854c0.012,-0.467 0.031,-0.938 0.054,-1.404c1.01,-0.621 2.143,-0.503 3.361,-0.561c0.076,-0.153 0.162,-0.306 0.25,-0.446c0.086,0 1.468,1.403 1.73,1.661c-1.85,0.632 -2.981,1.018 -4.776,1.09c-0.206,-0.118 -0.413,-0.235 -0.619,-0.34m-15.782,0.387c0.12,-0.341 0.252,-0.679 0.382,-1.007c2.306,0.199 4.469,0.994 6.852,1.253c0.009,-0.761 0.076,-1.536 0.185,-2.224c1.544,0.045 7.262,-0.503 7.72,0.48c0.099,0.42 0.208,0.889 0.218,1.402c-0.934,0.95 -1.566,1.933 -2.818,2.154c-0.317,-0.207 -1.829,-1.299 -1.369,-1.696l1.369,0.174c0.154,0.492 -0.042,0.962 0.2,1.407c0.323,-0.294 0.336,-0.937 0.401,-1.348c0.456,-0.069 0.835,-0.104 1.413,-0.059c-0.023,-0.163 -0.044,-0.327 -0.054,-0.491c-2.426,-0.293 -4.969,-1.03 -7.103,0.201c-3.49,3.016 -2.545,-0.328 -5.632,-0.761c-0.588,0.196 -1.231,0.515 -1.764,0.515m-5.034,-1.395c0.141,-0.63 0.282,-1.041 0.534,-1.544c1.38,0.478 2.936,0.924 4.284,1.815c0.021,0.351 0.055,1.124 -0.218,1.414c-1.294,-0.525 -3.459,-1.685 -4.6,-1.685m-2.555,-1.017c0.577,0 1.447,0.784 2.012,1.17c-0.229,0.305 -0.969,0.678 -1.273,0.785c-0.773,-0.516 -0.685,-1.1 -0.739,-1.955m-0.492,-2.599c0.263,0 2.665,1.346 3.037,1.744c-0.099,0.258 -0.653,1.324 -0.687,1.311c-0.999,-0.772 -3.066,-1.615 -2.35,-3.055m-0.543,-2.468c0.044,-0.047 0.088,-0.083 0.13,-0.117c0.741,0.69 1.285,1.077 2.253,1.579c-0.109,0.399 -0.218,0.796 -0.325,1.206c-0.024,0 -0.034,0 -0.045,0.01c-1.47,-0.782 -1.957,-1.039 -2.013,-2.678m-0.368,-2.577c0.836,0.752 3.436,1.979 3.849,2.869c-0.325,0.409 -0.346,0.468 -0.76,0.527c-0.913,-0.432 -4.023,-2.237 -3.089,-3.396m0.183,-12.977c-0.011,0.983 -0.011,0.983 -0.032,0.972c-0.424,-0.258 -0.88,-0.622 -0.88,-1.1c0.446,-0.234 0.282,-0.212 0.912,0.128m1.327,-0.656c-0.79,-0.362 0.285,-1.119 0.523,-0.993c-0.097,0.315 -0.261,0.714 -0.523,0.993m1.665,-0.138c-0.141,1.204 -0.663,2.082 -1.23,3.218l0.249,0.035c0.099,0.42 1.296,4.808 1.002,5.442c-0.651,-0.281 -1.01,-0.668 -1.575,-0.716c0,1.462 2.392,1.674 2.881,2.729c-0.336,0.456 -0.783,1.297 -1.295,1.474c-3.621,-1.943 -3.274,-2.294 -2.728,-6.061c0.357,-0.295 0.531,-0.281 1.043,-0.364c0.141,0.28 0.284,0.56 0.435,0.854c0.011,0 0.023,0 0.044,0.011c0.326,-0.35 -0.208,-1.018 -0.317,-1.286c-1.598,-0.177 -2.413,-0.996 -3.62,-1.909c-0.011,-0.07 -0.023,-0.128 -0.023,-0.187l-0.979,-0.175c0,-0.094 0,-0.177 0.013,-0.257c0.585,0.163 1.184,0.326 1.783,0.491c0,0.058 0.01,0.117 0.021,0.187c0.207,0.047 1.066,0.399 1.36,0.328c-1.285,-1.663 -4.47,-1.978 -3.362,-4.378c0.414,-0.187 0.359,0.492 0.567,0.831c0.183,-0.199 0.378,-0.396 0.576,-0.585c0.109,0.059 0.218,0.13 0.325,0.198c0.011,0.177 0.023,0.352 0.044,0.527c-0.065,0.037 -0.13,0.071 -0.195,0.12l0,0.233c0.783,0 0.773,-0.703 1.088,0.527c0.325,0.609 0.947,0.958 1.598,1.38c0.294,-0.105 -0.151,-2.025 -0.206,-2.223c-0.327,-0.164 -0.653,-0.317 -0.968,-0.47c0,-0.152 0.208,-0.292 0.294,-0.397c0.685,0.211 1.119,1.005 1.739,1.639c0.619,-0.175 0.892,-0.749 1.295,-1.266c0.042,0.014 0.087,0.024 0.141,0.05m0.109,5.486l-0.077,0c-0.066,-0.035 -0.131,-0.068 -0.185,-0.103c0.021,-0.293 0.132,-0.456 0.273,-0.668l0.174,0c0,0.256 0.011,0.479 -0.185,0.771m0.401,-2.177c0,0.177 -0.38,1.148 -0.585,0.926c-0.534,-0.573 -0.328,-2.119 0.174,-2.657c0.271,0.352 1.205,1.358 0.411,1.731m-0.585,-10.519c0.239,-0.258 0.825,-1.043 1.108,-1.137c0.055,0.05 0.11,0.094 0.164,0.152c-0.132,0.131 -1.033,1.102 -1.142,1.102c-0.044,-0.047 -0.089,-0.083 -0.13,-0.117m0.598,-1.557c-0.283,0.585 -0.523,0.995 -1.121,1.275c0,-0.515 0.533,-1.415 1.121,-1.275m1.271,-0.902c-0.555,-0.139 -0.88,-2.212 -0.967,-2.657c0.043,-0.056 0.087,-0.115 0.131,-0.163c0.52,0.423 0.978,2.177 0.836,2.82m-0.303,4.882c-0.252,-0.058 -0.491,-0.117 -0.731,-0.166c-0.26,-0.549 -0.575,-1.251 -0.575,-1.744c0.021,-0.02 1.142,-1.063 1.142,-0.608c-0.478,0.469 -0.697,1.219 -0.197,1.943c0.099,-0.07 0.197,-0.14 0.306,-0.199c-0.033,-0.737 0.108,-1.194 0.261,-1.813c0,-0.844 -0.739,-1.393 -1.002,-2.049c0.055,-0.044 0.11,-0.081 0.164,-0.119c0.466,0.167 1.344,1.453 1.447,1.453c0.044,-0.058 0.086,-0.116 0.141,-0.164c-0.359,-1.274 -0.576,-2.364 -0.719,-3.533l0.131,-0.176l0.054,0c0.979,1.895 0.971,5.359 -0.422,7.175m3.423,8.589l-0.13,0.878c-0.477,-0.245 -0.945,-0.49 -1.413,-0.726c-0.011,0.012 0.174,0.464 0.184,0.527c0.448,0.761 2.449,1.616 3.384,1.252c0.228,0.163 0.413,0.482 0.653,0.82c0.065,-0.06 0.14,-0.105 0.216,-0.154c0.445,0.61 0.044,4.706 0.871,6.484c0.185,0 0.422,-0.105 0.641,-0.175c-0.468,-2.167 -0.729,-2 0.817,-2.961c0.456,0.41 -0.12,2.224 -0.263,2.961c0.066,0.023 0.099,0.023 0.131,0.163c0.054,0 0.121,0 0.184,0.012c0.076,-0.14 0.164,-0.281 0.252,-0.411c0.076,0.015 0.076,0.015 0.49,0.247l0.031,0.563c0.502,-0.33 0.643,-3.674 0.578,-4.156c-0.208,-0.092 -0.414,-0.185 -0.609,-0.269c0.01,-0.138 0.031,-0.269 0.054,-0.399c0.206,0 0.336,0.225 0.521,0.505c0.065,-0.022 0.141,-0.047 0.218,-0.059c0.446,-1.286 0.206,-3.043 0.425,-4.317c0.401,-0.435 0.565,-0.716 0.781,-1.219c0.012,0 0.023,0.013 0.044,0.025c-0.294,3.322 -0.391,6.764 -0.544,10.157l0.533,0l0.164,-1.088c0.739,0 1.502,0.01 2.317,0.14l0.033,1.322c-0.056,-0.01 -0.109,-0.01 -0.164,-0.01c-3.578,-0.178 -7.831,-0.399 -10.844,-2.483c0,-1.812 1.163,-3.462 0.796,-5.486c-0.122,-0.011 -0.24,-0.011 -0.351,-0.011c-0.172,1.004 -0.519,4.505 -0.911,5.216c-0.151,-0.034 -0.294,-0.069 -0.435,-0.103c-0.132,-1.511 0.076,-3.044 -0.176,-4.402c-0.956,-1.99 -1.924,-4.025 -2.749,-5.944c-0.164,-1.252 -0.154,-2.459 -0.12,-3.63c0.315,-0.163 0.336,-0.291 0.76,-0.197c0.13,0.256 0.282,0.502 0.424,0.902c0.458,3.205 0.62,3.896 3.207,6.026m0.861,-8.638c-2.469,1.757 -2.469,1.685 -1.772,4.6c0.869,0.983 1.064,0.95 0.749,2.422c-0.338,0.106 -0.642,0.258 -0.913,0.318c-0.185,-0.141 -0.359,-0.281 -0.533,-0.422c-0.086,-0.902 -0.456,-1.533 -0.782,-2.26c-0.044,-0.01 -0.077,-0.022 -0.111,-0.022c-0.04,-0.843 -0.107,-1.57 -0.216,-2.283c0.804,-0.772 3.013,-2.116 2.816,-3.275c0.327,-0.352 0.934,0.349 0.762,0.922m2.587,5.619c-0.369,0.374 -0.945,0.901 -1.51,0.748c-0.458,-0.315 -0.458,-0.315 -0.502,-0.315c0.326,0.574 0.948,1.425 -0.184,1.613c-0.88,-0.256 -0.534,-1.52 -0.849,-2.094c-2.925,-4.366 0.273,-6.424 3.199,-3.077c-0.229,0.504 -1.284,0.656 -1.414,0.878c0.25,0.164 0.5,0.337 0.75,0.514c0,0.102 -0.649,0.943 -0.75,1.067c0.643,0.307 0.29,-0.557 1.033,-0.317c-0.432,0.85 0.227,0.487 0.227,0.983m0.317,1.708c-0.109,-0.152 -0.218,-0.305 -0.327,-0.443c0.298,-0.753 0.611,0.542 0.327,0.443m0.129,-1.439c0.153,0.034 0.251,0.034 0.403,0.316c-0.042,0.058 -0.086,0.129 -0.128,0.198l-0.143,0c-0.076,-0.081 -0.151,-0.151 -0.216,-0.22c0.02,-0.107 0.052,-0.202 0.084,-0.294m0.23,-0.82c0.087,0.058 0.576,0.328 0.37,0.657c-0.307,-0.235 -0.512,-0.34 -0.37,-0.657m0.076,-0.725c0.227,0.082 0.357,0.175 0.565,0.517c-0.034,0.044 -0.086,0.103 -0.13,0.103c-0.219,-0.211 -0.511,-0.42 -0.435,-0.62m0.376,-0.884c0.18,0.069 0.26,0.069 0.351,0.458c-0.143,0.211 -0.143,0.211 -0.171,0.2c-0.115,-0.099 -0.23,-0.183 -0.348,-0.27c0,-0.319 0.013,-0.22 0.168,-0.388m0.093,-0.683l0.574,0.413c0,0.015 -0.012,0.221 -0.052,0.179c-0.229,-0.095 -0.446,-0.192 -0.663,-0.29c-0.012,-0.054 -0.012,-0.109 -0.012,-0.164c0.051,-0.053 0.101,-0.097 0.153,-0.138m0.501,-0.07l-0.491,-0.613c0.436,-0.789 0.601,0.731 0.491,0.613m-0.256,-1.515c0.116,-0.02 0.244,-0.037 0.376,-0.037c0.062,0.068 0.648,0.576 0.194,0.82c-0.504,-0.313 -0.423,-0.437 -0.57,-0.783m0.29,-0.422c0.045,-0.11 0.089,-0.218 0.147,-0.311c0.128,0 0.63,0.373 0.358,0.665c-0.172,-0.122 -0.347,-0.247 -0.505,-0.354m0.664,-0.227c-0.192,-0.16 -0.383,-0.301 -0.577,-0.447c0.754,-0.985 1.008,0.306 0.577,0.447m-0.124,-1.594c0.088,0.012 0.172,0.024 0.273,0.046c0.054,0.118 0,0.633 -0.133,0.492c-0.13,-0.187 -0.227,-0.315 -0.25,-0.398c0.036,-0.045 0.068,-0.094 0.11,-0.14m0.273,-0.91c0.146,0.183 0.477,0.483 0.477,0.869c-0.051,0 -0.092,0.015 -0.133,0.028c-0.277,-0.071 -0.451,-0.3 -0.595,-0.444c0.064,-0.156 0.131,-0.313 0.197,-0.453l0.054,0Zm0.173,-0.587c0.136,0.065 0.268,0.147 0.404,0.228c0,0.062 0,0.128 0.015,0.19c-0.029,-0.015 -0.061,-0.015 -0.09,-0.015c-0.375,-0.21 -0.375,-0.21 -0.433,-0.289c0.029,-0.049 0.058,-0.083 0.104,-0.114m-0.022,-3.382c0.098,0.105 0.195,0.209 0.294,0.328c-0.023,0.138 -0.034,0.28 -0.044,0.432c-0.055,0 -0.107,0 -0.152,0.012c-0.317,0 -0.218,-0.516 -0.228,-0.657c0.042,-0.046 0.086,-0.081 0.13,-0.115m0.588,-0.013c-0.273,-0.246 -0.307,-0.304 -0.37,-0.549c0.021,-0.035 0.053,-0.071 0.086,-0.105c0.11,0.011 0.219,0.034 0.338,0.056c0,0.118 0.011,0.632 -0.054,0.598m0.153,0.773c0.151,-0.329 0.172,-0.27 0.487,0.022c0,0.06 0,0.06 -0.096,0.223l-0.053,0c-0.122,-0.081 -0.231,-0.163 -0.338,-0.245m0.302,-1.559c-0.098,-0.15 -0.184,-0.303 -0.27,-0.455c0.26,-0.715 0.51,0.328 0.27,0.455m0.393,1.055c-0.109,0.072 -0.109,0.072 -0.119,0.046c-0.261,-0.326 -0.209,-0.281 -0.089,-0.583c0.065,0 0.24,0.327 0.208,0.537m-0.065,-2.225c0.034,0.095 0.097,0.223 0.13,0.424c-0.033,0.011 -0.056,0.022 -0.077,0.045c-0.196,-0.208 -0.107,-0.338 -0.053,-0.469m-1.501,-1.391c0.411,-0.55 1.457,-0.936 1.957,-0.13c-1.741,0.141 -1.741,0.141 -1.957,0.13m-3.795,0.258c0.336,-0.211 2.348,-0.632 2.598,-0.221c-0.87,0.185 -1.685,0.349 -2.489,0.42c-0.044,-0.071 -0.078,-0.141 -0.109,-0.199m-0.284,-0.937c0.271,-0.385 2.153,-0.631 2.73,-0.689l0.315,0.339c-0.978,0.456 -1.99,0.433 -2.935,0.49c-0.044,-0.047 -0.076,-0.094 -0.11,-0.14m3.132,-1.441c-0.042,0.084 -0.087,0.167 -0.131,0.262l-0.773,0.033c-0.018,0.035 -0.031,0.069 -0.042,0.104c-0.51,-0.175 -0.881,0.271 -1.358,0.271c-0.708,-0.038 -0.708,-0.038 -0.817,-0.072c0.227,-0.583 2.491,-1.018 3.121,-0.598m0.403,0.389c0.239,0.162 0.479,0.326 0.728,0.503l0,0.258c-0.249,0.187 -0.489,0.374 -0.728,0.573l-0.164,-0.106c-0.011,-0.386 -0.13,-1.019 0.164,-1.228m2.446,-0.374c-0.239,0.173 -1.054,0.642 -1.109,0.617c-0.392,-0.22 -0.783,-0.444 -1.161,-0.653c0.193,-0.211 1.835,-0.072 2.27,-0.072l0,0.108Zm0.752,0.28c0,0.174 -0.034,1.111 -0.197,0.936c-0.25,-0.106 -0.5,-0.199 -0.75,-0.293c-0.01,-0.083 -0.021,-0.164 -0.021,-0.233c0.26,-0.188 0.521,-0.375 0.781,-0.553c0.054,0.05 0.12,0.095 0.187,0.143m1.315,-1.58c-0.227,0.093 -0.456,0.188 -0.674,0.281c-1.187,-0.212 -1.317,-1.535 -0.316,-1.978c0,-0.397 0,-0.797 0.011,-1.195c-0.544,0 -1.088,0 -1.632,0.013c-0.609,1.521 -3.294,-0.938 -0.695,-1.485c0.49,0.208 0.523,0.103 0.75,0.699c0.523,0 1.044,0 1.577,0.012c-0.011,-0.465 -0.021,-0.935 -0.021,-1.403c-2.306,-0.924 2.274,-3.371 1.098,-0.118l-0.294,0.141c-0.013,0.457 -0.013,0.915 -0.013,1.38c0.438,-0.012 0.885,-0.012 1.33,-0.012c0.261,-0.843 0.907,-0.732 1.577,-0.444c0.609,1.651 -0.958,2.293 -1.523,1.23c-0.467,-0.013 -0.925,-0.013 -1.384,-0.013c0,0.409 0,0.833 0.013,1.253c0.675,0.281 0.391,1.077 0.196,1.639m-0.292,1.615c0.042,0.069 0.083,0.152 0.128,0.233c-0.086,0.094 -0.206,0.223 -0.292,0.223c-0.882,-0.071 -0.544,-0.504 0.164,-0.456m0.075,1.31l-0.653,0.176c-0.044,-0.07 -0.075,-0.13 -0.109,-0.187c0.086,-0.048 0.903,-0.445 0.762,0.011m-0.262,-1.825c-0.141,-0.059 -0.271,-0.106 -0.403,-0.153c-0.122,-0.799 0.999,-0.166 0.403,0.153m0.979,2.539c0,0.234 -0.011,0.293 -0.175,0.549c-0.726,0 -1.445,0 -2.163,0.014c-0.075,-0.304 -0.044,-0.329 0.044,-0.528c0.531,-0.047 1.794,-0.305 2.294,-0.035m0,1.241c-0.097,-0.024 -0.185,-0.035 -0.271,-0.047c0.033,-0.082 0.065,-0.152 0.109,-0.222c0.109,0.047 0.249,0.316 0.162,0.269m0.371,0.754c-0.367,-0.138 -0.597,-0.308 -0.54,-0.52c0.155,-0.045 0.269,0.017 0.52,0.138c-0.142,0.196 0.06,0.382 0.02,0.382m0.393,0.413c-0.034,0 -0.051,0.019 -0.072,0.04c-0.197,-0.081 -0.373,-0.154 -0.553,-0.212c0.036,-0.057 0.069,-0.116 0.108,-0.154c0.158,0.057 0.338,0.116 0.517,0.193l0,0.133Zm0.398,0.43c-0.014,0.046 -0.027,0.094 -0.027,0.155c-0.17,0.015 -0.324,0.03 -0.482,0.061l-0.51,-0.366c0,-0.333 0.943,0.103 1.019,0.15m0.436,0.646l-0.051,0.106c-0.3,0 -0.6,0 -0.883,0.016l-0.119,-0.122c0.386,-0.198 0.451,-0.234 1.053,0m0.233,0.487c-0.123,0.114 -0.29,0.245 -0.411,0.245c-0.108,-0.067 -0.211,-0.131 -0.302,-0.181c0.062,-0.114 0.121,-0.227 0.194,-0.327c0.108,0 0.29,0.113 0.519,0.263m0.443,0.592c-0.164,0.118 -0.263,0.224 -0.435,0.224c-0.174,0 -0.229,-0.224 -0.24,-0.258c0.25,-0.128 0.305,-0.246 0.654,-0.152c0,0.058 0.01,0.117 0.021,0.186m0.543,0.587c-0.587,0.328 -0.587,0.328 -0.642,0.328c-0.25,-0.212 -0.206,-0.212 -0.065,-0.4c0.229,0 0.458,0.014 0.687,0.025c0,0.011 0.01,0.023 0.02,0.047m0.321,0.64c-0.261,0.101 -0.683,0.309 -0.816,0.309c-0.054,-0.105 -0.095,-0.208 -0.132,-0.291c0.365,-0.123 0.534,-0.246 0.948,-0.018m0.391,0.562c-0.014,0.079 -0.024,0.173 -0.024,0.266c-0.262,0.013 -0.522,0.042 -0.767,0.066c-0.063,-0.08 -0.124,-0.146 -0.187,-0.213c0.26,-0.277 0.544,-0.253 0.978,-0.119m0.384,0.904l-0.874,0l0.043,-0.238c0.267,-0.017 0.547,-0.033 0.831,-0.033l0,0.271Zm0.304,0.273c-0.139,0.1 -0.139,0.1 -0.61,0.269c-0.109,-0.068 -0.218,-0.135 -0.329,-0.186c0.25,-0.083 0.516,-0.101 0.939,-0.083m0.069,1.024c-0.175,-0.092 -0.349,-0.185 -0.511,-0.281c0,-1.398 1.254,0.67 0.511,0.281m0.68,0.15c0,0.068 -0.096,0.566 -0.203,0.517c-0.261,-0.1 -0.402,-0.234 -0.494,-0.317c0.048,-0.082 0.465,-0.284 0.697,-0.2m0.543,1.118c-0.153,-0.015 -0.306,-0.015 -0.448,-0.015c-0.107,-0.089 -0.205,-0.164 -0.302,-0.24c0.391,-0.236 0.292,-0.311 0.72,0.031c0,0.075 0.014,0.151 0.03,0.224m0.353,0.458c-0.186,0.039 -0.369,0.092 -0.536,0.144c-0.184,-0.073 -0.351,-0.128 -0.515,-0.179c0.032,-0.091 0.081,-0.182 0.128,-0.251c0.387,-0.036 0.454,-0.052 0.923,0.286m-0.469,0.843l-0.301,-0.316c0.914,-0.53 1.275,-0.107 0.301,0.316m0.969,-0.139c0,0.431 -0.6,0.325 -0.384,0.295c-0.068,-0.017 -0.326,0.07 -0.385,0.05l0.42,-0.393c0.144,0 0.188,0.033 0.349,0.048m0.442,0.776c-0.212,0.108 -0.212,0.108 -0.325,0.108c-0.542,-0.177 -0.542,-0.177 -0.573,-0.229c0.145,-0.153 1.039,-0.389 0.898,0.121m0.364,0.412c-0.712,0.208 -0.712,0.208 -0.865,0.208c-0.046,-0.049 -0.09,-0.097 -0.137,-0.129c0.258,-0.079 0.624,-0.327 0.987,-0.262c0,0.052 0,0.114 0.015,0.183m0.485,0.866c-0.488,-0.071 -0.734,-0.176 -0.961,-0.353c1.031,-0.262 0.977,0.369 0.961,0.353m-0.392,0.424c-0.039,-0.04 -0.076,-0.08 -0.101,-0.12c0.377,-0.135 0.428,-0.204 0.917,0.012c-0.201,0.217 -0.615,0.108 -0.816,0.108m0.482,1.601c0.632,0 1.208,-0.409 1.905,-0.035c-0.107,0.662 0.235,1.293 0.042,2.047c-0.284,0 -0.477,-0.221 -0.609,-0.328l0,-0.082c0.218,-0.186 0.229,-0.198 0.567,-0.22c-0.044,-0.094 -0.086,-0.188 -0.13,-0.271c-0.427,-0.082 -0.904,-0.164 -1.197,0.012c0.499,0.492 1.129,1.651 1.629,2.412c0.164,-0.013 0.328,-0.013 0.491,-0.013l-0.327,-0.316l0.458,-0.49c0.044,0.01 0.119,0.044 0.239,0.174c-0.327,0.797 -0.044,0.961 -0.804,1.464c-0.044,0.422 -0.317,3.123 -0.708,2.702c-0.772,-0.982 -1.327,-2.153 -2.284,-0.958l-0.119,-0.13c0.304,-0.245 0.608,-0.492 0.925,-0.725c-0.12,-0.106 -0.24,-0.197 -0.349,-0.291l0.294,-0.212c-0.39,-1.684 -0.501,-3.031 -1.523,-4.271c-0.318,-0.236 -1.653,-1.184 -1.729,-1.348c0.217,0 0.633,0.188 0.958,0.188c-0.653,-2.503 -2.425,-4.927 -2.829,-7.126c1.328,1.007 2.241,4.48 3.784,5.477c-0.01,0.081 -0.021,0.163 -0.021,0.256c0.62,0.375 0.784,1.299 1.337,2.084m2.09,2.539c-0.066,-0.06 -0.133,-0.117 -0.185,-0.175c0.052,-0.187 0.075,-0.165 0.292,-0.094c0,0.071 0.01,0.141 0.023,0.209c-0.099,0.05 -0.055,0.06 -0.13,0.06m-1.306,-2.948c-0.173,0.034 -0.347,0.083 -0.511,0.129c-0.044,-0.06 -0.088,-0.119 -0.13,-0.165c0.12,-0.082 0.237,-0.164 0.37,-0.235c0.086,0.082 0.174,0.177 0.271,0.271m1.99,-3.537c2.894,0.365 2.86,0.879 2.764,3.946c-0.164,1.427 -1.012,2.177 -2.241,2.387l-0.663,-0.105c-0.011,-0.211 -0.011,-0.411 -0.011,-0.608c0.172,-0.084 0.346,-0.164 0.521,-0.236c0,-0.525 -0.458,-0.39 -0.458,-0.559c0.458,-0.492 1.132,0.42 0.981,-0.563l-1.056,0c0,-0.567 0.293,-0.425 0.228,-0.843c-0.544,-0.034 -1.077,-0.06 -1.61,-0.082c0,-1.485 0.762,-2.187 1.545,-3.337m5.361,1.102c-0.466,0.677 -0.978,3.92 -2.261,3.92l-0.032,0c0,-3.698 0.706,-4.903 -2.925,-5.396c-0.099,-0.151 -0.164,-0.303 -0.164,-0.371c1.458,-0.939 5.949,-0.364 7.558,0.187c-0.76,0.537 -1.48,1.075 -2.176,1.66m2.644,2.41c-0.021,0 -0.044,0 -0.065,0.012c-0.239,-0.315 -0.382,-0.585 -0.489,-0.831c0.01,-0.011 0.021,-0.011 0.031,-0.011c0.089,0.104 0.63,0.527 0.523,0.83m1.294,1.861l0,-0.292c-0.13,-0.071 -0.25,-0.141 -0.37,-0.2l0,-0.14c0.154,-0.046 0.282,0.024 0.5,0.152c-0.096,0.855 -0.413,0.924 -1.056,1.206c-0.043,-0.023 -0.084,-0.045 -0.131,-0.059c0.704,-1.65 0.215,-0.213 1.057,-0.667m2.73,-1.919c0.174,2.283 -2.743,2.809 -3.656,4.589c0.416,0 2.602,-1.076 2.722,-0.948c-1.057,0.855 -2.449,2.199 -3.753,2.375c-0.164,-0.176 -0.328,-0.34 -0.49,-0.503c-0.348,0.245 -1.173,2.983 -1.173,3.497l0.356,-0.034c0.23,-0.806 0.469,-1.603 0.708,-2.399c0.271,0.037 0.554,0.07 0.838,0.118c0.206,1.496 -0.044,3.499 -0.14,5.15c-0.209,0.174 -1.197,1.006 -1.384,0.911c-0.229,-0.408 -0.456,-0.818 -0.674,-1.228c0.491,-0.445 1.024,-0.959 1.491,-1.462c-0.643,-0.692 -2.981,2.153 -3.634,1.449c0.849,-1.966 2.373,-6.54 3.732,-8.366c-0.208,-1.147 -1.773,-2.411 -1.447,-3.043c0.565,0.303 1.674,1.368 2.272,1.333c0.307,-0.642 0.513,-1.181 1.122,-1.508c0.107,0.058 0.216,0.116 0.335,0.186l0.068,0.586c-1.001,0.516 -1.306,1.171 -1.59,2.386c1.252,0.809 2.121,-2.094 2.285,-2.094c0.174,0.152 0.206,0.21 0.532,0.129c0.142,-0.562 -0.227,-0.68 0.142,-1.077l0.349,0.07c0,0.163 0,0.34 0.008,0.515c0.338,-0.234 0.481,-0.362 0.708,-0.749c0.088,0.036 0.174,0.071 0.273,0.117m-5.252,1.908c0.097,0 0.195,0 0.292,0.011c-0.055,-0.537 -1,-1.3 -1.325,-1.3c0.325,0.398 0.695,0.786 1.033,1.289m0.216,9.562c-0.065,-0.106 -0.119,-0.211 -0.174,-0.317c-0.479,0.069 -0.51,0.069 -0.695,0.549c0.052,0.083 0.12,0.176 0.185,0.271c0.195,0 0.554,-0.282 0.684,-0.503m-7.133,-14.104l0,0.317c0.869,-0.011 1.738,-0.024 2.61,-0.024c-1.025,-0.725 -1.577,-0.514 -2.61,-0.293m-0.055,0.879c-0.011,0.105 -0.023,0.211 -0.023,0.315c0.47,-0.033 0.588,-0.343 0.871,0.176c-0.107,0.094 -0.218,0.187 -0.328,0.294c0.045,0.081 0.089,0.173 0.133,0.267c0.37,0 0.737,0.014 1.119,0.026l0,-0.259l-0.262,-0.034c-0.185,-0.307 -0.063,-0.399 0.01,-0.622c0.132,-0.01 0.273,-0.024 0.416,-0.024l0,-0.256c-0.991,-0.234 -1.077,-0.176 -1.936,0.117m0.76,1.216c-0.075,0.106 -0.13,0.166 -0.13,0.363c0.414,-0.012 0.827,-0.023 1.251,-0.023c-0.382,-0.116 -0.751,-0.234 -1.121,-0.34m-1.892,1.055c-0.086,0.14 -0.172,0.281 -0.25,0.431l-0.729,-0.035l-0.065,0.143l0.229,0.208c0.391,-0.022 0.783,-0.036 1.187,-0.044l-0.296,-0.703l-0.076,0Zm-9.711,-19.614c-0.717,-1.428 -1.97,0.139 -0.633,0.619c0.416,-0.14 0.445,-0.174 0.633,-0.619m0,-4.869c-0.391,-0.726 -0.903,-0.749 -1.25,0c0.172,0.376 0.12,0.362 0.617,0.55c0.351,-0.095 0.469,-0.188 0.633,-0.55m1.392,2.469c0.161,0.363 0.13,0.445 0.62,0.619c1.413,-0.372 -0.045,-2.13 -0.62,-0.619m-4.265,0.07c0,-1.463 -2.197,-0.094 -0.576,0.549c0.328,-0.034 0.446,-0.292 0.576,-0.549m-5.12,18.666c-0.185,-0.093 -0.273,-0.034 -0.361,-0.034c-0.076,-0.211 -0.152,-0.411 -0.217,-0.608c-0.567,-0.202 -1.108,0.49 -1.108,1.063c0.096,-0.094 0.195,-0.187 0.294,-0.268c0.086,0.07 0.174,0.152 0.26,0.234c0,0.106 -0.164,0.269 -0.25,0.387c0.097,0.045 0.206,0.091 0.315,0.15c0.456,-0.257 0.706,-0.49 1.067,-0.924m-2.503,-0.069c0.447,0 1.285,-0.832 1.816,-1.113c-0.065,-0.116 -0.13,-0.221 -0.184,-0.329c-0.771,-0.092 -1.359,0.809 -1.632,1.442m0.065,2.831c-1.109,-1.66 -1.229,-1.813 -1.27,-3.628c-1.393,1.089 0.531,3.568 0.955,5.055c0,0.012 0,0.024 0.01,0.038c0.328,-0.143 0.305,-1.23 0.305,-1.465m1.23,5.7c-0.512,0.737 -0.512,3.147 -0.512,4.062c0.011,0 0.023,0 0.044,0.009c0,0.727 -0.413,0.972 0.425,1.382c0.023,0 0.054,0 0.088,0.012c0.172,-1.731 0.411,-3.592 0.26,-5.255c-0.109,-0.07 -0.208,-0.139 -0.305,-0.21m0.685,-0.024c0.023,1.872 -0.055,3.886 0.162,5.839c0.13,-0.01 0.273,-0.021 0.413,-0.021c-0.119,-1.945 -0.237,-3.886 -0.348,-5.818l-0.227,0Zm0.435,-0.092c0,2.013 0.38,4.094 0.663,6.166c0.099,0.045 0.206,0.105 0.315,0.163c0.023,0 0.042,0 0.066,0.012c-0.162,-2.163 -0.316,-4.363 -0.826,-6.387c-0.078,0.01 -0.153,0.021 -0.218,0.046m-8.167,-3.71c0.445,-0.492 0.88,-0.902 0.75,-1.544c-0.425,0.221 -0.62,1.026 -0.76,1.506c0,0.014 0,0.026 0.01,0.038m-1.73,-1.639c-0.45,-0.12 -0.059,-0.385 -0.565,0.023c0.075,0.092 0.163,0.186 0.25,0.281c0.065,0 0.249,-0.235 0.315,-0.304m4.731,20.503c0,0.327 0.075,0.469 0.283,0.831c0.099,-0.07 0.206,-0.128 0.315,-0.188c-0.033,-0.748 -0.119,-0.83 -0.598,-0.643m12.302,0.784c-0.122,0.139 -0.242,0.294 -0.362,0.446c0.13,0.115 0.263,0.245 0.404,0.374c0.065,0 0.065,0 0.543,-0.222c0.045,-0.165 -0.065,-0.409 -0.065,-0.423l-0.52,-0.175Zm8.383,0.327c0,0.257 0.229,0.399 0.534,0.48c0.141,-0.022 0.282,-0.033 0.424,-0.045c0.032,-0.164 0.022,-0.329 0.022,-0.376c-0.381,-0.187 -0.697,-0.247 -0.98,-0.059m10.234,-4.834c0.099,-0.384 0.013,-0.375 -0.162,-0.596c-0.424,0.023 -0.491,0.351 -0.632,0.351c0.122,0.13 0.24,0.27 0.359,0.41c0.141,-0.057 0.284,-0.116 0.435,-0.165m-1.273,-1.403c0.24,-0.513 0.185,-0.409 -0.054,-0.759l-0.5,0c-0.088,0.137 -0.164,0.29 -0.239,0.443c0.096,0.118 0.195,0.247 0.304,0.375c0.164,-0.024 0.327,-0.047 0.489,-0.059m-2.055,-1.461c0.054,-0.167 0.111,-0.317 0.163,-0.469c-0.413,-0.633 -0.359,-0.282 -0.968,0.093c0.099,0.114 0.196,0.246 0.294,0.376l0.511,0Zm-2.306,-10.3c-0.414,0.666 -0.454,0.589 0.119,1.222c0.196,-0.024 0.404,0.017 0.609,0.007c0.24,-0.387 0.349,-0.598 0.315,-1.053c-0.487,-0.247 -0.575,-0.223 -1.043,-0.176m0.991,0.269c-0.044,0.362 -0.086,0.514 -0.305,0.831l-0.619,-0.044c-0.557,-0.993 0.075,-1.161 0.924,-0.787m-0.164,0.081l-0.653,-0.174l-0.227,0.386c0.195,0.14 0.402,0.28 0.609,0.433l0.065,0c0.185,-0.293 0.206,-0.364 0.206,-0.645m-0.609,-0.069c0.185,0.034 0.372,0.084 0.555,0.128c0,0.153 -0.053,0.281 -0.175,0.469l-0.052,0l-0.49,-0.351l0.162,-0.246Zm-10.95,10.918c-0.067,0.153 -0.132,0.317 -0.187,0.48c0.164,0.117 0.338,0.246 0.512,0.375c0.141,0 0.425,-0.164 0.62,-0.234c0,-0.188 -0.315,-0.563 -0.326,-0.587l-0.619,-0.034Zm2.098,4.564c-0.164,0.048 -0.328,0.107 -0.479,0.165c-0.034,0.139 -0.055,0.28 -0.078,0.432c0.112,0.106 0.218,0.223 0.339,0.34c0.741,-0.093 0.457,-0.574 0.218,-0.937m-3.806,-2.012c-0.283,-0.013 -0.556,-0.023 -0.827,-0.023c-0.034,0.153 -0.034,0.256 -0.034,0.492l0.391,0.104c0.414,0 0.557,-0.212 0.47,-0.573m-6.113,-3.243c0,0.399 0.034,0.445 0.37,0.775c0.141,0 0.424,-0.295 0.565,-0.41c0,-0.925 -0.62,-0.471 -0.935,-0.365m-2.001,1.837l-0.622,0c0.024,0.504 0.024,0.504 0.055,0.622c0.109,0.045 0.109,0.045 0.403,0.082c0.502,0 0.25,-0.481 0.164,-0.704m2.545,2.823l-0.065,0.245c0.055,0.082 0.12,0.165 0.185,0.255c0.185,0 0.367,0.014 0.554,0.025c-0.021,-0.362 -0.033,-0.387 -0.163,-0.597l-0.511,0.072Zm-3.089,1.801c0.141,-0.014 0.141,-0.014 0.706,-0.187l-0.542,-0.621c-0.174,0 -0.242,0.107 -0.372,0.163l0,0.494c0.067,0.045 0.13,0.095 0.208,0.151m-4.916,-2.749c-0.294,-0.13 -0.304,-0.059 -0.523,0.011c-0.021,0.327 0.099,0.468 0.307,0.829c0.5,-0.173 0.325,-0.349 0.216,-0.84m0.5,-1.581c0,0.269 0.099,0.387 0.283,0.69c0.099,-0.057 0.206,-0.116 0.316,-0.165c0,-0.584 -0.156,-0.716 -0.599,-0.525m-1.848,-3.243c0.034,0.4 0.078,0.458 0.39,0.868c0.099,-0.059 0.209,-0.117 0.315,-0.166c0,-0.76 -0.106,-0.933 -0.705,-0.702m2.491,-1.17c0.401,-0.514 0.39,-0.431 0.13,-0.855c-0.143,-0.01 -0.273,-0.01 -0.403,-0.01c-0.217,0.503 -0.25,0.375 0.054,0.865l0.219,0Zm4.324,-8.835c0.189,0.086 0.273,0.337 0.123,0.785c-0.086,0.035 -0.164,0.07 -0.239,0.114c-0.513,-0.055 -0.609,-0.35 -0.544,-0.759c0.156,-0.105 0.314,-0.164 0.451,-0.174c-0.136,-0.006 -0.294,0.011 -0.483,0.069c-0.151,0.503 -0.01,0.864 0.532,0.948c0.596,-0.158 0.665,-0.818 0.16,-0.983m-0.209,-0.034c0.077,0.004 0.149,0.014 0.209,0.034c-0.06,-0.028 -0.131,-0.039 -0.209,-0.034m23.964,18.828c1.143,-0.211 2.426,-0.971 3.373,-1.79c-1.938,-0.632 -3.612,-1.45 -5.374,-2.269c-1.119,-0.902 -3.337,-2.482 -4.687,-2.482c0.783,2.527 4.44,5.899 6.688,6.541m-5.535,-5.466c-0.249,-0.304 -0.63,-0.607 -0.706,-0.771c1.055,0 3.039,1.596 3.783,2.067c0.527,0.334 0.645,0.413 1.296,0.729c1.415,0.385 2.645,1.565 4.238,1.673c-0.688,-0.046 -2.333,1.215 -2.996,1.215c-0.752,-0.083 -2.568,-0.886 -2.7,-1.376c-1.052,-1.417 -2.579,-1.686 -2.915,-3.537m-23.013,7.023c-1.642,0.212 -3.251,0.655 -4.664,1.44c0,0.094 0.12,0.21 0.217,0.352c0.913,-0.189 3.25,-1.111 4.099,-0.937c0.785,0.889 1.369,1.416 2.394,2.152c2.077,0.739 2.893,-1.451 4.349,-1.451c3.143,3.383 2.925,1.875 6.69,0.294c0.042,-0.013 2.728,1.976 4.045,2.095c1.468,-0.105 2.36,-1.428 3.805,-1.428c2.926,1.241 3.361,1.064 6.047,-0.667c1.577,-0.456 3.406,0.855 5.439,0.164c-0.023,-0.06 -0.044,-0.106 -0.065,-0.152c-1.915,-0.223 -3.873,-0.948 -5.7,-0.889c-1.871,1.603 -3.078,2.538 -5.231,1.028c0.011,-0.022 0.021,-0.035 0.034,-0.047c-0.013,-0.009 -0.023,-0.023 -0.023,-0.034c-0.042,0 -0.086,0 -0.12,0.011c-0.816,-0.876 -0.946,-0.525 -1.813,-0.06c-2.178,2.074 -3.732,1.723 -5.548,-0.465c-2.165,-1.616 -3.392,3.275 -6.439,0.49c-1.317,-1.474 -1.098,-1.393 -2.839,-0.233c-2.447,1.358 -3.055,0.187 -4.677,-1.663m-2.828,3.231c2.981,-0.467 1.827,-1.099 4.491,0.889c1.785,0.891 2.501,-0.116 4.406,-0.468c1.382,1.181 3.045,1.521 4.893,1.415c2.6,-1.581 1.72,-1.403 4.047,0.375c0.229,0.118 0.575,0.107 0.869,0.315c1.752,0 2.512,-0.127 4.024,-1.193c1.599,-0.772 3.296,0.985 5.602,0.037c1.871,-0.868 2.707,-0.646 4.764,-0.691c-0.012,-0.164 -0.023,-0.329 -0.023,-0.479c-3.185,-0.562 -2.837,-1.114 -5.285,0.608c-2.186,0.958 -3.556,-1.101 -5.373,-0.271c-3.589,2.634 -3.589,0.082 -6.85,-0.573c-2.23,1.078 -2.741,1.535 -5.114,0.514c-0.456,-0.315 -1.239,-1.004 -1.608,-1.077c-2.644,1.066 -3.098,1.921 -5.406,0.094c-0.999,-0.712 -3.219,-1.135 -3.437,0.505m6.157,2.13c0.065,0.129 0.13,0.259 0.206,0.396c0.588,0 0.936,-0.034 1.576,-0.256c0.024,0.023 0.045,0.048 0.066,0.083c1.655,0 1.904,0.409 3.502,0.876c1.294,0.27 2.774,-0.539 4.11,-0.667c1.6,0.609 2.025,0.947 3.992,1.17c1.239,-0.035 2.002,-0.163 3.175,-0.818c1.318,-0.609 1.72,0.363 3.429,0.07c0.052,-0.118 0.107,-0.222 0.172,-0.329c-1.142,-0.396 -3.458,-1.532 -4.199,-0.163c-1.369,0.679 -2.991,0.716 -4.393,0.422c-0.838,-0.388 -1.369,-1.078 -2.186,-1.078c-1.26,0.329 -3.47,1.382 -4.589,0.41c-2.556,-1.252 -2.186,-1.042 -4.861,-0.116m7.308,1.803c-0.034,0.104 -0.086,0.327 -0.185,0.431c0.424,0.692 1.697,-0.115 2.142,-0.361c0.695,0 1.424,0.397 2.209,0.69c0.076,-0.034 0.162,-0.236 0.216,-0.34c-1.717,-1.357 -2.415,-0.82 -4.382,-0.42" style="fill:#003847;fill-rule:nonzero;"/><path d="M21.051,66.611c0.398,0.127 0.804,0.309 1.097,0.507l-0.401,1.253l-0.496,-0.159c-0.035,-0.227 -0.05,-0.491 -0.038,-0.685c-0.12,-0.117 -0.325,-0.251 -0.596,-0.338c-0.338,-0.108 -0.666,-0.067 -0.784,0.302c-0.281,0.877 1.921,1.219 1.465,2.645c-0.236,0.737 -1.073,1.099 -2.23,0.728c-0.339,-0.108 -0.737,-0.287 -1.017,-0.446l0.386,-1.207l0.488,0.157c0.04,0.237 0.058,0.519 0.04,0.704c0.083,0.078 0.288,0.187 0.469,0.245c0.375,0.12 0.653,0.028 0.756,-0.293c0.256,-0.8 -1.951,-1.23 -1.504,-2.625c0.245,-0.767 1.147,-1.178 2.365,-0.788" style="fill:#003847;fill-rule:nonzero;"/><path d="M17.447,65.323l-0.201,0.359c-0.218,0.019 -0.456,0.009 -0.675,-0.038l-1.508,2.699c0.143,0.147 0.287,0.359 0.389,0.548l-0.196,0.352l-1.991,-1.113l0.197,-0.352c0.214,-0.012 0.47,0 0.671,0.046l1.509,-2.7c-0.154,-0.161 -0.288,-0.359 -0.386,-0.555l0.2,-0.359l1.991,1.113Z" style="fill:#003847;fill-rule:nonzero;"/><path d="M9.801,61.618l0.927,-0.957c0.569,0.173 1.159,0.505 1.669,0.999c1.02,0.988 1.043,2.247 0.121,3.198c-1.03,1.063 -2.425,1.051 -3.61,-0.097c-0.345,-0.335 -0.691,-0.749 -0.933,-1.134l0.921,-0.95l0.38,0.367c-0.053,0.225 -0.145,0.444 -0.248,0.631c0.113,0.223 0.288,0.473 0.543,0.72c0.64,0.621 1.41,0.416 2.034,-0.228c0.601,-0.62 0.73,-1.456 0.05,-2.115c-0.147,-0.143 -0.306,-0.274 -0.465,-0.359l-0.635,0.655c0.079,0.146 0.135,0.349 0.179,0.529l-0.274,0.284l-1.383,-1.34l0.275,-0.284c0.142,0.012 0.301,0.029 0.449,0.081" style="fill:#003847;fill-rule:nonzero;"/><path d="M9.746,58.686l-0.351,0.215c-0.2,-0.09 -0.402,-0.216 -0.57,-0.363l-2.637,1.615c0.054,0.199 0.076,0.454 0.072,0.669l-0.343,0.21l-1.192,-1.944l0.344,-0.21c0.193,0.094 0.411,0.229 0.563,0.367l2.637,-1.616c-0.055,-0.216 -0.075,-0.453 -0.065,-0.672l0.351,-0.215l1.191,1.944Z" style="fill:#003847;fill-rule:nonzero;"/><path d="M7.669,54.997l-0.385,0.146c-0.169,-0.122 -0.352,-0.28 -0.492,-0.463l-2.892,1.096c0.016,0.205 -0.007,0.467 -0.053,0.67l-0.377,0.143l-0.809,-2.132l0.377,-0.142c0.169,0.121 0.364,0.309 0.485,0.465l2.953,-1.119l-0.381,-0.936c-0.189,0.013 -0.479,0.013 -0.731,-0.001l-0.184,-0.487l1.261,-0.478l1.228,3.238Z" style="fill:#003847;fill-rule:nonzero;"/><path d="M5.942,49.909l-0.403,0.084c-0.148,-0.146 -0.304,-0.331 -0.413,-0.534l-3.028,0.632c-0.016,0.204 -0.08,0.46 -0.158,0.653l-0.394,0.083l-0.466,-2.233l0.395,-0.082c0.148,0.146 0.311,0.362 0.406,0.536l3.091,-0.646l-0.23,-0.983c-0.188,-0.018 -0.475,-0.063 -0.721,-0.116l-0.107,-0.51l1.321,-0.275l0.707,3.391Z" style="fill:#003847;fill-rule:nonzero;"/><path d="M0.82,40.847l2.008,-0.165c1.23,-0.098 1.928,0.625 2.029,1.789c0.121,1.415 -0.558,1.964 -1.549,2.05l-2.156,0.186c-0.045,0.146 -0.16,0.338 -0.249,0.457l-0.402,0.035l-0.172,-2.005l0.401,-0.035c0.12,0.148 0.259,0.319 0.332,0.494l1.983,-0.171c0.746,-0.064 1.166,-0.361 1.097,-1.155c-0.054,-0.645 -0.468,-0.934 -1.139,-0.868l-2.112,0.206c-0.033,0.185 -0.156,0.385 -0.243,0.543l-0.401,0.035l-0.152,-1.777l0.4,-0.034c0.11,0.109 0.263,0.27 0.326,0.415" style="fill:#003847;fill-rule:nonzero;"/><path d="M4.568,33.745l-0.411,-0.008c-0.121,-0.136 -0.249,-0.32 -0.279,-0.478l-2.582,0.371l-0.001,0.008l3.252,1.211l-0.013,0.734l-3.337,1.146l0,0.008l2.594,0.316c0.077,-0.18 0.195,-0.336 0.313,-0.468l0.411,0.008l-0.031,1.672l-0.411,-0.007c-0.097,-0.113 -0.201,-0.241 -0.281,-0.377l-3.091,-0.569c-0.078,0.188 -0.188,0.367 -0.298,0.531l-0.403,-0.007l0.033,-1.767l2.973,-1.066l0,-0.016l-2.932,-1.127l0.032,-1.767l0.412,0.007c0.095,0.168 0.207,0.344 0.269,0.55l3.112,-0.535c0.068,-0.125 0.177,-0.257 0.294,-0.357l0.412,0.007l-0.037,1.98Z" style="fill:#003847;fill-rule:nonzero;"/><path d="M3.033,28.489c-0.04,0.337 -0.35,0.57 -0.701,0.528c-0.351,-0.042 -0.597,-0.342 -0.557,-0.679c0.04,-0.337 0.351,-0.577 0.702,-0.535c0.352,0.042 0.596,0.349 0.556,0.686" style="fill:#003847;fill-rule:nonzero;"/><path d="M2.633,20.762l1.957,0.478c1.198,0.296 1.632,1.203 1.359,2.339c-0.331,1.381 -1.149,1.688 -2.117,1.456l-2.103,-0.505c-0.089,0.124 -0.259,0.27 -0.381,0.354l-0.392,-0.094l0.47,-1.956l0.392,0.094c0.067,0.178 0.144,0.383 0.158,0.573l1.935,0.465c0.728,0.175 1.22,0.025 1.406,-0.75c0.151,-0.629 -0.149,-1.034 -0.807,-1.184l-2.068,-0.472c-0.091,0.165 -0.271,0.316 -0.402,0.439l-0.392,-0.094l0.416,-1.734l0.392,0.094c0.069,0.138 0.164,0.34 0.177,0.497" style="fill:#003847;fill-rule:nonzero;"/><path d="M5.838,13.27l3.407,1.734l-0.426,0.837l-4.017,0.515l2.385,1.062c0.137,-0.124 0.311,-0.231 0.51,-0.351l0.367,0.187l-0.869,1.709l-0.367,-0.186c-0.021,-0.232 -0.034,-0.46 -0.005,-0.641l-2.732,-1.434c-0.151,0.153 -0.347,0.284 -0.539,0.408l-0.359,-0.183l0.809,-1.59l3.584,-0.461l-2.085,-0.945c-0.13,0.129 -0.308,0.224 -0.49,0.309l-0.359,-0.183l0.763,-1.498l0.36,0.183c0.034,0.186 0.069,0.354 0.063,0.528" style="fill:#003847;fill-rule:nonzero;"/><path d="M10.887,12.726l-0.304,-0.277c0.031,-0.217 0.096,-0.447 0.19,-0.649l-2.285,-2.083c-0.176,0.107 -0.415,0.199 -0.623,0.255l-0.297,-0.271l1.536,-1.686l0.298,0.272c-0.037,0.211 -0.106,0.458 -0.197,0.643l2.286,2.083c0.192,-0.113 0.415,-0.199 0.628,-0.25l0.304,0.277l-1.536,1.686Z" style="fill:#003847;fill-rule:nonzero;"/><path d="M15.763,3.978l0.727,4.056l-0.829,0.505l-3.283,-2.506c-0.131,0.012 -0.285,-0.029 -0.438,-0.051l-0.21,-0.344l1.691,-1.031l0.21,0.344c-0.072,0.169 -0.153,0.324 -0.265,0.489l2.308,1.801l0.014,-0.008l-0.672,-2.799c-0.164,0.033 -0.388,0.015 -0.556,0.012l-0.21,-0.344l1.441,-0.879l0.21,0.344c-0.034,0.126 -0.063,0.289 -0.137,0.411" style="fill:#003847;fill-rule:nonzero;"/><path d="M20.176,6.245l-0.113,-0.396c0.138,-0.15 0.309,-0.327 0.504,-0.451l-0.844,-2.966c-0.208,-0.009 -0.472,-0.071 -0.666,-0.119l-0.11,-0.387l3.278,-0.933l0.311,1.091l-0.493,0.141c-0.122,-0.111 -0.301,-0.308 -0.384,-0.455l-0.941,0.267l0.358,1.258l0.774,-0.22c0.009,-0.14 0.072,-0.294 0.116,-0.401l0.409,-0.116l0.352,1.234l-0.41,0.116c-0.088,-0.077 -0.242,-0.187 -0.314,-0.295l-0.774,0.22l0.389,1.369l0.941,-0.268c-0.006,-0.195 0.04,-0.439 0.086,-0.623l0.501,-0.143l0.324,1.14l-3.294,0.937Z" style="fill:#003847;fill-rule:nonzero;"/><path d="M30.205,4.466l-0.058,-0.482c-0.598,0.135 -0.671,-1.51 -1.444,-1.558c0.583,-0.216 0.91,-0.65 0.861,-1.199c-0.076,-0.868 -0.721,-1.175 -1.86,-1.075c-0.629,0.055 -1.373,0.153 -1.554,0.169l-0.558,0.049l0.035,0.402c0.19,0.09 0.413,0.186 0.63,0.233l0.271,3.082c-0.222,0.085 -0.432,0.219 -0.579,0.348l0.035,0.409l2.123,-0.186l-0.036,-0.409c-0.142,-0.087 -0.327,-0.203 -0.505,-0.253l-0.101,-1.148l0.251,-0.022c0.771,-0.067 0.758,1.866 1.78,1.776c0.244,-0.021 0.518,-0.061 0.709,-0.136m-2.432,-2.264l-0.362,0.032l-0.121,-1.377c0.077,-0.023 0.218,-0.044 0.281,-0.049c0.59,-0.052 0.895,0.177 0.936,0.644c0.033,0.377 -0.168,0.7 -0.734,0.75" style="fill:#003847;fill-rule:nonzero;"/><path d="M33.935,4.627c-0.418,-0.019 -0.857,-0.089 -1.191,-0.203l0.061,-1.315l0.52,0.024c0.093,0.21 0.176,0.461 0.215,0.652c0.146,0.081 0.379,0.158 0.663,0.171c0.355,0.016 0.661,-0.109 0.679,-0.496c0.043,-0.92 -2.172,-0.677 -2.103,-2.172c0.037,-0.773 0.75,-1.341 1.964,-1.284c0.355,0.016 0.786,0.085 1.098,0.166l-0.059,1.265l-0.512,-0.024c-0.101,-0.218 -0.191,-0.486 -0.222,-0.669c-0.1,-0.054 -0.327,-0.105 -0.516,-0.114c-0.394,-0.018 -0.638,0.143 -0.654,0.48c-0.039,0.838 2.203,0.679 2.135,2.141c-0.037,0.806 -0.801,1.437 -2.078,1.378" style="fill:#003847;fill-rule:nonzero;"/><path d="M38.359,4.921l0.074,-0.405c0.2,-0.089 0.429,-0.156 0.65,-0.182l0.553,-3.044c-0.184,-0.092 -0.388,-0.246 -0.546,-0.391l0.072,-0.397l2.243,0.408l-0.072,0.396c-0.199,0.081 -0.445,0.154 -0.649,0.175l-0.553,3.043c0.198,0.103 0.388,0.246 0.545,0.4l-0.074,0.405l-2.243,-0.408Z" style="fill:#003847;fill-rule:nonzero;"/><path d="M47.499,4.311c-0.013,-0.244 -0.028,-0.569 0.002,-0.796l-0.704,-0.28l-1.17,2.943c0.173,0.122 0.332,0.318 0.463,0.503l-0.152,0.382l-2.127,-0.846l0.152,-0.382c0.229,-0.042 0.473,-0.078 0.682,-0.048l1.17,-2.943l-0.704,-0.279c-0.123,0.181 -0.374,0.426 -0.545,0.58l-0.455,-0.181l0.502,-1.261l3.85,1.531l-0.502,1.261l-0.462,-0.184Z" style="fill:#003847;fill-rule:nonzero;"/><path d="M53.45,6.472l-0.902,-0.704l-3.49,2.146c-0.14,-0.026 -0.319,-0.04 -0.473,-0.035l-0.253,0.324l1.312,1.025l0.253,-0.324c-0.045,-0.161 -0.102,-0.331 -0.198,-0.489l0.469,-0.281l1.275,0.996l-0.159,0.524c-0.171,-0.051 -0.362,-0.075 -0.529,-0.08l-0.253,0.324l1.561,1.22l0.253,-0.324c-0.019,-0.13 -0.069,-0.284 -0.124,-0.431l1.258,-3.891Zm-1.16,0.242c-0.073,0.183 -0.151,0.372 -0.215,0.583l-0.415,1.273l-1.007,-0.787l1.167,-0.737c0.178,-0.112 0.331,-0.232 0.464,-0.337l0.006,0.005Z" style="fill:#003847;fill-rule:nonzero;"/><path d="M57.851,13.613c0.124,-0.211 0.291,-0.49 0.442,-0.662l-0.432,-0.622l-2.602,1.805c0.076,0.196 0.101,0.448 0.107,0.674l-0.338,0.235l-1.304,-1.88l0.338,-0.235c0.214,0.092 0.438,0.197 0.594,0.337l2.602,-1.805l-0.431,-0.622c-0.203,0.083 -0.548,0.149 -0.775,0.182l-0.279,-0.402l1.115,-0.773l2.361,3.403l-1.114,0.773l-0.284,-0.408Z" style="fill:#003847;fill-rule:nonzero;"/><path d="M56.565,17.96l0.382,-0.153c0.182,0.123 0.36,0.281 0.5,0.454l2.872,-1.148c-0.02,-0.205 0.002,-0.46 0.041,-0.671l0.374,-0.15l0.847,2.117l-0.374,0.15c-0.174,-0.126 -0.366,-0.296 -0.493,-0.457l-2.871,1.148c0.018,0.222 -0.002,0.46 -0.049,0.674l-0.382,0.153l-0.847,-2.117Z" style="fill:#003847;fill-rule:nonzero;"/><path d="M58.368,23.732c-0.093,-0.408 -0.143,-0.849 -0.121,-1.202l1.283,-0.292l0.115,0.508c-0.177,0.145 -0.397,0.292 -0.571,0.38c-0.039,0.163 -0.051,0.408 0.012,0.685c0.079,0.347 0.282,0.608 0.659,0.522c0.898,-0.204 0.073,-2.274 1.533,-2.606c0.754,-0.171 1.492,0.365 1.762,1.55c0.078,0.346 0.126,0.78 0.132,1.102l-1.235,0.281l-0.114,-0.5c0.184,-0.155 0.418,-0.313 0.586,-0.392c0.025,-0.111 0.015,-0.343 -0.027,-0.528c-0.088,-0.384 -0.309,-0.577 -0.638,-0.502c-0.818,0.186 -0.066,2.305 -1.494,2.629c-0.786,0.179 -1.599,-0.389 -1.882,-1.635" style="fill:#003847;fill-rule:nonzero;"/><path d="M61.256,28.489c-0.04,-0.337 0.206,-0.637 0.557,-0.679c0.351,-0.042 0.66,0.191 0.701,0.528c0.04,0.337 -0.205,0.645 -0.556,0.687c-0.351,0.042 -0.662,-0.199 -0.702,-0.536" style="fill:#003847;fill-rule:nonzero;"/><path d="M59.623,31.676l0.411,-0.017c0.122,0.168 0.246,0.376 0.321,0.594l3.09,-0.131c0.049,-0.2 0.154,-0.441 0.262,-0.619l0.403,-0.017l0.096,2.278l-0.403,0.017c-0.122,-0.168 -0.247,-0.408 -0.313,-0.595l-3.155,0.134l0.067,1.008c0.183,0.048 0.459,0.139 0.693,0.231l0.022,0.521l-1.348,0.057l-0.146,-3.461Z" style="fill:#003847;fill-rule:nonzero;"/><path d="M63.409,41.61l-2.013,-0.093c-1.232,-0.059 -1.832,-0.866 -1.783,-2.033c0.06,-1.419 0.803,-1.878 1.798,-1.836l2.161,0.091c0.063,-0.139 0.202,-0.315 0.306,-0.421l0.402,0.017l-0.084,2.01l-0.403,-0.017c-0.1,-0.162 -0.216,-0.349 -0.266,-0.532l-1.988,-0.084c-0.748,-0.032 -1.203,0.21 -1.236,1.006c-0.027,0.647 0.345,0.986 1.02,1.007l2.12,0.065c0.057,-0.179 0.205,-0.362 0.31,-0.508l0.403,0.017l-0.075,1.782l-0.403,-0.017c-0.094,-0.123 -0.226,-0.302 -0.269,-0.454" style="fill:#003847;fill-rule:nonzero;"/><path d="M63.798,44.875l-0.397,-0.067c-0.146,0.168 -0.297,0.375 -0.385,0.552l-3.051,-0.511c-0.029,-0.221 -0.099,-0.449 -0.191,-0.648l-0.406,-0.068l-0.102,0.607c-0.1,0.599 -0.206,1.133 -0.269,1.507c-0.257,1.533 0.386,2.225 1.068,2.339c0.486,0.082 1.005,-0.176 1.201,-0.847c0.048,0.56 0.39,0.858 0.804,0.927c0.73,0.122 1.186,-0.361 1.381,-1.521c0.096,-0.576 0.184,-1.297 0.248,-1.678l0.099,-0.592Zm-2.707,1.219l-0.065,0.389c-0.113,0.677 -0.412,1.067 -0.867,0.991c-0.381,-0.064 -0.671,-0.377 -0.57,-0.976c0.045,-0.272 0.114,-0.485 0.188,-0.625l1.314,0.221Zm1.842,0.308c-0.01,0.159 -0.033,0.299 -0.066,0.493c-0.098,0.584 -0.417,0.746 -0.79,0.684c-0.373,-0.063 -0.615,-0.311 -0.506,-0.965c0.028,-0.163 0.052,-0.311 0.08,-0.426l1.282,0.214Z" style="fill:#003847;fill-rule:nonzero;"/><path d="M58.148,50.382l0.39,0.132c0.045,0.199 0.094,0.44 0.085,0.67l2.922,0.989c0.126,-0.166 0.326,-0.348 0.476,-0.48l0.381,0.129l-1.093,3.228l-1.075,-0.364l0.164,-0.486c0.161,-0.037 0.425,-0.073 0.593,-0.057l0.314,-0.927l-1.239,-0.419l-0.258,0.762c0.109,0.087 0.201,0.226 0.264,0.323l-0.137,0.403l-1.215,-0.411l0.137,-0.404c0.113,-0.028 0.292,-0.092 0.421,-0.09l0.258,-0.762l-1.348,-0.457l-0.314,0.927c0.164,0.106 0.339,0.281 0.465,0.424l-0.167,0.493l-1.122,-0.38l1.098,-3.243Z" style="fill:#003847;fill-rule:nonzero;"/><path d="M54.919,57.589c0.783,-1.297 1.842,-1.57 3.025,-0.855c1.387,0.837 1.615,2.146 0.893,3.342c-0.269,0.445 -0.542,0.769 -0.78,1.004l-1.267,-0.766l0.277,-0.459c0.255,0.024 0.532,0.09 0.742,0.171c0.148,-0.085 0.309,-0.256 0.431,-0.458c0.355,-0.588 0.1,-1.231 -0.752,-1.745c-0.81,-0.49 -1.513,-0.343 -2.04,0.528c-0.167,0.277 -0.302,0.629 -0.342,0.964l-0.615,-0.206c-0.017,-0.48 0.13,-1.027 0.428,-1.52" style="fill:#003847;fill-rule:nonzero;"/><path d="M52.894,60.541l0.282,0.299c-0.053,0.197 -0.123,0.433 -0.239,0.633l2.117,2.243c0.189,-0.087 0.451,-0.154 0.645,-0.201l0.277,0.293l-2.48,2.339l-0.779,-0.826l0.373,-0.352c0.159,0.042 0.409,0.135 0.551,0.227l0.711,-0.671l-0.897,-0.951l-0.586,0.552c0.056,0.128 0.072,0.294 0.082,0.409l-0.31,0.292l-0.88,-0.933l0.31,-0.293c0.113,0.029 0.301,0.055 0.415,0.118l0.585,-0.552l-0.976,-1.035l-0.712,0.671c0.095,0.17 0.167,0.407 0.211,0.592l-0.379,0.357l-0.813,-0.861l2.492,-2.35Z" style="fill:#003847;fill-rule:nonzero;"/><path d="M46.359,69.559l-1.681,-3.435l0.843,-0.413l3.52,2.004l-1.267,-2.283c-0.185,0.018 -0.387,-0.002 -0.619,-0.026l-0.181,-0.369l1.723,-0.844l0.18,0.37c-0.122,0.197 -0.249,0.387 -0.38,0.515l1.321,2.788c0.213,-0.031 0.448,-0.018 0.676,-0.001l0.177,0.361l-1.602,0.785l-3.141,-1.786l1.097,2.008c0.181,-0.025 0.381,0.006 0.577,0.047l0.177,0.362l-1.51,0.739l-0.177,-0.362c0.084,-0.169 0.158,-0.324 0.267,-0.46" style="fill:#003847;fill-rule:nonzero;"/><path d="M40.968,67.111c0.408,-0.09 0.85,-0.138 1.203,-0.115l0.285,1.285l-0.509,0.112c-0.144,-0.178 -0.29,-0.399 -0.377,-0.573c-0.163,-0.04 -0.408,-0.053 -0.685,0.009c-0.347,0.077 -0.609,0.278 -0.526,0.655c0.199,0.9 2.274,0.086 2.598,1.547c0.167,0.755 -0.373,1.49 -1.56,1.753c-0.346,0.076 -0.781,0.122 -1.103,0.126l-0.274,-1.236l0.501,-0.111c0.154,0.185 0.311,0.419 0.389,0.587c0.11,0.027 0.343,0.017 0.528,-0.024c0.385,-0.085 0.578,-0.305 0.505,-0.634c-0.181,-0.819 -2.304,-0.079 -2.621,-1.508c-0.174,-0.787 0.398,-1.596 1.646,-1.873" style="fill:#003847;fill-rule:nonzero;"/><path d="M36.893,67.9l0.033,0.41c-0.171,0.138 -0.375,0.261 -0.582,0.344l0.248,3.083c0.201,0.042 0.439,0.138 0.629,0.238l0.032,0.402l-2.273,0.183l-0.032,-0.402c0.171,-0.129 0.39,-0.262 0.582,-0.336l-0.248,-3.083c-0.217,-0.048 -0.439,-0.138 -0.629,-0.246l-0.033,-0.41l2.273,-0.183Z" style="fill:#003847;fill-rule:nonzero;"/><path d="M31.044,68.041c0.418,0.01 0.859,0.07 1.195,0.177l-0.032,1.316l-0.52,-0.013c-0.098,-0.208 -0.187,-0.457 -0.229,-0.647c-0.148,-0.078 -0.383,-0.149 -0.667,-0.156c-0.355,-0.009 -0.658,0.123 -0.668,0.51c-0.022,0.921 2.187,0.629 2.15,2.126c-0.018,0.772 -0.719,1.356 -1.934,1.326c-0.355,-0.008 -0.788,-0.068 -1.102,-0.142l0.031,-1.266l0.513,0.012c0.105,0.217 0.201,0.482 0.237,0.664c0.101,0.052 0.328,0.099 0.518,0.104c0.394,0.009 0.635,-0.158 0.643,-0.495c0.021,-0.838 -2.218,-0.63 -2.182,-2.093c0.019,-0.806 0.769,-1.454 2.047,-1.423" style="fill:#003847;fill-rule:nonzero;"/><path d="M25.402,69.638c0.336,0.048 0.561,0.363 0.511,0.713c-0.051,0.351 -0.356,0.589 -0.692,0.541c-0.336,-0.049 -0.569,-0.365 -0.519,-0.715c0.051,-0.35 0.364,-0.588 0.7,-0.539" style="fill:#003847;fill-rule:nonzero;"/><path d="M93.731,65.16l0,-4.596l-1.439,0l0,4.676c0,1.086 -0.584,1.681 -1.682,1.681c-1.201,0 -1.784,-0.56 -1.784,-1.681l0,-4.676l-1.428,0l0,4.596c0,1.383 0.252,2.012 1.028,2.549c0.572,0.388 1.189,0.548 2.139,0.548c0.938,0 1.578,-0.171 2.127,-0.548c0.788,-0.548 1.039,-1.166 1.039,-2.549m9.612,3.017l0,-7.613l-1.359,0l0,5.602l-0.069,-0.137l-0.068,-0.194c-0.012,-0.023 -0.035,-0.069 -0.069,-0.149c-0.034,-0.08 -0.068,-0.137 -0.08,-0.16l-3.168,-4.962l-1.657,0l0,7.545l1.371,0l0,-5.533c0.034,0.126 0.057,0.172 0.103,0.263c0.011,0.011 0.045,0.069 0.091,0.16c0.092,0.16 0.138,0.263 0.16,0.297l3.237,4.881l1.508,0Zm10.106,-3.864c0,-0.983 -0.365,-1.944 -1.016,-2.641c-0.743,-0.789 -1.635,-1.108 -3.065,-1.108l-2.8,0l0,7.544l2.788,0c1.362,0 2.357,-0.365 3.054,-1.107c0.662,-0.709 1.039,-1.681 1.039,-2.688m-1.553,0.012c0,1.612 -0.961,2.516 -2.677,2.516l-1.144,0l0,-5.01l1.144,0c0.824,0 1.407,0.149 1.807,0.446c0.538,0.401 0.87,1.19 0.87,2.048m9.877,-3.761l-1.439,0l0,7.545l1.439,0l0,-7.545Zm9.69,7.613l0,-7.613l-1.36,0l0,5.602l-0.068,-0.137l-0.069,-0.194c-0.011,-0.023 -0.034,-0.069 -0.068,-0.149c-0.035,-0.08 -0.069,-0.137 -0.08,-0.16l-3.169,-4.962l-1.656,0l0,7.545l1.37,0l0,-5.533c0.035,0.126 0.057,0.172 0.103,0.263c0.012,0.011 0.046,0.069 0.092,0.16c0.091,0.16 0.137,0.263 0.16,0.297l3.237,4.881l1.508,0Zm8.309,-6.391l0,-1.222l-5.966,0l0,1.222l2.263,0l0,6.322l1.44,0l0,-6.322l2.263,0Zm7.046,6.322l0,-1.222l-3.305,0l0,-2.013l2.584,0l0,-1.222l-2.584,0l0,-1.865l3.156,0l0,-1.222l-4.595,0l0,7.544l4.744,0Zm8.171,0l-1.874,-3.235c0.629,-0.171 0.891,-0.331 1.177,-0.697c0.274,-0.365 0.411,-0.834 0.411,-1.418c0,-0.709 -0.205,-1.258 -0.617,-1.635c-0.445,-0.422 -0.948,-0.559 -2.046,-0.559l-2.515,0l0,7.544l1.439,0l0,-3.018l0.721,0l1.727,3.018l1.577,0Zm-1.771,-5.315c0,0.755 -0.4,1.075 -1.315,1.075l-0.939,0l0,-2.082l0.939,0c0.938,0 1.315,0.286 1.315,1.007m10.369,5.315l-2.733,-7.544l-1.292,0l-2.733,7.544l1.51,0l0.617,-1.863l2.527,0l0.594,1.863l1.51,0Zm-2.493,-3.085l-1.749,0l0.869,-2.733l0.88,2.733Zm10.326,3.085l-2.733,-3.874l2.596,-3.67l-1.658,0l-2.367,3.521l0,-3.521l-1.439,0l0,7.544l1.439,0l0,-3.588l2.516,3.588l1.646,0Zm7.659,-6.322l0,-1.222l-5.966,0l0,1.222l2.263,0l0,6.322l1.44,0l0,-6.322l2.263,0Zm3.724,-1.222l-1.439,0l0,7.545l1.439,0l0,-7.545Zm8.841,0l-1.509,0l-1.646,5.099l-0.046,0.092c-0.023,0.057 -0.034,0.091 -0.034,0.194l0.011,0.08l-0.034,-0.137l-0.023,-0.126l-0.023,-0.103l-1.727,-5.099l-1.577,0l2.801,7.762l1.006,0l2.801,-7.762Zm7.016,7.544l0,-1.222l-3.304,0l0,-2.013l2.584,0l0,-1.222l-2.584,0l0,-1.865l3.156,0l0,-1.222l-4.595,0l0,7.544l4.743,0Zm11.765,-7.042c-0.503,-0.24 -0.708,-0.32 -1.074,-0.434c-0.468,-0.137 -0.914,-0.194 -1.417,-0.194c-0.881,0 -1.35,0.126 -1.899,0.502c-0.24,0.172 -0.434,0.366 -0.559,0.56c-0.183,0.286 -0.297,0.674 -0.297,1.052c0,0.823 0.411,1.327 1.748,2.093l1.167,0.663c0.492,0.275 0.663,0.492 0.663,0.812c0,0.458 -0.434,0.755 -1.098,0.755c-0.298,0 -0.709,-0.08 -1.087,-0.217c-0.297,-0.115 -0.525,-0.229 -1.074,-0.526l-0.605,1.326c0.217,0.102 0.388,0.182 0.491,0.228c0.788,0.365 1.04,0.457 1.577,0.525c0.217,0.035 0.446,0.046 0.675,0.046c1.67,0 2.652,-0.788 2.652,-2.137c0,-0.526 -0.194,-1.029 -0.514,-1.349c-0.354,-0.355 -1.108,-0.835 -2.264,-1.453c-0.538,-0.286 -0.721,-0.48 -0.721,-0.8c0,-0.424 0.435,-0.698 1.11,-0.698c0.504,0 1.155,0.183 1.955,0.537l0.571,-1.291Zm8.089,-0.502l-1.577,0l-1.589,2.95l-1.508,-2.95l-1.578,0l2.298,4.31l0,3.234l1.439,0l0,-3.234l2.515,-4.31Zm6.898,0.502c-0.503,-0.24 -0.708,-0.32 -1.074,-0.434c-0.468,-0.137 -0.914,-0.194 -1.418,-0.194c-0.881,0 -1.349,0.126 -1.898,0.502c-0.24,0.172 -0.434,0.366 -0.559,0.56c-0.183,0.286 -0.297,0.674 -0.297,1.052c0,0.823 0.411,1.327 1.748,2.093l1.167,0.663c0.492,0.275 0.663,0.492 0.663,0.812c0,0.458 -0.434,0.755 -1.098,0.755c-0.298,0 -0.71,-0.08 -1.087,-0.217c-0.297,-0.115 -0.525,-0.229 -1.074,-0.526l-0.605,1.326c0.217,0.102 0.388,0.182 0.491,0.228c0.788,0.365 1.04,0.457 1.577,0.525c0.217,0.035 0.446,0.046 0.675,0.046c1.67,0 2.652,-0.788 2.652,-2.137c0,-0.526 -0.194,-1.029 -0.514,-1.349c-0.354,-0.355 -1.108,-0.835 -2.264,-1.453c-0.538,-0.286 -0.721,-0.48 -0.721,-0.8c0,-0.424 0.435,-0.698 1.11,-0.698c0.504,0 1.155,0.183 1.955,0.537l0.571,-1.291Zm7.912,0.72l0,-1.222l-5.967,0l0,1.222l2.264,0l0,6.322l1.439,0l0,-6.322l2.264,0Zm7.045,6.322l0,-1.222l-3.304,0l0,-2.013l2.584,0l0,-1.222l-2.584,0l0,-1.865l3.156,0l0,-1.222l-4.595,0l0,7.544l4.743,0Zm10.584,0l0,-7.544l-1.725,0l-2.093,5.385c-0.068,0.183 -0.091,0.229 -0.137,0.583c-0.034,-0.286 -0.069,-0.366 -0.149,-0.583l-2.013,-5.385l-1.725,0l0,7.544l1.302,0l0,-5.578c0.115,0.641 0.126,0.766 0.286,1.201l1.578,4.377l1.293,0l1.727,-4.457c0.24,-0.629 0.229,-0.686 0.286,-1.075l0,5.532l1.37,0Zm8.003,0l0,-1.222l-3.305,0l0,-2.013l2.584,0l0,-1.222l-2.584,0l0,-1.865l3.156,0l0,-1.222l-4.595,0l0,7.544l4.744,0Z" style="fill:#5f93a1;fill-rule:nonzero;"/><path d="M109.253,49.13l-1.439,0l0,7.545l1.439,0l0,-7.545Zm9.69,7.614l0,-7.614l-1.359,0l0,5.603l-0.069,-0.137l-0.068,-0.195c-0.012,-0.023 -0.035,-0.068 -0.069,-0.148c-0.034,-0.08 -0.069,-0.137 -0.08,-0.16l-3.168,-4.963l-1.657,0l0,7.546l1.371,0l0,-5.533c0.034,0.126 0.057,0.171 0.103,0.263c0.011,0.011 0.045,0.068 0.091,0.16c0.092,0.16 0.137,0.263 0.16,0.297l3.237,4.881l1.508,0Zm8.12,-7.111c-0.503,-0.24 -0.708,-0.32 -1.074,-0.434c-0.468,-0.137 -0.914,-0.194 -1.418,-0.194c-0.881,0 -1.349,0.125 -1.898,0.502c-0.24,0.172 -0.434,0.366 -0.56,0.56c-0.182,0.285 -0.297,0.674 -0.297,1.052c0,0.823 0.412,1.326 1.748,2.093l1.168,0.663c0.492,0.274 0.663,0.492 0.663,0.812c0,0.457 -0.435,0.755 -1.098,0.755c-0.298,0 -0.71,-0.08 -1.087,-0.217c-0.297,-0.115 -0.525,-0.229 -1.074,-0.527l-0.605,1.326c0.217,0.103 0.388,0.183 0.491,0.229c0.788,0.365 1.04,0.457 1.577,0.525c0.217,0.034 0.446,0.046 0.675,0.046c1.67,0 2.652,-0.788 2.652,-2.137c0,-0.526 -0.194,-1.029 -0.514,-1.35c-0.354,-0.354 -1.108,-0.834 -2.264,-1.452c-0.538,-0.286 -0.721,-0.48 -0.721,-0.801c0,-0.423 0.435,-0.697 1.11,-0.697c0.504,0 1.155,0.183 1.955,0.537l0.571,-1.291Zm7.912,0.719l0,-1.222l-5.967,0l0,1.222l2.264,0l0,6.323l1.439,0l0,-6.323l2.264,0Zm3.724,-1.222l-1.439,0l0,7.545l1.439,0l0,-7.545Zm8.234,1.222l0,-1.222l-5.967,0l0,1.222l2.264,0l0,6.323l1.439,0l0,-6.323l2.264,0Zm8.537,3.375l0,-4.597l-1.439,0l0,4.677c0,1.086 -0.583,1.681 -1.681,1.681c-1.201,0 -1.785,-0.561 -1.785,-1.681l0,-4.677l-1.427,0l0,4.597c0,1.383 0.251,2.012 1.028,2.549c0.571,0.388 1.189,0.548 2.138,0.548c0.938,0 1.579,-0.171 2.127,-0.548c0.788,-0.549 1.039,-1.166 1.039,-2.549m8.172,-3.375l0,-1.222l-5.967,0l0,1.222l2.264,0l0,6.323l1.439,0l0,-6.323l2.264,0Zm11.411,0l0,-1.222l-4.675,0l0,7.545l1.439,0l0,-3.167l2.652,0l0,-1.21l-2.652,0l0,-1.946l3.236,0Zm7.219,-1.988c0,-0.354 -0.286,-0.628 -0.629,-0.628c-0.342,0 -0.616,0.274 -0.616,0.628c0,0.342 0.274,0.616 0.616,0.616c0.343,0 0.629,-0.274 0.629,-0.616m-2.332,-0.012c0,-0.342 -0.275,-0.628 -0.629,-0.628c-0.344,0 -0.618,0.286 -0.618,0.628c0,0.343 0.274,0.617 0.618,0.617c0.354,0 0.629,-0.274 0.629,-0.617m3.761,5.374l0,-4.597l-1.441,0l0,4.677c0,1.087 -0.582,1.682 -1.679,1.682c-1.202,0 -1.785,-0.561 -1.785,-1.682l0,-4.677l-1.428,0l0,4.597c0,1.384 0.251,2.013 1.028,2.55c0.571,0.388 1.189,0.548 2.139,0.548c0.937,0 1.577,-0.171 2.125,-0.548c0.789,-0.549 1.041,-1.166 1.041,-2.55m8.57,2.949l-1.873,-3.235c0.628,-0.172 0.891,-0.331 1.176,-0.697c0.274,-0.365 0.412,-0.835 0.412,-1.418c0,-0.709 -0.206,-1.258 -0.617,-1.635c-0.446,-0.422 -0.948,-0.56 -2.047,-0.56l-2.514,0l0,7.545l1.439,0l0,-3.018l0.721,0l1.727,3.018l1.576,0Zm-1.77,-5.316c0,0.755 -0.401,1.076 -1.316,1.076l-0.938,0l0,-2.083l0.938,0c0.938,0 1.316,0.286 1.316,1.007m16.497,5.316l0,-7.545l-1.725,0l-2.093,5.386c-0.069,0.183 -0.092,0.228 -0.137,0.583c-0.035,-0.286 -0.069,-0.366 -0.149,-0.583l-2.013,-5.386l-1.725,0l0,7.545l1.302,0l0,-5.578c0.114,0.64 0.126,0.766 0.286,1.201l1.578,4.377l1.292,0l1.727,-4.457c0.24,-0.629 0.229,-0.686 0.286,-1.075l0,5.532l1.371,0Zm9.48,-2.948l0,-4.597l-1.439,0l0,4.677c0,1.086 -0.583,1.681 -1.681,1.681c-1.201,0 -1.785,-0.561 -1.785,-1.681l0,-4.677l-1.427,0l0,4.597c0,1.383 0.251,2.012 1.028,2.549c0.571,0.388 1.189,0.548 2.138,0.548c0.938,0 1.579,-0.171 2.127,-0.548c0.788,-0.549 1.039,-1.166 1.039,-2.549m7.633,2.948l0,-1.222l-3.087,0l0,-6.323l-1.439,0l0,7.545l4.526,0Zm6.67,-6.323l0,-1.222l-5.967,0l0,1.222l2.264,0l0,6.323l1.439,0l0,-6.323l2.264,0Zm3.723,-1.222l-1.439,0l0,7.545l1.439,0l0,-7.545Zm11.062,7.545l0,-7.545l-1.725,0l-2.093,5.386c-0.068,0.183 -0.091,0.228 -0.137,0.583c-0.034,-0.286 -0.069,-0.366 -0.149,-0.583l-2.013,-5.386l-1.725,0l0,7.545l1.302,0l0,-5.578c0.115,0.64 0.126,0.766 0.286,1.201l1.578,4.377l1.293,0l1.727,-4.457c0.24,-0.629 0.228,-0.686 0.286,-1.075l0,5.532l1.37,0Zm8.002,0l0,-1.222l-3.304,0l0,-2.013l2.584,0l0,-1.222l-2.584,0l0,-1.866l3.156,0l0,-1.222l-4.595,0l0,7.545l4.743,0Zm9.554,-3.795c0,-0.984 -0.365,-1.944 -1.016,-2.642c-0.743,-0.788 -1.635,-1.108 -3.065,-1.108l-2.8,0l0,7.545l2.789,0c1.361,0 2.356,-0.365 3.053,-1.108c0.662,-0.708 1.039,-1.681 1.039,-2.687m-1.553,0.011c0,1.613 -0.961,2.517 -2.677,2.517l-1.144,0l0,-5.01l1.144,0c0.824,0 1.407,0.149 1.807,0.446c0.538,0.4 0.87,1.19 0.87,2.047m5.61,-3.761l-1.439,0l0,7.545l1.439,0l0,-7.545Zm8.989,7.545l-2.732,-7.545l-1.292,0l-2.733,7.545l1.509,0l0.618,-1.863l2.527,0l0.594,1.863l1.509,0Zm-2.492,-3.085l-1.749,0l0.869,-2.733l0.88,2.733Zm9.285,3.085l0,-1.222l-3.087,0l0,-6.323l-1.439,0l0,7.545l4.526,0Zm7.046,0l0,-1.222l-3.305,0l0,-2.013l2.584,0l0,-1.222l-2.584,0l0,-1.866l3.156,0l0,-1.222l-4.595,0l0,7.545l4.744,0Z" style="fill:#5f93a1;fill-rule:nonzero;"/><path d="M82.252,42.293l0,-4.596l-1.439,0l0,4.676c0,1.086 -0.584,1.681 -1.682,1.681c-1.201,0 -1.784,-0.56 -1.784,-1.681l0,-4.676l-1.428,0l0,4.596c0,1.383 0.252,2.012 1.028,2.549c0.572,0.388 1.189,0.548 2.139,0.548c0.938,0 1.578,-0.171 2.127,-0.548c0.788,-0.548 1.039,-1.166 1.039,-2.549m9.612,3.017l0,-7.613l-1.359,0l0,5.602l-0.069,-0.137l-0.068,-0.194c-0.012,-0.023 -0.035,-0.069 -0.069,-0.149c-0.034,-0.08 -0.068,-0.137 -0.08,-0.16l-3.168,-4.962l-1.657,0l0,7.545l1.371,0l0,-5.533c0.034,0.126 0.057,0.172 0.103,0.263c0.011,0.011 0.045,0.069 0.091,0.16c0.092,0.16 0.137,0.263 0.16,0.297l3.237,4.881l1.508,0Zm4.681,-7.613l-1.439,0l0,7.545l1.439,0l0,-7.545Zm8.841,0l-1.509,0l-1.647,5.099l-0.045,0.092c-0.023,0.057 -0.035,0.091 -0.035,0.194l0.012,0.08l-0.035,-0.137l-0.022,-0.126l-0.023,-0.103l-1.727,-5.099l-1.578,0l2.802,7.762l1.006,0l2.801,-7.762Zm7.016,7.544l0,-1.222l-3.304,0l0,-2.013l2.584,0l0,-1.222l-2.584,0l0,-1.865l3.155,0l0,-1.222l-4.595,0l0,7.544l4.744,0Zm8.171,0l-1.873,-3.235c0.628,-0.171 0.891,-0.331 1.176,-0.697c0.274,-0.365 0.412,-0.834 0.412,-1.418c0,-0.709 -0.206,-1.258 -0.617,-1.635c-0.446,-0.422 -0.948,-0.559 -2.047,-0.559l-2.514,0l0,7.544l1.439,0l0,-3.018l0.721,0l1.727,3.018l1.576,0Zm-1.77,-5.315c0,0.755 -0.401,1.075 -1.316,1.075l-0.938,0l0,-2.082l0.938,0c0.938,0 1.316,0.286 1.316,1.007m9.116,-1.727c-0.502,-0.24 -0.708,-0.32 -1.073,-0.434c-0.469,-0.137 -0.915,-0.194 -1.418,-0.194c-0.881,0 -1.35,0.126 -1.898,0.502c-0.24,0.172 -0.434,0.366 -0.56,0.56c-0.183,0.286 -0.297,0.674 -0.297,1.052c0,0.823 0.411,1.327 1.748,2.093l1.167,0.663c0.492,0.275 0.664,0.492 0.664,0.812c0,0.458 -0.435,0.755 -1.099,0.755c-0.297,0 -0.709,-0.08 -1.086,-0.217c-0.297,-0.115 -0.526,-0.229 -1.074,-0.526l-0.606,1.326c0.217,0.102 0.389,0.182 0.491,0.228c0.789,0.365 1.04,0.457 1.577,0.525c0.218,0.035 0.446,0.046 0.675,0.046c1.67,0 2.652,-0.788 2.652,-2.137c0,-0.526 -0.194,-1.029 -0.514,-1.349c-0.354,-0.355 -1.108,-0.835 -2.264,-1.453c-0.537,-0.286 -0.72,-0.48 -0.72,-0.8c0,-0.424 0.434,-0.698 1.109,-0.698c0.504,0 1.156,0.183 1.955,0.537l0.571,-1.291Zm4.051,-0.502l-1.439,0l0,7.545l1.439,0l0,-7.545Zm8.235,1.222l0,-1.222l-5.967,0l0,1.222l2.264,0l0,6.322l1.439,0l0,-6.322l2.264,0Zm5.701,-1.989c0,-0.354 -0.285,-0.628 -0.628,-0.628c-0.342,0 -0.616,0.274 -0.616,0.628c0,0.343 0.274,0.617 0.616,0.617c0.343,0 0.628,-0.274 0.628,-0.617m-1.886,-0.034c0,-0.343 -0.274,-0.617 -0.617,-0.617c-0.342,0 -0.628,0.274 -0.628,0.617c0,0.342 0.286,0.628 0.628,0.628c0.343,0 0.617,-0.286 0.617,-0.628m3.647,8.345l-2.731,-7.546l-1.293,0l-2.732,7.546l1.51,0l0.617,-1.863l2.526,0l0.594,1.863l1.509,0Zm-2.491,-3.085l-1.75,0l0.869,-2.734l0.881,2.734Zm9.165,-3.237l0,-1.222l-5.967,0l0,1.222l2.264,0l0,6.322l1.439,0l0,-6.322l2.264,0Zm12.154,6.322l0,-1.222l-4.024,0l4.024,-5.386l0,-0.936l-5.968,0l0,1.222l4.025,0l-4.094,5.386l0,0.936l6.037,0Zm8.782,-2.948l0,-4.596l-1.44,0l0,4.676c0,1.086 -0.583,1.681 -1.681,1.681c-1.201,0 -1.784,-0.56 -1.784,-1.681l0,-4.676l-1.428,0l0,4.596c0,1.383 0.251,2.012 1.028,2.549c0.571,0.388 1.189,0.548 2.138,0.548c0.938,0 1.579,-0.171 2.127,-0.548c0.788,-0.548 1.04,-1.166 1.04,-2.549m11.993,2.948l0,-1.222l-3.087,0l0,-6.322l-1.439,0l0,7.544l4.526,0Zm7.001,-8.311c0,-0.354 -0.285,-0.628 -0.628,-0.628c-0.343,0 -0.617,0.274 -0.617,0.628c0,0.343 0.274,0.617 0.617,0.617c0.343,0 0.628,-0.274 0.628,-0.617m-2.332,-0.012c0,-0.342 -0.274,-0.628 -0.629,-0.628c-0.343,0 -0.618,0.286 -0.618,0.628c0,0.343 0.275,0.617 0.618,0.617c0.355,0 0.629,-0.274 0.629,-0.617m3.761,5.375l0,-4.598l-1.44,0l0,4.678c0,1.086 -0.583,1.681 -1.68,1.681c-1.201,0 -1.785,-0.561 -1.785,-1.681l0,-4.678l-1.428,0l0,4.598c0,1.383 0.252,2.012 1.028,2.549c0.572,0.388 1.19,0.548 2.139,0.548c0.938,0 1.577,-0.171 2.126,-0.548c0.789,-0.548 1.04,-1.166 1.04,-2.549m8.479,0.937c0,-1.179 -0.719,-1.921 -1.862,-1.944c0.594,-0.034 0.903,-0.171 1.234,-0.548c0.274,-0.32 0.434,-0.767 0.434,-1.19c0,-0.492 -0.228,-1.029 -0.594,-1.349c-0.411,-0.377 -0.902,-0.502 -1.886,-0.502l-2.732,0l0,7.544l3.075,0c1.509,0 2.331,-0.708 2.331,-2.011m-1.793,-3.43c0,0.641 -0.435,0.984 -1.247,0.984l-0.858,0l0,-1.945l0.938,0c0.732,0 1.167,0.354 1.167,0.961m0.217,3.27c0,0.389 -0.194,0.721 -0.515,0.881c-0.217,0.103 -0.423,0.137 -0.869,0.137l-0.938,0l0,-2.082l0.938,0c0.892,0 1.384,0.377 1.384,1.064m9.066,2.171l0,-1.222l-3.304,0l0,-2.013l2.584,0l0,-1.222l-2.584,0l0,-1.865l3.156,0l0,-1.222l-4.595,0l0,7.544l4.743,0Zm8.339,-6.962c-0.652,-0.491 -1.407,-0.72 -2.367,-0.72c-1.246,0 -2.092,0.309 -2.847,1.051c-0.742,0.732 -1.153,1.727 -1.153,2.825c0,1.178 0.468,2.299 1.268,3.019c0.708,0.639 1.554,0.936 2.732,0.936c0.446,0 0.846,-0.046 1.212,-0.126c0.343,-0.08 0.537,-0.148 1.018,-0.365l-0.263,-1.211c-0.675,0.263 -1.121,0.354 -1.658,0.354c-1.647,0 -2.721,-1.063 -2.721,-2.687c0,-1.43 1.04,-2.459 2.492,-2.459c0.663,0 1.246,0.171 1.738,0.526l0.549,-1.143Zm8.046,6.962l-2.733,-3.874l2.595,-3.67l-1.658,0l-2.366,3.521l0,-3.521l-1.44,0l0,7.544l1.44,0l0,-3.588l2.515,3.588l1.647,0Z" style="fill:#003847;fill-rule:nonzero;"/></svg>