<svg class="pl_logo" xmlns="http://www.w3.org/2000/svg"><symbol id="pl_logo_otto" viewBox="0 0 140 52"><path fill="#F00020" d="M121.136 2.75c-6.876 0-12.469 2.12-16.42 6.508.562-1.523.858-3.381.897-5.569H81.517c-5.258 0-8.263 2.315-10.329 8.262l1.065-8.262H47.905c-4.458 0-7.518 2.131-8.624 6.305C36.264 5.159 30.902 2.75 24.12 2.75c-12.893 0-21.281 7.449-22.783 23.346L1.15 28.1C-.164 42.309 7.284 49.319 18.862 49.319c12.895 0 21.282-7.513 22.784-23.41l.188-2.002c.339-3.646.091-6.814-.655-9.515h10.919l-3.129 26.79c-.626 5.32 2.253 7.761 7.072 7.761 2.942 0 3.943-.188 5.07-.375l3.881-34.176h12.707l-3.131 26.79c-.625 5.32 2.254 7.761 7.073 7.761 2.941 0 3.943-.188 5.069-.375l3.881-34.176h6.26c2.165 0 3.913-.503 5.264-1.498-1.97 3.473-3.257 7.858-3.763 13.203l-.186 2.003c-1.314 14.209 6.133 21.219 17.712 21.219 12.896 0 21.281-7.513 22.783-23.41l.188-2.002C140.164 9.76 132.716 2.75 121.136 2.75zM28.94 23.03l-.126 1.502c-.875 10.765-4.381 14.083-8.699 14.083-3.881 0-6.634-2.628-6.071-9.638l.124-1.565c.877-10.704 4.382-14.083 8.701-14.083 3.818-.001 6.634 2.691 6.071 9.701zm97.017 0-.126 1.502c-.877 10.765-4.381 14.083-8.699 14.083-3.882 0-6.637-2.628-6.072-9.638l.125-1.565c.876-10.704 4.381-14.083 8.7-14.083 3.817-.001 6.634 2.691 6.072 9.701z"/></symbol><use href="#pl_logo_otto"/></svg>