<?xml version="1.0" encoding="UTF-8"?>
<svg id="Ebene_2" xmlns="http://www.w3.org/2000/svg" viewBox="0 0 490.03 63.21">
  <defs>
    <style>
      .cls-1 {
        fill: #fff;
      }
    </style>
  </defs>
  <g id="Ebene_1-2" data-name="Ebene_1">
    <path class="cls-1" d="M220.5,14.6h17.8v28c0,4.5,2.1,7,5.8,7.2,4.1.2,7.5-2.6,7.6-6.9.2-8.1.1-16.2.1-24.2v-3.9h17.8v47.1h-14.5c-.4-2-.8-4.1-1.3-6.6-.7.7-1.2,1.2-1.8,1.7-6.1,5.7-13.3,7.5-21.3,5.3-7.1-1.9-10-7.5-10.2-14.1-.2-11.2,0-22.2,0-33.6Z"/>
    <path class="cls-1" d="M169.6,61.8h-17.7v-28.3c-.1-4.5-2.1-6.8-6-6.8-4.2,0-7.3,2.9-7.3,7.2-.1,8.1,0,16.1,0,24.2v3.7h-17.7V14.5c4.4,0,13.4.1,13.4.1l2.2,6.7s1.2-1.1,1.7-1.6c5.7-5.5,12.5-7.3,20.2-5.8,6.6,1.4,11,6,11.3,13.2.2,11.5-.1,23-.1,34.7h0Z"/>
    <path class="cls-1" d="M489.9,61.8h-17.7v-28.1c-.1-4.8-2.1-7.1-6-7.1-4.2,0-7.3,2.9-7.3,7.2-.1,8.1,0,16.1,0,24.2v3.7h-17.7V14.4c4.5,0,13.4.1,13.4.1l2.2,6.7s1.2-1.1,1.7-1.6c5.7-5.5,12.5-7.3,20.2-5.8,6.5,1.4,10.9,5.8,11.2,12.9.3,11.7,0,23.3,0,35.1h0Z"/>
    <path class="cls-1" d="M177.9,14.6c.5-.1,6.8-.2,6.8-.2l5.2-14.4h12.4v14.4h9.9v12.2h-9.7c0,7.1-.1,13.8,0,20.5,0,2.5,1.8,3.7,4.2,3.8,1.7.1,3.4,0,5.6,0,0,3.2.1,6.3-.1,9.3,0,.6-.9,1.5-1.5,1.6-6.1,1.3-12.2,1.9-18.2.1-5.2-1.6-7.8-4.5-8-10-.3-7.2-.1-14.4-.2-21.6v-3.7h-6.5c.1-4.1.1-8,.1-12Z"/>
    <path class="cls-1" d="M280.8,14.6h14.5c.4,1.9,1.2,6.3,1.2,6.3,0,0,1.6-2.3,2.4-3.1,3.9-4.2,8.9-4.6,11.9-3.8,1.5.4,4.1,1.8,4.1,1.8l.1,13.7s-5.1-.1-7.4,0c-5.3.4-8.2,3-8.6,8.3-.4,6.6-.3,13.2-.4,19.9v4.1h-17.7c-.1,0-.1-31.2-.1-47.2Z"/>
    <path class="cls-1" d="M32.7,62.4h-14.8C12,46.8,6.1,30.8,0,14.7h17.7c.5,0,1.7,1.2,1.9,1.8,4.4,15.1,8.8,30.3,13.2,45.5,0,.1,0,.2-.1.4Z"/>
    <path class="cls-1" d="M37.2,59.5c-2.1-7.2-4.2-14.4-6.2-21.7-.2-.7.1-1.5.3-2.2,1.8-6.2,3.6-12.3,5.5-18.5.3-.8,1.9-2.4,2.7-2.4h15.5c-5.8,15.1-11.4,30.1-17.1,44.8h-.7Z"/>
    <path class="cls-1" d="M355,44.8c-1.8,5.8-5.1,7.7-11.3,6.7-4.8-.8-7.3-4.2-7.1-10.3h35.6c-.2-2.9-.3-5.4-.5-8-1-9.5-6.5-16.4-15.7-18.4-5.2-1.1-10.7-1.6-16-1-12.5,1.2-19.8,8.2-21.2,19.8-1.8,14.6,3.3,25.6,19.2,28.7,1.4.3,2.9.5,4.3.6,7.1.4,14.1.1,20.5-3.2,6.1-3.1,9.4-8.7,8.9-14.9h-16.7,0ZM345.8,24.8c5,0,7.8,2.6,7.9,7.8h-16.8c0-4.9,3.4-7.8,8.9-7.8Z"/>
    <path class="cls-1" d="M111.8,35.3c-.6-7.4-2.8-14.2-9.8-17.9-11-5.7-22.5-6-33.4.1-9.7,5.5-11.2,15-10,25.1,1.3,10.9,7.2,17,17.9,19.4,1.8.4,3.6.7,5.4.8,7.2.5,14.2.2,20.8-3.2,6.1-3.1,9.5-8.9,8.8-14.9h-16.8c-1.7,5.8-5.6,7.9-11.8,6.6-4.6-1-7.1-4.8-6.4-10.2h35.2s.3-4,.1-5.8ZM77,32.6c-.5-4.4,2.7-7.5,8.1-7.7,5.5-.2,8.6,2.5,8.4,7.7h-16.5Z"/>
    <path class="cls-1" d="M414.1,14.3c-2.9-.7-5.9-.8-8.8-1.2-15.8.3-25,7.5-26.5,21.6-1.4,14,4.2,24.6,18.8,27.5,3.4.7,6.9.9,10.3.7,14.2-.8,22.5-7.9,24-20.9,1.6-13.7-3.8-24.4-17.8-27.7ZM414,43.9c-.9,4.8-3.8,7-8.7,7s-7.8-2.3-8.3-7c-.4-3.9-.4-7.9.1-11.7.6-4.5,3.5-6.6,8.3-6.7,4.9,0,7.7,2,8.6,6.7.4,2,.4,4,.6,5.9-.3,2-.3,4-.6,5.8Z"/>
  </g>
</svg>