<svg width="158" height="178" viewBox="0 0 158 178" fill="none" xmlns="http://www.w3.org/2000/svg">
  <path d="M133.026 78.8866C132.397 78.8866 128.661 80.8828 128.054 81.3991C125.115 78.2353 127.129 79.1728 124.425 79.8828C123.209 78.5516 121.992 77.2078 120.776 75.8966C120.485 75.9866 120.219 76.0991 119.954 76.2103C120.061 76.8966 122.412 81.6803 121.992 82.0503C120.51 81.1941 119.054 80.3441 117.597 79.4853C117.362 74.3078 122.657 73.8166 124.824 70.3153C124.721 70.1478 124.64 70.0016 124.557 69.8616C117.387 68.7216 108.996 66.4978 102.592 70.2603C102.301 71.9666 99.6536 79.8828 98.7286 79.8828C98.0648 79.6303 97.4048 79.3778 96.7661 79.1503C96.9036 78.7078 98.1973 78.7928 98.5961 78.7766C97.9048 75.9866 97.7473 75.0403 95.6036 73.4516C92.0823 69.2603 89.9923 64.6203 87.4523 60.0078C85.4948 56.7041 82.4536 53.4591 81.5236 50.2666C81.1811 50.1516 80.8598 50.0391 80.5423 49.9503C80.4148 49.4391 80.3073 48.9541 80.2011 48.4703C79.3261 43.2328 75.8311 40.4978 79.3261 35.4816C79.1423 34.3478 78.9786 33.2328 78.8248 32.1241C77.5786 31.3528 77.6598 31.4116 77.2361 30.2153C78.3761 29.3028 79.6423 30.6978 80.6248 31.6416C90.2323 32.9191 83.9873 20.7328 78.6611 27.0803C75.6211 25.7691 79.6423 22.9816 79.0098 19.4803C76.7348 18.7091 74.9361 17.8828 72.9986 19.3366C71.1236 22.2403 74.2461 23.9216 74.0573 27.0266C71.6236 27.2541 69.9011 23.0403 66.7023 25.8028C63.6573 35.9116 70.6986 29.4178 74.4048 30.0728C74.6961 32.3541 70.1936 32.4378 73.7961 37.0791C68.3948 38.5303 62.7573 38.7016 57.3861 39.5291C57.1973 40.1278 57.0123 40.7278 56.8286 41.3516C57.0636 41.4941 57.3036 41.6328 57.5698 41.7753C57.5436 42.4578 57.3036 43.2603 57.3861 44.2028L58.1011 44.5378C57.6211 45.5953 56.6961 45.2541 58.0448 46.7028C61.4898 47.2178 67.3311 45.5953 71.1748 45.1966C71.1748 51.6903 53.5736 64.6466 59.4761 69.0328C60.5848 67.7253 61.4148 65.8203 61.7348 65.3653C62.3048 64.5491 66.6461 57.8441 67.3611 57.0741C67.5198 57.1303 67.6836 57.1866 67.8673 57.2741C68.5773 59.5766 65.0873 68.0928 64.1836 71.1728C63.7648 73.8478 63.6311 76.8428 62.2048 79.3441C61.0761 78.5391 62.6911 77.9566 60.7436 77.4041C61.8061 74.9053 60.6161 75.6153 62.9161 73.7916C62.7061 70.2316 58.2348 68.7503 55.9548 67.4691C56.1386 63.3928 54.3961 63.0816 51.7998 64.8228C52.0661 65.0191 52.3311 65.2466 52.6173 65.4741V66.2453C50.5836 67.6966 48.3861 69.2353 46.3986 70.5178C44.4711 69.2603 48.0386 61.6028 48.4886 59.8653C48.2786 53.3716 48.5186 48.3866 42.2986 47.5578C41.7973 48.5316 42.7748 52.5466 42.9336 54.1416C40.3111 57.3278 37.4536 59.3541 40.1023 63.1941C40.4748 66.7841 41.2411 67.2653 44.6811 68.1803C44.6811 68.3791 44.7061 68.6091 44.7323 68.8341H41.5836C41.5836 69.1478 41.5836 69.4903 41.6098 69.8353C42.1923 70.1478 44.0986 69.7491 44.9973 69.6566C44.9973 69.8616 44.9973 70.0891 45.0236 70.3153C44.3073 70.6891 42.3511 70.4878 41.4761 70.6891C41.3736 72.5391 41.1848 74.3328 40.8173 76.1553C40.3923 76.8678 38.0111 80.8566 37.5611 80.3666C39.6523 76.1553 41.0261 72.5391 36.0236 77.2666C33.0848 78.5728 33.7748 74.9566 30.9736 79.3191C28.9598 77.7491 29.0373 77.5503 27.0286 77.6366C26.7886 77.3491 26.5536 77.0703 26.3386 76.7841C25.6236 76.7553 24.9386 76.7553 24.2486 76.7553C24.0073 77.2078 23.7673 77.6653 23.5586 78.1503C23.7173 78.5728 23.9011 79.0303 24.0898 79.4853C23.9011 84.1278 27.1873 84.4141 30.6523 86.4353C30.0698 87.0616 26.0723 84.7003 24.6986 84.8966C24.5398 85.2091 24.3811 85.5278 24.2486 85.8428L25.2798 87.2891C27.3198 87.4616 30.7598 90.9378 32.7986 92.4753C32.4511 96.1791 32.1336 99.8816 31.8173 103.584C32.0011 103.692 32.1848 103.837 32.3998 103.98C32.0786 105.662 31.1273 108.654 31.1273 110.333C32.8748 111.899 31.2086 112.609 31.1273 115.543C33.0586 117.62 32.5323 119.302 32.4761 122.497C32.7473 122.724 33.0386 122.952 33.3248 123.205C33.3561 124.998 33.3761 126.823 33.4323 128.649C33.8561 129.014 34.2811 129.385 34.7298 129.758C34.7811 132.007 34.9661 133.627 35.4661 136.022C34.0148 136.79 32.6348 136.535 31.1023 137.279L31.6586 137.96C36.5036 138.217 39.9436 135.74 44.4148 135.74C51.7998 139.699 50.5273 143.169 59.3686 138.155C63.6311 137.558 64.7711 145.162 70.6686 142.004C79.6423 134.512 77.3686 138.328 85.0948 143.857C86.0773 143.828 87.0536 143.828 88.0348 143.828C95.7373 138.42 92.9823 136.054 101.504 143C105.552 143.684 108.362 138.155 110.902 138.155C117.521 140.524 118.84 141.005 125.932 137.33C123.684 134.428 123.179 138.53 121.145 138.53C120.935 137.389 121.201 136.563 121.225 135.623C123.29 133.66 125.355 131.693 127.42 129.758V129.645C126.096 128.963 124.772 128.302 123.474 127.65C123.582 125.429 123.341 123.004 124.926 121.642C123.474 113.724 124.057 105.094 124.589 97.1778C125.14 96.3191 125.697 95.4678 126.255 94.6403C128.477 91.9928 131.309 91.3078 133.609 88.6916L133.026 87.8891C130.727 88.3778 129.454 88.8578 127.522 89.8853C126.617 87.6103 137.284 88.4966 133.026 78.8866ZM59.6298 66.5378L59.7448 67.9941C59.6686 67.9941 59.5923 67.9941 59.5073 68.0291C58.6423 67.2691 58.8023 67.1391 58.8711 66.4116C59.1936 66.3691 59.1936 66.3691 59.6298 66.5378M60.5661 66.3628C59.6686 66.0053 59.5498 65.1266 59.3348 64.5903C59.4623 64.4203 59.5898 64.2891 59.7086 64.1541C61.1948 64.4591 60.5661 66.3628 60.5661 66.3628ZM61.3011 62.5041C61.7123 63.4103 61.8223 63.6466 61.7648 65.1391C60.8648 63.8528 60.8386 63.7341 60.7598 62.5041H61.3011ZM62.0773 60.7066C62.3161 61.1653 62.5923 61.6753 62.8861 62.1891C62.6373 63.1041 62.6373 63.1041 62.5548 63.0628C62.1136 62.4466 61.7373 61.8778 61.3611 61.3178L62.0773 60.7066V60.7066ZM63.1761 59.0128C63.6373 59.5441 64.3548 60.0378 64.2736 61.2966C64.0836 61.3803 63.9011 61.5016 63.7473 61.6266C63.3673 60.9341 62.9861 60.2316 62.6123 59.5803C62.8036 59.3866 62.9861 59.1778 63.1761 59.0128M65.2048 58.1228C65.2048 58.5266 65.2048 58.9316 65.2373 59.3341C65.0336 59.4453 64.8286 59.5941 64.6236 59.7391C63.8061 58.3766 63.9711 58.4491 63.9048 57.3153C64.7623 57.3153 64.4786 57.9253 65.2048 58.1228ZM66.4211 57.9041C66.2686 58.0716 66.0811 58.3178 65.8923 58.3178L65.1023 56.4953C65.1823 56.3366 65.2548 56.2166 65.3636 56.0866C66.1173 56.2166 66.2261 56.6553 66.4211 57.9041ZM66.8611 56.1041C66.4423 55.3653 66.3848 55.0503 66.3598 54.4503C66.4873 54.3091 66.6211 54.1666 66.7786 54.0228C67.3311 54.4266 67.0961 56.3641 66.8611 56.1041ZM111.592 137.162C111.745 136.905 111.935 136.677 112.119 136.45C115.451 137.162 116.754 136.79 120.245 135.909C120.219 136.737 120.194 137.59 120.194 138.444L115.799 138.699C111.725 137.279 111.725 137.279 111.592 137.162ZM95.2873 117.738C93.8561 115.915 88.7761 110.504 88.7761 108.284C91.5048 106.998 93.9636 110.963 95.7111 113.064C99.8373 117.308 105.235 119.877 110.53 122.607C124.926 129.613 124.926 129.613 125.14 129.784C121.834 134.255 120.167 135.369 115.135 136.074C104.524 133.517 101.479 126.707 95.2873 117.738M110.954 90.0541C112.436 90.8566 115.216 90.9966 117.387 92.0491C117.174 92.5353 116.83 93.6691 116.457 94.0728C113.469 92.6478 110.585 90.5666 108.654 88.0066C109.502 86.8291 111.587 86.9916 112.967 86.8391C112.967 86.8928 112.967 86.9491 112.992 87.0353C114.715 86.6628 115.109 85.9291 116.457 87.0616L115.824 88.0066C113.866 88.0066 110.692 87.3778 109.39 88.7753C112.092 88.8016 114.291 89.0028 117.2 89.6291C116.595 91.6228 112.067 89.7391 110.979 89.4578C110.954 89.6578 110.954 89.8566 110.954 90.0541M116.432 82.2241C116.699 82.8503 119.161 90.1403 117.94 88.8341C116.775 85.9778 115.084 84.5853 116.432 82.2241ZM111.51 86.0116C111.454 85.9291 111.409 85.8678 111.377 85.8091C112.436 84.8128 113.075 84.4416 114.424 83.8141C114.607 84.0991 114.817 84.3853 115.032 84.6716C114.531 85.5791 112.385 85.8678 111.51 86.0116M73.8473 50.9466C73.7398 51.1491 73.6323 51.3528 73.4486 51.4378C73.1873 51.2328 72.9223 51.0641 72.6561 50.8953C72.7386 50.7166 72.8148 50.5503 72.9223 50.4078C73.1873 50.4378 73.4286 50.5816 73.8473 50.9466ZM73.8211 48.5878C73.6636 48.6728 73.5298 48.7566 73.3973 48.8416L72.6823 48.4116V48.1866C73.1323 47.8166 72.9986 47.8166 73.8473 48.3016C73.8211 48.3866 73.8211 48.4703 73.8211 48.5878M68.9011 57.7841C68.9511 57.6728 69.0273 57.5578 69.1098 57.4728C69.4511 57.6391 69.7948 57.8441 70.1423 58.0428C70.1423 58.3241 69.9011 58.5266 69.6411 58.5266C69.2936 58.2678 68.9511 57.9003 68.9011 57.7841ZM70.1886 60.7066C70.0586 60.7391 69.9173 60.8128 69.8198 60.8866C69.2848 60.3141 68.7498 59.7366 68.2148 59.2016C68.8536 58.5153 69.8923 59.5978 70.1886 60.7066ZM69.1098 56.4741C69.1098 56.3053 69.1098 56.3053 69.3748 55.7053C69.7686 55.9316 70.5923 56.1041 70.5148 56.9878C70.4073 57.0466 70.2998 57.1028 70.2186 57.1866C69.8511 56.9291 69.4773 56.7041 69.1098 56.4741ZM72.4211 62.6241C72.3911 62.9391 72.3648 63.2528 72.3648 63.5653C72.3398 63.5653 72.3086 63.5978 72.2836 63.6216C71.3836 63.1103 71.0411 62.4253 70.6173 62.1416V64.0528C71.2811 64.2491 72.0486 63.9641 71.9673 65.4178C71.8898 65.4741 71.8123 65.5328 71.7311 65.6166L70.3573 64.3953C68.8186 69.7491 67.9186 75.9866 68.1848 81.7691C69.3961 80.8566 69.3961 81.0003 71.0161 81.2778C71.4398 78.2016 71.7311 74.9053 72.6823 72.2528C73.4736 74.8153 72.7898 78.1791 72.4411 81.0841C69.9011 81.6803 68.4761 82.4516 66.3848 83.2741C65.2211 85.7841 64.5311 87.0078 64.7148 90.5903C65.0061 90.6516 65.2973 90.7353 65.5886 90.8228V91.1678C64.4236 91.3078 64.2386 92.3041 63.8711 93.4141H63.7898C63.7073 93.4141 63.9223 89.9978 63.8911 89.6853C61.3511 83.7041 66.9936 75.1028 68.1536 69.4653C68.2611 67.6378 69.1098 62.2003 70.3773 61.4341C71.0411 61.8303 71.7311 62.2291 72.4211 62.6241M62.4911 99.3116H63.2011C63.6823 96.8891 64.1623 95.3516 65.1898 93.2703C65.8286 93.3066 66.4623 93.3316 67.1273 93.3878C66.7536 96.5191 66.7536 101.42 63.0223 102.332C60.2986 101.842 61.6736 91.9341 62.1486 91.0503C62.4098 91.2216 62.6798 91.4203 62.9711 91.6228C62.9711 94.0403 62.6248 96.6078 62.4911 99.3116ZM62.7323 89.4278C62.6248 89.5991 62.4661 89.7978 62.3323 89.8566C61.0348 89.3991 60.2423 88.8016 59.3998 88.1753C59.3998 88.0291 59.3998 87.8891 59.4248 87.7441C60.6411 87.8278 61.6998 88.0291 62.7323 89.4278ZM61.7498 86.1541C61.5161 85.9778 61.3011 85.8091 61.0911 85.6628C61.0911 85.5278 61.0911 85.3853 61.1173 85.2678C61.2236 85.3291 61.8323 85.5278 62.0411 85.9778C61.9398 86.0366 61.8323 86.0953 61.7498 86.1541ZM57.1198 87.2041L57.1973 87.6916C57.3348 87.5778 57.4623 87.4928 57.5961 87.4066C58.8423 88.8853 58.8936 92.1616 56.2711 92.1616C51.4773 91.0803 53.1486 87.8041 57.1198 87.2041M53.3336 86.8928C51.5598 86.4353 50.9561 85.1553 53.5473 85.1553C53.9411 85.8928 54.6061 86.5503 53.3336 86.8928ZM58.0448 86.4653C58.3373 86.1803 58.6586 85.9291 58.9698 85.6628C59.3686 85.9291 59.5273 85.8091 59.8186 86.6628C59.4511 86.9491 59.0011 86.9766 58.7861 87.0353C58.1011 86.5778 58.1011 86.5778 58.0448 86.4653M59.0011 83.7878C59.3173 83.5866 59.6348 83.3941 59.9773 83.2203C60.1911 83.6191 60.1911 83.6191 60.3248 84.1278C60.2173 84.2741 60.1348 84.4416 60.0536 84.6153H59.9511C59.6598 84.5566 59.3686 84.4978 59.0823 84.4728L59.0011 83.7878V83.7878ZM59.8748 89.4866C60.1348 89.6291 60.4261 89.7703 60.7236 89.9078C60.7236 89.9691 60.1661 94.3853 59.8486 94.0403C58.4436 91.1066 58.4948 92.2741 59.8748 89.4866M71.6236 86.0366C71.6236 87.0078 69.4773 87.4928 68.7673 87.6591L68.4511 87.4066C69.6111 86.5503 70.0861 86.3816 71.6236 86.0366ZM70.7248 85.4691C70.2748 85.5791 68.9511 86.0678 68.7111 85.9778C68.6598 85.8678 68.6036 85.7503 68.5523 85.6628C69.4773 85.1828 69.7686 84.7003 70.9648 84.7841L70.7248 85.4691ZM71.0161 88.3778C70.4586 89.0628 69.4261 89.5703 68.6861 89.5703L68.4511 89.2303C69.2173 88.6303 69.9273 87.5778 71.0161 88.3778M68.5061 90.6816C68.7111 90.7103 68.9261 90.7941 69.3748 91.1066C69.3198 91.1066 69.2673 91.1066 69.2423 91.1341L68.4511 90.7941C68.4511 90.7353 68.4761 90.7103 68.5061 90.6816M69.6923 92.9366C69.5598 93.0766 69.4511 93.1616 69.2936 93.1616C69.0023 92.9566 68.7361 92.7903 68.4761 92.6191V92.1616C69.0273 91.7653 69.2423 92.2741 69.6923 92.9366M68.9261 94.4378C68.8186 94.5253 68.7111 94.6128 68.6298 94.6991C68.4198 94.5253 68.2361 94.3541 68.0523 94.1828C68.0523 94.0403 68.0523 93.9303 68.0773 93.8128C68.3436 94.0141 68.6298 94.2116 68.9261 94.4378ZM67.8373 95.0366C69.3748 95.6991 68.6598 96.6366 68.5773 96.5491C67.6273 95.8916 67.3111 95.8053 67.8373 95.0366M68.8436 98.3691C68.7923 98.4841 68.7361 98.6291 68.6861 98.7691C68.4198 98.7116 68.1536 98.6578 67.9186 98.6291C67.8161 98.3991 67.7298 98.2003 67.6536 98.0028C68.1023 97.6891 68.2923 97.8628 68.8436 98.3691ZM67.5461 91.3928C67.4948 91.3928 67.4436 91.3928 67.3873 91.4203C67.2286 91.3078 67.0711 91.1928 66.9373 91.1066C66.9373 90.6516 67.0961 90.6516 67.2548 90.3403C66.8861 90.3116 66.5136 90.2816 66.1711 90.2816C65.2661 87.3216 65.7723 86.1803 66.5386 83.4178C68.3436 82.8166 70.0648 82.1928 72.1298 82.1928C72.1811 82.2491 72.2323 82.3341 72.2836 82.4203C70.5148 85.2928 67.2036 82.8778 67.5461 87.4616C67.3111 88.7753 66.4423 89.0628 67.6836 89.8853C67.7086 90.3703 67.8936 90.7353 67.5461 91.3928M67.1273 92.1891L67.2036 92.6703C67.0711 92.7903 66.9636 92.9003 66.8611 93.0428C66.7023 92.7903 66.5698 92.5353 66.4423 92.2741L67.1273 92.1891ZM68.5061 102.102C68.5061 102.248 68.5061 102.414 68.5273 102.584C68.3948 102.703 68.3948 102.703 68.2361 102.703C67.5461 102.358 67.3311 101.933 67.0448 101.529C67.0711 101.362 67.0961 101.22 67.1273 101.075C67.7861 101.22 67.7861 101.673 68.5061 102.102M68.3123 104.064L68.2361 104.69C68.1023 104.665 67.9698 104.665 67.8373 104.665C67.0711 104.555 67.2286 104.095 67.0448 103.753C67.5461 103.07 67.5461 103.325 68.3123 104.064ZM68.0211 106.97C67.1523 106.433 66.1198 105.749 66.1198 104.925C66.8098 104.925 68.1536 105.749 68.0211 106.97ZM67.3873 108.679C67.1273 108.654 66.8611 108.654 66.5961 108.654C66.4111 108.452 66.2273 108.255 66.0636 108.057C66.1973 107.823 66.4423 107.545 66.6461 107.402C67.0448 107.768 67.3111 107.798 67.3873 108.679M47.1698 103.87C47.0623 103.87 46.9548 103.87 46.8473 103.895C42.4836 103.127 40.7661 94.7828 43.0148 91.6228C46.6636 87.9741 48.7848 100.709 47.1698 103.87ZM43.3061 89.3991C43.1723 89.1128 43.0398 88.8341 42.9073 88.5716C43.0398 88.3778 43.1986 88.2016 43.3573 88.0291C43.4086 88.1753 43.7248 89.8566 43.3061 89.3991ZM42.4273 90.5666C42.2486 90.1103 42.0586 89.6853 41.8998 89.2566C42.2486 88.9416 42.2486 88.9416 42.3511 88.9416C42.6973 89.3128 42.7186 90.8791 42.4273 90.5666M58.9698 113.039C58.6586 113.979 58.1011 118.05 56.9873 118.05C51.6923 116.54 46.4798 113.149 42.1661 110.077C43.1986 108.512 44.2061 107.2 45.4223 105.833C46.6123 105.833 57.0636 110.759 58.9698 113.039M39.8361 110.419C44.0423 112.643 48.3348 115.574 52.8586 118.078C52.7498 119.108 52.4386 120.189 52.0398 121.298C51.9636 121.298 51.8761 121.298 51.8261 121.325C46.9036 119.194 42.3511 117.222 38.0886 114.375C38.0886 112.785 39.1198 111.528 39.8361 110.419M36.9223 113.494C34.9661 111.697 34.0148 110.903 32.9823 108.739C33.8061 107.514 33.5386 106.515 34.1223 105.349C35.8698 106.492 37.2698 107.485 38.9623 109.134C38.9623 110.105 36.9536 113.494 36.9223 113.494ZM42.7748 120.128C45.6061 118.619 54.5236 123.433 58.3923 124.685C60.0848 125.37 59.6348 125.769 58.8123 127.477H58.6586C55.5311 126.368 44.5473 123.949 42.7748 120.128ZM52.4898 127.112C52.4898 127.822 51.8761 130.583 50.8498 130.583C47.0623 129.585 43.3061 127.477 40.2036 125.513C40.2036 124.493 40.6536 123.004 41.0823 122.292C44.9973 123.63 48.4623 125.057 52.4898 127.112M71.5986 135.97C71.4911 135.97 71.4098 135.993 71.3323 136.022C65.2211 134.884 58.9186 133.374 53.1748 131.605C53.2311 130.355 53.4661 129.275 53.8136 128.22C56.4298 128.22 60.7436 130.095 63.5286 130.862C67.1273 131.322 73.8723 129.814 71.5986 135.97M61.0348 128.302C60.6673 127.508 60.9073 126.14 60.9586 125.57C67.1773 125.57 73.4736 127.164 80.0161 127.338C80.4911 127.395 80.9411 127.395 81.5486 127.822C81.5486 128.649 81.5486 129.5 81.5798 130.355C80.9673 130.465 80.3586 130.612 79.7498 130.755C73.6073 130.3 66.6773 130.443 61.0348 128.302ZM71.5736 121.812C71.5986 122.724 71.7061 123.77 71.5986 124.998C71.5173 124.973 71.4398 124.973 71.3636 124.973C64.9286 124.574 59.5273 123.265 53.4148 121.67C53.5736 120.273 53.8386 119.445 54.2636 118.364C60.0323 119.819 65.6448 120.672 71.5736 121.812M59.1848 118.448C59.1848 116.717 59.9511 114.664 60.7736 113.267C65.8286 113.465 71.4098 113.979 76.6273 114.72C77.3173 115.088 76.7598 120.815 76.7098 120.758C70.9648 120.155 64.3211 120.388 59.1848 118.448M88.0861 122.869C88.2186 123.667 88.2436 124.629 88.1423 125.57C86.8998 125.539 85.6773 125.539 84.4623 125.539C81.0998 125.539 75.4361 126.055 72.6048 125.057L72.6823 121.812C76.7348 121.812 84.4623 121.1 88.0861 122.869M101.929 129.418C97.3486 130.814 88.9336 131.237 84.3286 131.237C82.2398 130.554 82.8723 129.158 82.9236 127.28C88.0598 126.679 93.4311 126.968 98.7536 127.134V125.935C96.0536 125.935 89.4911 127.535 89.4911 123.577C90.0736 123.179 90.8148 123.433 91.6573 123.52C91.4748 123.832 91.2911 124.147 91.1311 124.493C91.2648 124.685 91.4223 124.888 91.5811 125.115C92.1636 125.115 92.7461 125.115 93.3286 125.143L93.1711 123.577C92.8486 123.52 92.5573 123.462 92.2711 123.433C98.7023 122.412 97.9048 123.004 101.929 129.418M94.9136 120.843L92.8061 120.389C92.2973 118.863 91.2686 116.657 92.0573 116.598C92.3823 116.574 94.8373 119.507 95.1586 120.527C95.0723 120.615 94.9948 120.728 94.9136 120.843M78.8461 115.543C82.7398 115.543 86.5773 115.088 90.5998 116.115C90.6311 117.512 90.6561 118.93 90.7073 120.358C90.0173 120.469 89.3323 120.615 88.6686 120.758C85.2036 120.527 81.7886 120.615 78.5036 120.217C78.5036 118.737 78.3498 116.427 78.8461 115.543M83.5861 91.5241V91.3303C84.5911 90.8053 84.5911 90.9641 85.9723 91.9228V92.1278L85.5273 92.4841C84.4486 92.2816 84.0673 91.9628 83.5861 91.5241ZM83.9536 92.9691C84.6098 93.1703 85.2661 93.3991 85.9636 93.6366C85.9236 93.9116 85.9236 94.2328 85.9236 94.5428C85.7461 94.5078 85.5636 94.5078 85.3798 94.5078C84.3973 94.3453 83.6636 93.6816 83.9536 92.9691ZM83.5436 89.7216C84.4136 89.7216 84.7023 89.5066 85.6973 90.2641C85.4823 90.4441 85.3236 90.6191 85.1548 90.7866C84.3336 90.4441 83.7911 90.0841 83.5436 89.7216M83.4973 88.5803L83.1148 87.7578C83.9161 87.5116 84.5511 87.9891 85.5448 88.4791V88.9916C85.4461 88.9916 85.3473 89.0278 85.2536 89.0591C84.6498 88.8891 84.0773 88.7141 83.4973 88.5803M82.9511 86.3191C82.9111 86.0641 82.9111 85.8503 82.9111 85.6353C83.6598 85.5091 84.1736 85.9366 84.9286 86.6178C84.6923 86.7866 84.4936 87.0003 84.2873 87.2141C83.8223 86.9153 83.3848 86.6178 82.9511 86.3191M82.6748 84.6791C82.6748 84.4216 82.6748 84.1691 82.7148 83.9553C83.4586 84.1691 84.2023 84.3853 84.9723 84.6041C84.5673 84.9691 83.8873 85.0416 83.6286 85.0803C83.2823 84.9341 82.9811 84.7841 82.6748 84.6791M82.4786 82.7328C82.1573 81.6491 83.6948 82.5353 84.1198 82.7041C84.1198 82.8166 84.1448 83.3591 83.9311 83.2491C83.4298 83.0803 82.9548 82.9066 82.4786 82.7328ZM82.2561 80.8541C82.7161 80.6753 83.4761 80.0328 84.2361 80.6366V81.0328L83.7373 81.3503C83.1123 81.3178 82.4786 81.2091 82.2561 80.8541ZM82.2248 78.6316C82.6711 78.6316 83.1098 78.6641 83.5611 78.6941C83.6686 78.9078 83.7811 79.1091 83.8948 79.3516C83.7548 79.4716 83.6148 79.6253 83.4761 79.7728L82.5573 79.5903C82.4498 79.2628 82.3373 78.9353 82.2248 78.6316M81.4248 77.4466V76.9266C82.1023 77.0828 82.7848 77.2503 83.4973 77.4466C83.1998 77.7728 83.1198 77.8928 82.8211 77.8928C82.3348 77.7328 81.8836 77.5728 81.4248 77.4466M80.7311 75.1253C80.8211 74.9916 80.9048 74.8516 80.9873 74.7566C81.5923 75.2203 82.1873 75.7253 82.7911 76.2341C82.6598 76.3666 82.5361 76.5103 82.4436 76.6978H82.2373C81.1198 76.2341 81.1198 75.7253 80.7311 75.1253ZM82.3436 74.7528C81.8536 74.3953 81.3636 74.0191 80.9111 73.6941L82.1598 73.4528L82.8773 74.1028C82.8773 74.5528 82.5336 74.7166 82.3436 74.7528M80.4286 72.5303C80.4286 72.0116 80.5673 72.0916 80.7073 71.7953C81.3261 72.0916 81.9448 72.3878 82.5623 72.7203C82.1836 73.1253 81.7723 73.0128 81.3923 73.0553C81.0536 72.8691 80.7411 72.6828 80.4286 72.5303ZM80.0936 71.0541C80.0448 70.8441 79.9961 70.6391 79.9961 70.4728C80.5411 70.4728 81.1311 70.4728 81.7236 70.5303C81.8273 70.7353 81.9223 70.9503 82.0186 71.2216C81.9223 71.2216 81.8273 71.2216 81.7236 71.2728C81.1798 71.1641 80.6361 71.1116 80.0936 71.0541M79.5573 69.3541C80.2748 69.1091 80.8273 68.9166 81.6873 69.4991C81.3711 69.8441 81.1873 69.8891 80.9148 69.9453L79.5573 69.3541ZM79.4048 67.4816C79.9661 66.8828 80.6798 67.5203 81.4698 68.0766C81.3461 68.2028 81.2323 68.3341 81.1161 68.5066C80.7561 68.4641 80.4036 68.4641 80.0811 68.4641C79.8348 68.1191 79.6048 67.7778 79.4048 67.4816ZM80.7061 61.7716C81.5486 62.9391 82.6886 67.2416 83.8548 67.9503C84.1961 71.6828 86.7373 74.7628 87.7998 78.6341C86.9511 79.1141 85.3373 80.6266 84.7786 80.7391C83.9061 79.7991 80.9411 64.0216 80.7061 61.7716M88.3011 84.4978C88.3011 85.4691 87.3761 85.8428 86.6548 86.4066C86.6548 87.2891 86.5273 88.3178 86.2873 89.3741C86.2098 89.3741 86.1548 89.3991 86.1036 89.4278C86.0211 89.3991 85.9398 89.3741 85.8886 89.3403C85.8111 87.9841 84.8511 84.3391 85.6486 83.4778C86.6286 83.6453 87.2111 83.7878 88.3011 84.4978M85.9698 82.2778C85.9398 82.0503 85.9186 81.8228 85.9186 81.6228C87.8248 81.7941 88.9848 82.8778 90.6561 84.2991C90.5486 84.4141 90.4423 84.5316 90.2823 84.5316C88.8261 83.7653 87.4011 83.0216 85.9698 82.2778ZM86.4298 95.7066C86.3648 95.8853 86.0198 96.1428 85.8198 96.2203C84.5073 96.0353 84.6748 95.7066 84.1348 94.8028C85.1098 94.8778 85.3511 94.8353 86.4298 95.7066ZM85.6486 97.0066C85.8886 97.2003 86.1548 97.4053 86.4198 97.6041C86.3123 97.7753 86.2098 97.9441 86.1036 98.1441H85.0948C84.9111 97.9191 84.7548 97.6891 84.5948 97.4878C84.9373 97.3178 85.2848 97.1416 85.6486 97.0066ZM86.8186 99.3653C86.8186 99.5416 86.4198 100.313 86.2873 100.252C85.4636 99.9066 85.3111 99.5416 84.9636 99.0841C85.7348 98.9691 85.8886 98.8816 86.8186 99.3653M87.1598 101.133C87.1348 101.189 87.1098 101.245 87.0786 101.333H86.8998C86.5011 101.22 86.1036 101.108 85.7048 101.022C86.1848 100.709 86.5273 100.563 87.1598 101.133ZM87.2686 102.728C87.2111 102.955 87.0536 103.555 86.8998 103.472C86.4448 103.295 85.9948 103.16 85.5723 103.014C85.5461 102.84 85.5461 102.672 85.5461 102.498C85.8886 102.128 86.7936 102.043 87.2686 102.728ZM85.7048 103.98C85.9186 103.98 86.1036 103.895 86.5523 104.269V104.412C86.3386 104.555 86.1336 104.607 85.9698 104.607C85.8623 104.578 85.7598 104.555 85.6773 104.555C85.6773 104.353 85.6773 104.149 85.7048 103.98M90.2823 105.862C89.9923 106.288 85.0136 109.449 84.9636 109.42C84.5636 108.764 84.1661 108.112 83.7973 107.485C85.7048 106.347 88.0348 104.149 90.2823 105.862ZM83.7973 108.654C83.8236 108.855 83.8548 109.05 83.9061 109.254C83.3223 110.049 83.3223 110.049 83.2723 110.02C82.9548 109.848 82.6323 109.709 82.3161 109.567C82.4236 108.339 82.6073 108.398 83.7973 108.654M87.8248 109.79C88.5661 110.79 88.9086 111.415 89.4648 112.895C87.6923 113.437 86.2611 113.553 84.5636 113.578C83.0573 113.522 81.6573 113.328 80.4398 113.039L80.5173 100.709C80.2761 95.8641 77.3686 66.7003 78.6411 65.3303C78.9323 65.9878 80.4911 65.2741 80.7823 66.2453C80.7061 66.3603 80.6248 66.4703 80.5423 66.6153C79.6686 66.1616 79.3823 66.2453 78.6161 66.2453C79.0911 71.3716 80.9161 75.8966 81.2586 81.4241C81.4161 82.7916 82.1323 83.3053 81.8411 85.1828C81.9736 85.3853 82.1323 85.5791 82.2911 85.7841C80.9411 90.8791 87.7686 101.075 83.6136 106.433C82.9236 106.998 82.2398 107.57 81.5798 108.138C81.5798 108.99 81.5798 109.848 81.5998 110.703C85.0448 111.983 84.4873 110.248 87.8248 109.79M79.6923 57.6928C79.5998 57.6041 79.0698 57.8328 78.9898 57.8766C78.7323 57.7803 77.9936 57.4316 77.7911 57.3428C77.9936 57.1191 78.6861 56.7353 79.6923 57.6928ZM78.6411 56.1878C78.4673 56.0953 77.8186 55.8578 77.8186 55.6791C78.4011 55.1653 78.2423 55.1066 79.0098 55.7891C78.9323 55.9316 78.7486 56.1591 78.6411 56.1878ZM68.6811 77.3591C69.2236 76.7741 70.2661 77.1991 70.9136 77.9016C70.8086 78.0541 70.7323 78.2491 70.6636 78.4441H69.7586C69.4036 78.1341 69.0423 77.8628 68.6811 77.5916V77.3591ZM70.6011 80.0541C70.6011 80.0941 70.6011 80.1303 70.6373 80.1741C70.4486 80.2966 70.2686 80.4528 70.1161 80.6191L68.5386 79.6491C68.5023 79.3241 68.5023 79.3241 68.6186 79.1241C69.2561 79.4103 69.9286 79.7328 70.6011 80.0541ZM70.7498 77.1803C69.6111 76.5791 68.9511 75.9866 69.6411 75.0741C69.9011 75.2428 71.9673 76.3266 70.7498 77.1803ZM68.8123 73.3878C69.4473 72.7028 70.5423 73.6566 71.3898 74.3428C71.3498 74.4816 71.3086 74.6153 71.3086 74.7878C71.1373 74.7878 70.9661 74.8403 70.8036 74.8816C69.7011 74.6566 69.3186 73.8891 68.8123 73.3878ZM70.0373 71.0903C70.5473 71.6291 72.7198 74.3391 71.1161 73.4828C70.7686 73.2353 68.6048 71.0903 70.0373 71.0903ZM71.0048 71.4191C70.3436 70.4003 70.3736 70.3203 70.4498 69.4678C70.9673 69.8028 71.6661 70.4453 71.6661 71.5066C71.4386 71.4641 71.2036 71.4191 71.0048 71.4191M70.1986 68.4628C70.3511 68.2816 70.5211 68.0991 70.6911 67.9666C71.1911 68.3291 71.6911 68.6841 72.2323 69.0916C72.2323 69.1853 71.9898 69.7216 71.8611 69.7578C71.2798 69.3141 70.7311 68.8666 70.1986 68.4628ZM70.3723 66.5116C70.4861 66.2566 70.6086 66.0391 70.7686 65.8328C71.2798 66.0841 71.7986 66.3366 72.3486 66.5916C72.3861 66.8016 72.1886 67.8741 72.1036 67.8203C71.5086 67.3553 70.9211 66.9353 70.3723 66.5116M72.7386 68.6678C73.1523 69.5016 73.3711 70.7691 72.7386 71.4578C72.7073 71.4253 72.6823 71.3991 72.6823 71.3716C72.6361 71.1903 71.9211 68.6678 72.7386 68.6678ZM74.4048 72.9353C75.5698 73.1091 76.6273 73.2241 77.9773 73.8166C77.9511 74.0216 77.9511 74.2203 77.9511 74.4178C77.2611 74.4741 76.5761 74.5578 75.9123 74.6428C75.3548 74.5866 74.8023 74.5328 74.2461 74.4991C73.7648 73.5891 74.0573 73.5641 74.4048 72.9353ZM78.1861 76.3516C78.4011 85.4691 79.1673 94.7503 78.8461 104.014C78.7173 104.292 78.5848 104.578 78.4773 104.864C77.3173 105.26 75.8611 105.062 74.7723 105.12C74.1636 104.952 73.5811 104.783 72.9986 104.639C73.2898 95.0691 73.6073 85.4978 73.9236 75.9278C75.4923 75.8716 76.3611 75.8128 78.1861 76.3516M80.1448 58.7991C80.0998 59.0603 80.0561 59.3103 80.0561 59.5716C79.9211 59.5716 79.7761 59.5716 79.6336 59.5991C79.0886 59.3103 78.5336 59.0291 78.0148 58.7466C78.1586 58.6003 78.2911 58.4603 78.4798 58.3166C79.4873 58.3166 79.9061 58.7128 80.1448 58.7991ZM80.4023 60.9228C80.2148 61.1391 79.4273 61.2491 79.1173 61.2491C78.9973 61.0753 78.3611 60.9503 78.2773 60.8216C78.5111 60.6591 79.5998 60.3166 80.0323 60.3166L80.4023 60.9228V60.9228ZM78.7748 62.5428C78.9323 62.4591 79.0911 62.3716 79.2698 62.3153C79.5911 62.5991 79.9336 62.8828 80.2761 63.1941C80.1486 63.3091 80.0161 63.4528 79.8823 63.5978C79.1936 63.5116 78.5848 63.1941 78.7748 62.5428ZM80.7036 64.6478C80.6536 64.9853 79.9673 65.2766 79.8548 65.2766C79.4886 65.0516 79.1186 64.8178 78.7923 64.6478C78.9561 64.3678 79.1186 64.1378 79.3236 63.9066C79.7523 64.1378 80.2336 64.3678 80.7036 64.6478M73.0498 108.082C72.5498 107.629 72.5798 107.599 72.6311 107.259C73.8723 106.888 78.5598 105.777 78.9023 107.717C76.9698 107.768 74.6961 108.082 73.0498 108.082ZM71.1136 59.6603C71.3098 59.6603 72.0486 60.3578 72.4423 60.6941C72.4423 60.9728 72.4423 61.2441 72.4761 61.5541C72.3873 61.5178 72.2998 61.5178 72.2448 61.5178C71.7373 61.5178 71.1411 59.7541 71.1136 59.6603ZM71.2011 58.1066C71.6548 57.6203 71.7911 57.9241 72.6173 58.3178L72.7823 59.6278C72.7273 59.6278 72.6998 59.6603 72.6723 59.6928C71.2873 58.2878 71.2873 58.2878 71.2011 58.1066ZM73.2411 57.1903C73.1273 57.1903 73.0111 57.1903 72.8961 57.2203C72.4423 56.7941 71.9936 56.3678 71.5673 55.9428C71.5673 55.2103 73.1098 56.0616 73.2411 57.1903M71.7823 51.1491H71.6236C71.5736 51.1203 71.5173 51.0903 71.4911 51.0903C71.5736 50.8628 71.6548 50.6353 71.7573 50.4078C72.1298 50.4378 72.0736 50.7166 71.7823 51.1491ZM72.0486 53.8341C72.1636 53.7441 72.2736 53.6566 72.4198 53.5666C72.7823 53.9278 73.0386 54.2641 73.7498 54.6303C73.6623 54.7841 73.5798 54.9341 73.5198 55.0841H73.3236C72.5898 54.5428 72.3611 54.2966 72.0486 53.8341ZM72.3398 51.9428H73.0811C73.4286 52.3728 74.1636 52.7966 73.5811 53.4303C72.6311 52.9166 72.6561 52.6303 72.3398 51.9428M74.7461 48.0153C75.3861 47.7853 75.6461 47.6166 76.5511 47.6728C77.6598 52.7741 78.5036 65.6453 77.2048 72.1691C76.6273 72.1691 76.0698 72.1691 75.5136 72.1941C75.1148 72.0228 74.7211 71.8566 74.3223 71.7116C73.0298 64.7303 74.3486 55.0228 74.7461 48.0153ZM77.8186 52.8866C78.1098 53.2003 78.7998 54.1991 78.0786 54.5653C77.8448 53.7953 77.4498 53.2853 77.8186 52.8866ZM78.4661 52.5428C78.8573 52.7428 79.2923 52.9391 79.7261 53.1353C79.6911 53.3278 79.6911 53.5278 79.6911 53.7591C79.5523 53.7591 79.4036 53.7591 79.2923 53.7941C78.8786 53.7066 77.9536 53.0891 78.4661 52.5428M80.9198 54.8691C80.7273 55.0391 80.5798 55.2453 80.4173 55.4528C79.9211 55.1203 79.4648 54.8278 79.0048 54.5466C79.5073 54.2953 80.6898 54.1441 80.9198 54.8691M82.2023 56.6766C81.8636 56.9378 81.8636 56.9378 81.3898 57.0691C80.0673 56.7191 78.5411 56.5653 80.2348 55.9641C81.0373 56.2703 81.5361 56.4228 82.2023 56.6766ZM82.4536 57.8691C82.1573 58.1278 81.8661 58.4666 81.5998 58.4666C80.8898 58.2991 80.7823 58.0428 80.5423 57.6978C81.3348 57.4728 81.6823 57.0466 82.4536 57.8691M83.0848 59.5603C83.0486 59.6391 83.0486 59.7541 83.0486 59.8766L81.9361 60.2353C80.2986 59.9591 80.4423 59.5928 81.4123 58.8353C81.9011 59.0791 82.1586 59.3553 83.0848 59.5603ZM83.8136 61.5766C83.9123 61.7141 83.3236 61.7066 83.1173 61.7066C82.3373 61.5953 81.5836 60.8478 81.3161 61.2078C82.0548 60.2141 83.1486 60.6441 83.8136 61.5766M84.5286 62.7678C84.4948 63.0266 84.4548 63.3266 84.4548 63.6228C84.2898 63.6228 84.1161 63.6228 83.9423 63.6603C82.9436 63.5103 82.6936 63.7453 82.2148 63.3091C82.4136 62.8966 82.6623 62.5266 82.9011 62.1528C83.4136 62.5603 83.9761 62.3541 84.5286 62.7678M85.0523 64.8116V65.1203C84.6436 65.5716 84.0973 65.4378 83.5986 65.3828L83.0998 64.3091C83.6798 64.0916 84.3848 64.4053 85.0523 64.8116ZM85.8098 66.8566L83.7323 66.8178L83.4523 66.5228C84.5061 65.8941 84.6773 65.8216 85.8098 66.8566M86.4736 68.0928C86.1936 68.3941 85.3011 68.3941 85.1048 68.3941L84.0586 67.8853C84.0886 67.6753 84.1323 67.5091 84.1711 67.3366C84.9086 67.5928 85.6836 67.8441 86.4736 68.0928M86.8236 69.7541C86.7486 69.8378 86.6648 69.9666 86.5886 70.0928H86.2386C85.9186 69.8791 85.6048 69.6628 85.3261 69.4528C85.6373 68.9428 86.3911 68.7716 86.8236 69.7541M87.6611 71.5141L87.3448 71.7728C86.5773 71.6828 86.3686 71.4841 86.0523 71.1441C86.2311 70.9141 86.5273 70.3753 86.8186 70.3753C87.0023 70.5716 87.4773 70.9141 87.6611 71.5141ZM88.5623 72.8766C88.4411 73.0066 88.3173 73.1766 88.2423 73.3491H87.9686C87.3373 73.0941 86.7511 72.8766 86.1586 72.6716C86.6298 72.1628 87.6961 72.4616 88.5623 72.8766ZM89.2773 74.0753C89.2773 74.1803 89.2773 74.2878 89.3148 74.3928C89.1248 74.5991 88.9223 74.8841 88.6311 74.8841C87.8373 74.7791 87.4773 74.7478 87.2798 74.2878C87.9086 74.0753 88.3648 73.6478 89.2773 74.0753ZM89.5361 75.9153C89.2123 76.0003 88.8998 76.0878 88.5848 76.2141C88.0636 75.8741 87.3886 75.5791 87.5498 75.1878C88.6986 75.1878 88.7986 74.9691 89.5361 75.9153M90.2511 76.9766L90.3623 77.3578H88.1911C88.1911 77.2266 88.2361 77.0991 88.2723 77.0241C88.9311 76.9766 89.5898 76.9766 90.2511 76.9766M91.1736 78.7066C91.1186 78.8866 91.1186 78.8866 90.4461 79.1903C90.0448 78.9566 89.6523 78.7066 89.3173 78.5216C89.5336 78.3478 89.7611 78.1691 89.9898 78.0441C90.3811 78.2228 90.7711 78.4791 91.1736 78.7066M95.8698 92.7628C95.4761 92.9366 95.0723 93.1016 94.7048 93.3066C92.2411 92.7053 91.7648 92.5041 90.4673 90.2553C90.7848 89.5116 91.1061 88.7753 91.4486 88.0553C91.6073 88.0291 91.7911 88.0291 91.9748 88.0291C91.9236 90.1941 91.2648 90.6516 93.4623 91.5916C93.5136 90.9041 93.0948 90.5903 92.9048 90.3991C93.0386 89.4866 93.6461 88.8341 94.0648 88.1753C92.9823 87.3478 92.6648 86.7491 91.6073 86.1541C90.4923 86.2078 88.1986 87.1228 87.5086 86.7491C87.4773 86.5778 87.4773 86.4066 87.4773 86.2641C89.1698 84.8966 90.4161 85.0728 92.5886 84.9278C91.5048 82.2778 89.1186 81.7691 86.9761 80.6528C86.9511 80.5116 86.9511 80.5116 87.0786 80.2003C93.5398 81.9353 95.2298 85.5791 95.8698 92.7628M88.1423 87.9178C88.3261 87.9178 88.4598 88.0066 88.8011 88.2016C88.2186 88.8341 87.9023 89.5116 87.4773 90.2816C87.4011 90.2816 87.3186 90.2816 87.2373 90.3116H87.0786C87.3448 89.3741 87.6923 88.6303 88.1423 87.9178M90.4161 87.4341C90.4423 87.4341 90.4673 87.4341 90.5236 87.4616C90.5236 88.3778 90.0473 89.8566 89.2011 90.4241C89.0673 90.3116 88.9336 90.1941 88.8261 90.0841L90.4161 87.4341V87.4341ZM96.2911 94.1016C95.2061 94.9541 94.3611 95.3253 93.4623 95.8053C94.0648 96.8303 94.6773 97.8828 95.3123 98.9441C95.2061 99.0841 95.1023 99.2216 95.0211 99.3991C92.9048 99.3416 91.9748 99.7641 90.3911 99.9966C90.3911 100.76 88.8823 101.732 88.2186 101.933C88.2186 98.1128 87.1598 94.7503 86.6036 91.3078C88.6423 89.1128 91.9486 93.3316 93.5136 94.9266C94.4936 94.5003 95.1286 94.3003 96.2911 94.1016M97.5386 109.364H97.2973C94.0398 108.71 93.6461 107.284 91.8473 104.69L89.0161 104.607C88.9848 104.555 88.9648 104.519 88.9336 104.494C93.3286 102.475 90.6311 105.01 94.1211 104.783C93.6461 104.149 93.1711 103.555 92.7211 102.955C91.3461 103.07 89.9661 103.185 88.6173 103.325C88.4848 103.185 88.3523 103.07 88.2186 102.955C90.2323 102.332 90.9473 101.984 93.4311 101.984L94.3061 103.099C94.5961 103.07 94.9136 103.07 95.2298 103.07C93.1448 101.075 93.0123 101.108 90.5998 100.792V100.508C91.3461 99.9066 93.5398 100.193 94.7548 100.193C96.4748 103.668 98.0948 105.035 97.5386 109.364M112.834 122.808C112.752 122.779 112.706 122.779 112.651 122.779C110.402 122.008 109.314 121.213 107.672 119.877C112.834 116.717 112.307 115.745 113.55 121.154C112.789 121.697 112.834 121.847 112.834 122.808M116.83 124.77H116.621C115.19 124.288 114.341 123.748 113.416 123.004C113.416 121.1 119.427 121.188 116.83 124.77ZM105.904 119.048C103.277 117.512 101.929 116.345 100.001 114.314C102.245 113.294 104.391 113.578 106.88 113.665C107.222 114.233 108.996 117.079 108.705 118.024C107.912 118.254 106.431 119.048 105.904 119.048M98.0648 112.665C97.7473 112.379 97.1448 112.223 97.1661 111.817C97.2573 110 101.396 111.379 103.432 111.643C101.265 112.037 98.3048 112.665 98.0648 112.665M102.036 107.225H102.111C102.275 107.969 101.876 108.309 101.376 109.024L101.136 108.595C101.422 108.138 101.719 107.685 102.036 107.225M100.102 109.279C100.047 109.279 100.022 109.279 100.001 109.305C99.2861 108.255 100.211 107.485 100.686 106.77C100.845 106.863 101.029 106.944 101.217 107.054C101.217 107.225 100.287 108.855 100.102 109.279M98.6473 109.962H98.4886C98.3861 109.878 98.2736 109.819 98.1723 109.763C98.1723 108.764 98.7286 107.857 99.0198 106.998C99.1223 107.09 99.2298 107.174 99.3623 107.259C99.3111 108.255 99.0973 109.05 98.6473 109.962M95.9211 97.1416C98.7536 95.7491 98.9636 97.8291 101.242 100.592C101.242 101.507 99.3623 106.203 99.1523 106.088C98.1723 105.375 98.6473 104.89 98.9123 104.208C97.8811 102.212 95.9211 99.2528 95.9211 97.1416M104.606 93.5291C105.157 93.8991 105.741 94.2703 106.324 94.6653C106.324 94.6653 104.575 106.658 102.834 105.718C101.692 104.494 107.274 95.5191 105.132 94.1578C103.542 95.5791 102.46 102.757 101.105 105.552C100.686 105.552 100.794 105.434 100.712 105.349C101.351 102.332 102.169 95.2666 104.606 93.5291M107.009 94.8953C107.667 97.7116 107.442 101.397 107.565 104.292C106.88 104.578 106.221 104.864 105.552 105.179L105.215 104.89C105.449 102.16 105.316 97.0066 107.009 94.8953M105.26 92.1891C105.26 89.9078 106.349 88.6303 108.546 88.7428C109.502 89.9691 109.681 90.9378 109.87 92.9003C109.527 93.0766 109.185 93.2453 108.869 93.4141C106.956 93.2141 106.482 93.1616 105.26 92.1891M108.546 94.5253C110.504 95.5791 110.156 99.8228 108.97 101.842H108.869C108.204 100.024 108.336 96.6616 108.23 94.8703L108.546 94.5253V94.5253ZM110.902 92.3353C112.936 92.3353 111.27 95.2991 110.846 96.2916H110.53C110.427 96.2628 110.32 96.2353 110.212 96.2353C110.029 94.2116 110.136 93.9303 110.902 92.3353M115.584 96.0328C115.109 100.648 111.194 109.878 106.032 110.647C104.975 110.504 103.941 110.364 102.909 110.248C102.909 105.662 107.672 106.574 110.244 102.789C111.219 99.8816 111.96 97.0066 113.234 94.4128C114.341 94.4128 114.634 95.0128 115.584 96.0328M117.92 112.415C115.615 114.119 112.89 116.484 110.136 116.943C109.661 115.574 109.104 114.035 108.781 112.895C110.979 111.472 117.92 105.179 117.92 112.415ZM122.125 111.385C122.386 112.525 122.841 113.665 122.6 115.178C121.092 116.199 116.222 120.469 115.084 120.699C114.341 119.335 113.841 118.137 113.31 116.943C114.531 116.174 121.542 110.963 122.125 111.385M118.579 123.77C115.615 120.023 118.737 119.445 121.916 117.365C122.151 117.365 122.386 117.882 122.626 118.308C123.102 122.292 121.542 122.269 118.579 123.77ZM122.361 123.605L122.285 126.573C122.176 126.537 122.095 126.537 122.017 126.537C120.459 126.452 119.504 126.202 118.236 125.769C118.026 125.099 121.731 123.47 122.361 123.605ZM98.2223 137.989C99.8936 136.853 101.636 137.304 103.757 136.853C105.664 136.11 107.464 134.685 109.446 135.97C106.405 138.217 104.417 140.718 100.661 140.718C99.0973 140.128 98.8361 139.242 98.2223 137.989M93.5398 135.909C93.5698 134.772 93.6148 133.627 93.6723 132.493C96.1298 130.983 98.8873 131.269 101.851 131.128C102.036 130.755 102.245 130.382 102.46 130.042C102.669 130.042 106.032 133.458 106.67 134.085C102.169 135.623 99.4136 136.563 95.0461 136.737C94.5448 136.45 94.0398 136.164 93.5398 135.909M55.1323 136.853C55.4236 136.022 55.7448 135.198 56.0623 134.402C61.6736 134.884 66.9373 136.822 72.7386 137.45C72.7586 135.598 72.9223 133.712 73.1873 132.038C76.9448 132.148 90.8611 130.814 91.9748 133.205C92.2148 134.228 92.4811 135.369 92.5061 136.619C90.2323 138.929 88.6936 141.322 85.6486 141.86C84.8761 141.358 81.1961 138.699 82.3161 137.733L85.6486 138.155C86.0211 139.353 85.5461 140.499 86.1336 141.579C86.9211 140.864 86.9511 139.3 87.1098 138.3C88.2186 138.133 89.1436 138.048 90.5486 138.155C90.4923 137.759 90.4423 137.36 90.4161 136.963C84.5136 136.249 78.3248 134.454 73.1323 137.45C64.6373 144.792 66.9373 136.653 59.4248 135.598C57.9948 136.074 56.4298 136.853 55.1323 136.853ZM42.8811 133.458C43.2248 131.923 43.5673 130.924 44.1798 129.699C47.5373 130.862 51.3248 131.948 54.6061 134.115C54.6573 134.972 54.7386 136.853 54.0748 137.558C50.9261 136.28 45.6573 133.458 42.8811 133.458ZM36.6623 130.983C38.0673 130.983 40.1836 132.89 41.5586 133.829C41.0011 134.573 39.2023 135.48 38.4611 135.74C36.5798 134.483 36.7948 133.063 36.6623 130.983M35.4661 124.658C36.1048 124.658 41.9523 127.932 42.8561 128.902C42.6161 129.529 41.2661 132.122 41.1848 132.092C38.7523 130.213 33.7236 128.162 35.4661 124.658ZM34.1423 118.65C34.2498 118.535 34.3573 118.448 34.4586 118.364C36.2636 120.045 37.5873 120.987 39.9436 122.208C39.6773 123.179 39.4111 124.147 39.1511 125.143C39.0948 125.143 39.0686 125.143 39.0436 125.169C35.4661 123.265 34.2811 122.639 34.1423 118.65ZM33.2486 112.379C35.2823 114.209 41.6098 117.195 42.6161 119.36C41.8236 120.358 41.7723 120.5 40.7661 120.644C38.5436 119.592 30.9736 115.2 33.2486 112.379ZM33.6936 80.7978C33.6673 83.1903 33.6673 83.1903 33.6161 83.1616C32.5836 82.5353 31.4748 81.6491 31.4748 80.4866C32.5586 79.9166 32.1598 79.9703 33.6936 80.7978M36.9223 79.2016C35.0011 78.3191 37.6173 76.4778 38.1948 76.7841C37.9598 77.5503 37.5611 78.5216 36.9223 79.2016ZM40.9761 78.8641C40.6336 81.7941 39.3611 83.9303 37.9811 86.6953L38.5886 86.7803C38.8286 87.8041 41.7423 98.4841 41.0261 100.024C39.4423 99.3416 38.5686 98.3991 37.1936 98.2841C37.1936 101.842 43.0148 102.358 44.2061 104.925C43.3873 106.034 42.2986 108.082 41.0523 108.512C32.2411 103.783 33.0848 102.93 34.4136 93.7616C35.2823 93.0428 35.7061 93.0766 36.9536 92.8741C37.2961 93.5566 37.6436 94.2391 38.0111 94.9541C38.0361 94.9541 38.0673 94.9541 38.1186 94.9803C38.9111 94.1291 37.6123 92.5041 37.3473 91.8503C33.4573 91.4203 31.4748 89.4278 28.5361 87.2041C28.5111 87.0353 28.4798 86.8928 28.4798 86.7491L26.0986 86.3253C26.0986 86.0953 26.0986 85.8928 26.1286 85.6991C27.5548 86.0953 29.0123 86.4916 30.4673 86.8928C30.4673 87.0353 30.4936 87.1791 30.5186 87.3478C31.0248 87.4616 33.1148 88.3178 33.8311 88.1478C30.7036 84.0991 22.9498 83.3328 25.6486 77.4916C26.6548 77.0366 26.5223 78.6903 27.0286 79.5153C27.4723 79.0303 27.9486 78.5516 28.4286 78.0916C28.6948 78.2353 28.9598 78.4066 29.2211 78.5728C29.2461 79.0041 29.2773 79.4278 29.3286 79.8553C29.1698 79.9453 29.0123 80.0291 28.8536 80.1466V80.7141C30.7598 80.7141 30.7336 79.0041 31.5011 81.9966C32.2923 83.4778 33.8061 84.3266 35.3898 85.3541C36.1048 85.0991 35.0211 80.4278 34.8886 79.9453C34.0911 79.5466 33.2986 79.1728 32.5323 78.8028C32.5323 78.4316 33.0386 78.0916 33.2486 77.8366C34.9136 78.3478 35.9723 80.2816 37.4798 81.8228C38.9873 81.3991 39.6523 80.0003 40.6336 78.7441C40.7348 78.7766 40.8423 78.8028 40.9761 78.8641M41.2411 92.2153H41.0523C40.8936 92.1316 40.7348 92.0491 40.6023 91.9653C40.6536 91.2516 40.9236 90.8566 41.2661 90.3403H41.6911C41.6911 90.9628 41.7161 91.5053 41.2411 92.2153M42.2173 86.9178C42.2173 87.3478 41.2923 89.7103 40.7923 89.1716C39.4936 87.7766 39.9936 84.0153 41.2161 82.7041C41.8748 83.5603 44.1486 86.0116 42.2173 86.9178M40.7923 61.3191C41.3736 60.6903 42.7998 58.7791 43.4898 58.5516C43.6223 58.6716 43.7561 58.7791 43.8886 58.9216C43.5673 59.2391 41.3736 61.6028 41.1086 61.6028C41.0011 61.4878 40.8936 61.4003 40.7923 61.3191ZM42.2486 57.5291C41.5586 58.9528 40.9761 59.9491 39.5186 60.6316C39.5186 59.3791 40.8173 57.1866 42.2486 57.5291ZM45.3398 55.3341C43.9911 54.9941 43.1986 49.9503 42.9886 48.8666C43.0911 48.7316 43.1986 48.5878 43.3061 48.4703C44.5736 49.5003 45.6873 53.7678 45.3398 55.3341ZM44.6036 67.2141C43.9911 67.0728 43.4086 66.9303 42.8261 66.8103C42.1923 65.4741 41.4248 63.7666 41.4248 62.5653C41.4761 62.5178 44.2061 59.9803 44.2061 61.0866C43.0398 62.2291 42.5086 64.0528 43.7248 65.8166C43.9648 65.6453 44.2061 65.4741 44.4711 65.3303C44.3898 63.5366 44.7323 62.4253 45.1048 60.9178C45.1048 58.8653 43.3061 57.5291 42.6673 55.9316C42.7998 55.8253 42.9336 55.7353 43.0661 55.6441C44.2011 56.0503 46.3361 59.1803 46.5873 59.1803C46.6936 59.0366 46.7961 58.8966 46.9298 58.7791C46.0561 55.6791 45.5298 53.0266 45.1811 50.1803L45.4986 49.7528H45.6311C48.0123 54.3653 47.9923 62.7953 44.6036 67.2141M52.9348 88.1166L52.6173 90.2553C51.4573 89.6578 50.3173 89.0628 49.1773 88.4866C49.1523 88.5153 49.6023 89.6166 49.6273 89.7703C50.7161 91.6228 55.5861 93.7028 57.8611 92.8153C58.4186 93.2141 58.8686 93.9891 59.4511 94.8116C59.6086 94.6653 59.7923 94.5566 59.9773 94.4378C61.0611 95.9228 60.0848 105.892 62.0973 110.218C62.5473 110.218 63.1248 109.962 63.6573 109.79C62.5173 104.519 61.8836 104.925 65.6448 102.584C66.7536 103.584 65.3536 107.997 65.0061 109.79C65.1648 109.848 65.2461 109.848 65.3223 110.189C65.4561 110.189 65.6186 110.189 65.7723 110.218C65.9561 109.878 66.1711 109.533 66.3848 109.219C66.5698 109.254 66.5698 109.254 67.5761 109.819L67.6536 111.188C68.8748 110.387 69.2173 102.248 69.0586 101.075C68.5523 100.85 68.0523 100.625 67.5761 100.42C67.6023 100.083 67.6536 99.7641 67.7086 99.4503C68.2098 99.4503 68.5273 99.9966 68.9761 100.679C69.1348 100.625 69.3198 100.563 69.5086 100.533C70.5923 97.4053 70.0086 93.1278 70.5411 90.0278C71.5173 88.9703 71.9161 88.2853 72.4411 87.0616C72.4723 87.0616 72.4973 87.0916 72.5498 87.1228C71.8336 95.2078 71.5986 103.584 71.2248 111.839H72.5236L72.9223 109.193C74.7211 109.193 76.5761 109.219 78.5598 109.533L78.6411 112.75C78.5036 112.728 78.3761 112.728 78.2423 112.728C69.5336 112.295 59.1848 111.757 51.8511 106.684C51.8511 102.273 54.6823 98.2591 53.7873 93.3316C53.4911 93.3066 53.2048 93.3066 52.9348 93.3066C52.5148 95.7491 51.6723 104.269 50.7161 106.002C50.3486 105.917 50.0011 105.833 49.6586 105.749C49.3361 102.072 49.8423 98.3403 49.2286 95.0366C46.9036 90.1941 44.5473 85.2416 42.5398 80.5703C42.1411 77.5241 42.1661 74.5866 42.2486 71.7366C43.0148 71.3403 43.0661 71.0291 44.0986 71.2566C44.4148 71.8803 44.7823 72.4778 45.1311 73.4516C46.2448 81.2528 46.6373 82.9341 52.9348 88.1166M55.0298 67.0966C49.0198 71.3716 49.0198 71.1953 50.7161 78.2916C52.8323 80.6828 53.3073 80.6016 52.5411 84.1841C51.7186 84.4416 50.9773 84.8128 50.3173 84.9578C49.8686 84.6153 49.4436 84.2741 49.0198 83.9303C48.8098 81.7366 47.9111 80.2003 47.1186 78.4316C47.0111 78.4066 46.9298 78.3778 46.8473 78.3778C46.7511 76.3266 46.5873 74.5578 46.3211 72.8228C48.2786 70.9428 53.6548 67.6716 53.1748 64.8503C53.9723 63.9941 55.4486 65.7016 55.0298 67.0966ZM61.3261 80.7703C60.4261 81.6803 59.0261 82.9628 57.6523 82.5916C56.5373 81.8228 56.5373 81.8228 56.4298 81.8228C57.2223 83.2203 58.7348 85.2928 55.9798 85.7503C53.8386 85.1266 54.6823 82.0503 53.9161 80.6528C46.7961 70.0278 54.5798 65.0191 61.6998 73.1653C61.1423 74.3916 58.5761 74.7628 58.2598 75.3016C58.8686 75.7003 59.4761 76.1216 60.0848 76.5528C60.0848 76.8016 58.5048 78.8478 58.2598 79.1503C59.8236 79.8966 58.9648 77.7928 60.7736 78.3778C59.7223 80.4453 61.3261 79.5641 61.3261 80.7703M62.0973 84.9278C61.8323 84.5566 61.5661 84.1841 61.3011 83.8491C62.0261 82.0166 62.7886 85.1678 62.0973 84.9278ZM62.4098 81.4241C62.7823 81.5078 63.0223 81.5078 63.3911 82.1928C63.2886 82.3341 63.1811 82.5078 63.0786 82.6766H62.7323C62.5473 82.4791 62.3636 82.3078 62.2048 82.1403C62.2561 81.8791 62.3323 81.6491 62.4098 81.4241M62.9711 79.4278C63.1811 79.5716 64.3723 80.2278 63.8711 81.0278C63.1248 80.4553 62.6248 80.2003 62.9711 79.4278ZM63.1561 77.6653C63.7073 77.8641 64.0248 78.0916 64.5311 78.9228C64.4486 79.0303 64.3211 79.1728 64.2136 79.1728C63.6823 78.6591 62.9711 78.1503 63.1561 77.6653M64.0711 75.5141C64.5086 75.6816 64.7036 75.6816 64.9236 76.6291C64.5761 77.1416 64.5761 77.1416 64.5086 77.1141C64.2286 76.8728 63.9486 76.6691 63.6623 76.4591C63.6623 75.6816 63.6923 75.9228 64.0711 75.5141ZM64.2961 73.8528L65.6936 74.8566C65.6936 74.8941 65.6636 75.3941 65.5686 75.2928C65.0098 75.0616 64.4823 74.8241 63.9536 74.5878C63.9236 74.4553 63.9236 74.3203 63.9236 74.1878C64.0498 74.0591 64.1698 73.9516 64.2961 73.8528ZM65.5161 73.6803L64.3211 72.1891C65.3811 70.2678 65.7848 73.9678 65.5161 73.6803ZM64.8936 69.9953C65.1748 69.9453 65.4873 69.9028 65.8073 69.9028C65.9598 70.0703 67.3848 71.3053 66.2786 71.8991C65.0523 71.1378 65.2511 70.8366 64.8936 69.9953M65.5986 68.9666C65.7073 68.7003 65.8148 68.4366 65.9573 68.2103C66.2686 68.2103 67.4911 69.1191 66.8286 69.8278C66.4098 69.5316 65.9848 69.2266 65.5986 68.9666ZM67.2148 68.4141C66.7486 68.0253 66.2836 67.6816 65.8098 67.3266C67.6461 64.9303 68.2648 68.0703 67.2148 68.4141ZM66.9123 64.5366C67.1273 64.5641 67.3311 64.5953 67.5761 64.6466C67.7086 64.9341 67.5761 66.1866 67.2548 65.8441C66.9373 65.3891 66.7023 65.0778 66.6461 64.8753C66.7336 64.7666 66.8098 64.6466 66.9123 64.5366M67.5773 62.3203C67.9336 62.7666 68.7386 63.4953 68.7386 64.4341C68.6136 64.4341 68.5136 64.4716 68.4136 64.5028C67.7398 64.3316 67.3161 63.7728 66.9661 63.4241C67.1223 63.0428 67.2848 62.6603 67.4473 62.3203H67.5773V62.3203ZM67.9986 60.8916C68.3286 61.0491 68.6523 61.2491 68.9823 61.4466C68.9823 61.5978 68.9823 61.7591 69.0173 61.9103C68.9461 61.8716 68.8698 61.8716 68.7998 61.8716C67.8861 61.3616 67.8861 61.3616 67.7461 61.1691C67.8161 61.0491 67.8861 60.9678 67.9986 60.8916M67.9448 52.6616C68.1848 52.9166 68.4198 53.1703 68.6598 53.4591C68.6036 53.7953 68.5773 54.1416 68.5523 54.5116C68.4198 54.5116 68.2923 54.5116 68.1848 54.5391C67.4136 54.5391 67.6536 53.2853 67.6273 52.9428C67.7298 52.8303 67.8373 52.7428 67.9448 52.6616M69.3748 52.6303C68.7111 52.0303 68.6298 51.8891 68.4761 51.2941C68.5273 51.2078 68.6036 51.1203 68.6861 51.0391C68.9511 51.0641 69.2173 51.1203 69.5086 51.1741C69.5086 51.4603 69.5336 52.7128 69.3748 52.6303ZM69.7486 54.5116C70.1173 53.7091 70.1673 53.8541 70.9336 54.5653C70.9336 54.7103 70.9336 54.7103 70.6986 55.1066H70.5711C70.2748 54.9103 70.0086 54.7103 69.7486 54.5116ZM70.4848 50.7166C70.2448 50.3516 70.0348 49.9803 69.8248 49.6103C70.4586 47.8703 71.0673 50.4078 70.4848 50.7166ZM71.4398 53.2853C71.1748 53.4591 71.1748 53.4591 71.1486 53.3978C70.5148 52.6028 70.6423 52.7128 70.9336 51.9766C71.0923 51.9766 71.5173 52.7741 71.4398 53.2853M71.2811 47.8703C71.3636 48.1003 71.5173 48.4116 71.5986 48.9028C71.5173 48.9278 71.4611 48.9541 71.4098 49.0103C70.9336 48.5041 71.1486 48.1866 71.2811 47.8703M67.6273 44.4841C68.6298 43.1453 71.1748 42.2078 72.3911 44.1678C68.1536 44.5116 68.1536 44.5116 67.6273 44.4841ZM58.3923 45.1128C59.2098 44.5991 64.1073 43.5753 64.7148 44.5741C62.5986 45.0241 60.6161 45.4253 58.6586 45.5953C58.5511 45.4253 58.4698 45.2541 58.3923 45.1128ZM57.7023 42.8303C58.3623 41.8953 62.9411 41.2953 64.3461 41.1541L65.1123 41.9803C62.7323 43.0891 60.2686 43.0328 57.9686 43.1741C57.8611 43.0578 57.7848 42.9428 57.7023 42.8303M65.3223 39.3253C65.2211 39.5291 65.1123 39.7316 65.0061 39.9616L63.1248 40.0428C63.0786 40.1278 63.0486 40.2116 63.0223 40.2966C61.7811 39.8691 60.8761 40.9553 59.7161 40.9553C57.9948 40.8628 57.9948 40.8628 57.7273 40.7791C58.2798 39.3603 63.7898 38.3028 65.3223 39.3253M66.3036 40.2703C66.8861 40.6666 67.4698 41.0653 68.0773 41.4941V42.1228C67.4698 42.5778 66.8861 43.0328 66.3036 43.5178L65.9048 43.2603C65.8798 42.3203 65.5886 40.7791 66.3036 40.2703ZM72.2573 39.3603C71.6748 39.7828 69.6923 40.9253 69.5598 40.8628C68.6036 40.3266 67.6536 39.7828 66.7336 39.2741C67.2036 38.7603 71.1998 39.0978 72.2573 39.0978V39.3603V39.3603ZM74.0873 40.0428C74.0873 40.4678 74.0061 42.7466 73.6073 42.3203C72.9986 42.0616 72.3911 41.8366 71.7823 41.6078C71.7573 41.4053 71.7311 41.2078 71.7311 41.0403C72.3648 40.5828 72.9986 40.1278 73.6323 39.6953C73.7648 39.8153 73.9236 39.9253 74.0873 40.0428M77.2873 36.1978C76.7348 36.4253 76.1773 36.6553 75.6461 36.8828C72.7586 36.3666 72.4411 33.1466 74.8798 32.0678C74.8798 31.1016 74.8798 30.1291 74.9048 29.1603C73.5811 29.1603 72.2573 29.1603 70.9336 29.1903C69.4511 32.8928 62.9161 26.9091 69.2423 25.5766C70.4336 26.0828 70.5148 25.8278 71.0673 27.2791C72.3398 27.2791 73.6073 27.2791 74.9048 27.3078C74.8798 26.1753 74.8548 25.0328 74.8548 23.8928C69.2423 21.6453 80.3886 15.6878 77.5261 23.6053L76.8111 23.9491C76.7798 25.0616 76.7798 26.1753 76.7798 27.3078C77.8448 27.2791 78.9323 27.2791 80.0161 27.2791C80.6498 25.2278 82.2236 25.4953 83.8548 26.1978C85.3373 30.2153 81.5236 31.7791 80.1486 29.1903C79.0098 29.1603 77.8948 29.1603 76.7798 29.1603C76.7798 30.1541 76.7798 31.1866 76.8111 32.2078C78.4523 32.8928 77.7623 34.8303 77.2873 36.1978M76.5761 40.1278C76.6786 40.2966 76.7798 40.4978 76.8886 40.6941C76.6786 40.9253 76.3873 41.2366 76.1773 41.2366C74.0311 41.0653 74.8548 40.0103 76.5761 40.1278ZM76.7598 43.3166L75.1711 43.7428C75.0636 43.5753 74.9873 43.4291 74.9048 43.2878C75.1148 43.1741 77.1036 42.2078 76.7598 43.3166ZM76.1211 38.8753C75.7798 38.7303 75.4623 38.6166 75.1398 38.5028C74.8436 36.5578 77.5736 38.0991 76.1211 38.8753ZM78.5036 45.0541C78.5036 45.6241 78.4773 45.7678 78.0786 46.3903C76.3111 46.3903 74.5623 46.3903 72.8148 46.4241C72.6311 45.6828 72.7073 45.6241 72.9223 45.1391C74.2148 45.0241 77.2873 44.3978 78.5036 45.0541M78.5036 48.0741C78.2673 48.0153 78.0536 47.9878 77.8448 47.9591C77.9261 47.7603 78.0023 47.5891 78.1098 47.4203C78.3761 47.5328 78.7173 48.1866 78.5036 48.0741ZM79.4073 49.9078C78.5148 49.5741 77.9548 49.1578 78.0948 48.6428C78.4711 48.5328 78.7486 48.6853 79.3573 48.9803C79.0136 49.4566 79.5061 49.9078 79.4073 49.9078ZM80.3648 50.9141C80.2811 50.9141 80.2398 50.9603 80.1886 51.0116C79.7098 50.8141 79.2823 50.6378 78.8436 50.4941C78.9298 50.3553 79.0123 50.2128 79.1048 50.1203C79.4911 50.2591 79.9273 50.4016 80.3648 50.5916V50.9141V50.9141ZM81.3336 51.9591C81.2998 52.0728 81.2661 52.1903 81.2661 52.3366C80.8536 52.3728 80.4798 52.4103 80.0936 52.4866L78.8511 51.5966C78.8511 50.7853 81.1473 51.8466 81.3336 51.9591M82.3936 53.5316L82.2686 53.7903C81.5398 53.7903 80.8111 53.7903 80.1198 53.8291L79.8311 53.5316C80.7711 53.0503 80.9286 52.9641 82.3936 53.5316M82.9598 54.7166C82.6611 54.9953 82.2548 55.3128 81.9611 55.3128C81.6973 55.1516 81.4473 54.9953 81.2261 54.8741C81.3761 54.5953 81.5186 54.3203 81.6973 54.0778C81.9611 54.0778 82.4036 54.3528 82.9598 54.7166ZM84.0386 56.1591C83.6398 56.4453 83.3998 56.7041 82.9798 56.7041C82.5561 56.7041 82.4236 56.1591 82.3973 56.0753C83.0061 55.7628 83.1398 55.4778 83.9873 55.7053C83.9873 55.8478 84.0123 55.9903 84.0386 56.1591M85.3611 57.5878C83.9311 58.3853 83.9311 58.3853 83.7973 58.3853C83.1898 57.8691 83.2973 57.8691 83.6398 57.4116C84.1961 57.4116 84.7548 57.4453 85.3111 57.4728C85.3111 57.4991 85.3373 57.5291 85.3611 57.5878M86.1423 59.1441C85.5073 59.3903 84.4786 59.8953 84.1561 59.8953C84.0236 59.6403 83.9236 59.3903 83.8348 59.1891C84.7211 58.8891 85.1336 58.5891 86.1423 59.1441M87.0936 60.5128C87.0586 60.7041 87.0348 60.9341 87.0348 61.1603C86.3973 61.1916 85.7648 61.2616 85.1673 61.3203C85.0161 61.1253 84.8661 60.9653 84.7136 60.8028C85.3461 60.1266 86.0373 60.1853 87.0936 60.5128M88.0273 62.7128H85.9011L86.0048 62.1341C86.6536 62.0916 87.3373 62.0541 88.0273 62.0541V62.7128ZM88.7661 63.3778C88.4286 63.6191 88.4286 63.6191 87.2823 64.0316C87.0186 63.8653 86.7536 63.7041 86.4811 63.5791C87.0911 63.3778 87.7386 63.3328 88.7661 63.3778M88.9336 65.8703C88.5098 65.6453 88.0861 65.4178 87.6923 65.1853C87.6923 61.7841 90.7436 66.8153 88.9336 65.8703ZM90.5898 66.2353C90.5898 66.3978 90.3573 67.6116 90.0973 67.4928C89.4598 67.2491 89.1186 66.9228 88.8936 66.7203C89.0111 66.5216 90.0248 66.0291 90.5898 66.2353ZM91.9111 68.9541C91.5386 68.9178 91.1686 68.9178 90.8223 68.9178C90.5623 68.7028 90.3211 68.5203 90.0861 68.3353C91.0386 67.7616 90.7973 67.5778 91.8398 68.4091C91.8398 68.5928 91.8723 68.7778 91.9111 68.9541M92.7711 70.0691C92.3173 70.1628 91.8723 70.2916 91.4648 70.4216C91.0186 70.2416 90.6123 70.1078 90.2123 69.9828C90.2911 69.7641 90.4086 69.5403 90.5261 69.3728C91.4648 69.2866 91.6286 69.2478 92.7711 70.0691M91.6286 72.1203L90.8973 71.3528C93.1211 70.0628 93.9998 71.0928 91.6286 72.1203ZM93.9886 71.7841C93.9886 72.8303 92.5273 72.5741 93.0536 72.5003C92.8861 72.4591 92.2598 72.6716 92.1161 72.6216L93.1373 71.6653C93.4898 71.6653 93.5961 71.7453 93.9886 71.7841M95.0636 73.6716C94.5473 73.9328 94.5473 73.9328 94.2723 73.9328C92.9536 73.5028 92.9536 73.5028 92.8773 73.3778C93.2298 73.0053 95.4061 72.4303 95.0636 73.6716ZM95.9486 74.6728C94.2161 75.1791 94.2161 75.1791 93.8448 75.1791C93.7311 75.0616 93.6248 74.9441 93.5111 74.8653C94.1386 74.6728 95.0286 74.0716 95.9123 74.2278C95.9123 74.3553 95.9123 74.5053 95.9486 74.6728ZM97.1298 76.7828C95.9436 76.6091 95.3436 76.3516 94.7898 75.9216C97.2998 75.2841 97.1686 76.8203 97.1298 76.7828M96.1761 77.8128C96.0811 77.7166 95.9898 77.6191 95.9311 77.5216C96.8473 77.1916 96.9711 77.0241 98.1611 77.5516C97.6711 78.0778 96.6636 77.8128 96.1761 77.8128M97.3486 81.7103C98.8873 81.7103 100.287 80.7141 101.985 81.6228C101.724 83.2353 102.556 84.7716 102.086 86.6066C101.396 86.6066 100.926 86.0678 100.605 85.8091V85.6078C101.136 85.1553 101.161 85.1266 101.985 85.0728C101.876 84.8428 101.775 84.6153 101.667 84.4141C100.63 84.2141 99.4698 84.0153 98.7536 84.4416C99.9711 85.6403 101.504 88.4616 102.72 90.3116C103.12 90.2816 103.517 90.2816 103.915 90.2816L103.12 89.5116L104.232 88.3178C104.34 88.3441 104.524 88.4253 104.815 88.7428C104.019 90.6816 104.709 91.0803 102.859 92.3041C102.751 93.3316 102.086 99.9066 101.136 98.8816C99.2561 96.4903 97.9048 93.6416 95.5773 96.5491L95.2873 96.2353C96.0273 95.6366 96.7661 95.0366 97.5386 94.4691C97.2473 94.2116 96.9548 93.9891 96.6898 93.7616L97.4048 93.2453C96.4536 89.1466 96.1861 85.8678 93.6973 82.8503C92.9248 82.2778 89.6761 79.9703 89.4911 79.5716C90.0173 79.5716 91.0298 80.0291 91.8223 80.0291C90.2323 73.9366 85.9186 68.0366 84.9373 62.6853C88.1673 65.1366 90.3911 73.5891 94.1461 76.0141C94.1211 76.2103 94.0948 76.4103 94.0948 76.6378C95.6036 77.5503 96.0023 79.7991 97.3486 81.7103M102.434 87.8891C102.275 87.7441 102.111 87.6028 101.985 87.4616C102.111 87.0078 102.169 87.0616 102.695 87.2353C102.695 87.4066 102.72 87.5778 102.751 87.7441C102.51 87.8641 102.617 87.8891 102.434 87.8891ZM99.2561 80.7141C98.8361 80.7978 98.4123 80.9153 98.0136 81.0278C97.9048 80.8828 97.7986 80.7391 97.6973 80.6266C97.9873 80.4278 98.2736 80.2278 98.5961 80.0541C98.8048 80.2541 99.0198 80.4866 99.2561 80.7141ZM104.1 72.1078C111.142 72.9941 111.061 74.2466 110.826 81.7103C110.427 85.1828 108.362 87.0078 105.372 87.5191L103.757 87.2628C103.732 86.7491 103.732 86.2641 103.732 85.7841C104.151 85.5791 104.575 85.3853 105 85.2091C105 83.9303 103.886 84.2603 103.886 83.8491C105 82.6503 106.64 84.8716 106.272 82.4791H103.702C103.702 81.0991 104.417 81.4441 104.257 80.4278C102.935 80.3441 101.636 80.2816 100.339 80.2278C100.339 76.6128 102.194 74.9053 104.1 72.1078ZM117.147 74.7878C116.012 76.4366 114.766 84.3266 111.642 84.3266H111.567C111.567 75.3278 113.285 72.3966 104.447 71.1953C104.207 70.8303 104.049 70.4591 104.049 70.2928C107.596 68.0091 118.527 69.4066 122.442 70.7478C120.592 72.0566 118.84 73.3641 117.147 74.7878M123.582 80.6528C123.531 80.6528 123.474 80.6528 123.424 80.6828C122.841 79.9166 122.494 79.2603 122.234 78.6591C122.259 78.6341 122.285 78.6341 122.31 78.6341C122.524 78.8866 123.842 79.9166 123.582 80.6528M126.73 85.1828V84.4728C126.412 84.2991 126.122 84.1278 125.831 83.9841V83.6453C126.204 83.5316 126.516 83.7041 127.047 84.0153C126.812 86.0953 126.04 86.2641 124.476 86.9491C124.374 86.8928 124.272 86.8391 124.159 86.8053C125.871 82.7916 124.681 86.2866 126.73 85.1828ZM133.374 80.5116C133.797 86.0678 126.699 87.3478 124.476 91.6816C125.487 91.6816 130.809 89.0628 131.1 89.3741C128.53 91.4541 125.14 94.7241 121.967 95.1541C121.569 94.7241 121.17 94.3253 120.776 93.9303C119.927 94.5253 117.92 101.189 117.92 102.439L118.787 102.358C119.346 100.395 119.927 98.4553 120.51 96.5191C121.17 96.6078 121.859 96.6891 122.55 96.8053C123.051 100.447 122.442 105.322 122.207 109.338C121.701 109.763 119.295 111.787 118.84 111.557C118.282 110.563 117.73 109.567 117.2 108.567C118.395 107.485 119.692 106.234 120.827 105.01C119.264 103.325 113.575 110.248 111.986 108.537C114.051 103.753 117.761 92.6191 121.067 88.1753C120.561 85.3853 116.754 82.3078 117.546 80.7703C118.921 81.5078 121.62 84.0991 123.076 84.0153C123.821 82.4516 124.324 81.1403 125.805 80.3441C126.066 80.4866 126.331 80.6266 126.622 80.7978L126.786 82.2241C124.349 83.4778 123.607 85.0728 122.917 88.0291C125.964 89.9978 128.079 82.9341 128.477 82.9341C128.902 83.3053 128.979 83.4453 129.771 83.2491C130.119 81.8791 129.219 81.5928 130.119 80.6266L130.967 80.7978C130.967 81.1941 130.967 81.6228 130.987 82.0503C131.81 81.4803 132.157 81.1691 132.71 80.2278C132.924 80.3153 133.134 80.3991 133.374 80.5116M120.592 85.1553C120.827 85.1553 121.067 85.1553 121.302 85.1828C121.17 83.8741 118.87 82.0191 118.077 82.0191C118.87 82.9878 119.77 83.9303 120.592 85.1553ZM121.119 108.427C120.96 108.168 120.827 107.913 120.695 107.655C119.53 107.823 119.452 107.823 119.002 108.99C119.131 109.193 119.295 109.42 119.452 109.65C119.927 109.65 120.801 108.965 121.119 108.427M103.757 74.1028V74.8728C105.874 74.8466 107.99 74.8153 110.11 74.8153C107.616 73.0503 106.272 73.5641 103.757 74.1028M103.625 76.2416C103.599 76.4978 103.569 76.7553 103.569 77.0091C104.714 76.9266 105 76.1728 105.69 77.4353C105.429 77.6653 105.157 77.8903 104.891 78.1503C105 78.3478 105.107 78.5728 105.215 78.8028C106.114 78.8028 107.009 78.8353 107.939 78.8641V78.2353L107.299 78.1503C106.85 77.4041 107.146 77.1803 107.325 76.6378C107.646 76.6128 107.99 76.5791 108.336 76.5791V75.9553C105.924 75.3866 105.715 75.5291 103.625 76.2416ZM105.475 79.2016C105.291 79.4591 105.157 79.6053 105.157 80.0853C106.165 80.0541 107.171 80.0291 108.204 80.0291C107.274 79.7453 106.374 79.4591 105.475 79.2016M100.87 81.7691C100.661 82.1091 100.451 82.4516 100.262 82.8166L98.4886 82.7328L98.3298 83.0803L98.8873 83.5866C99.8373 83.5316 100.794 83.4991 101.775 83.4778L101.054 81.7691H100.87V81.7691ZM77.2361 34.0328C75.4923 30.5578 72.4411 34.3728 75.6973 35.5403C76.7098 35.2003 76.7798 35.1166 77.2361 34.0328ZM77.2361 22.1841C76.2848 20.4178 75.0373 20.3616 74.1948 22.1841C74.6136 23.0991 74.4861 23.0653 75.6973 23.5228C76.5511 23.2928 76.8373 23.0653 77.2361 22.1841ZM80.6248 28.1941C81.0173 29.0753 80.9411 29.2753 82.1323 29.6991C85.5723 28.7941 82.0236 24.5166 80.6248 28.1941ZM70.2448 28.3628C70.2448 24.8028 64.8986 28.1353 68.8436 29.6991C69.6411 29.6178 69.9273 28.9891 70.2448 28.3628ZM57.7848 73.7916C57.3348 73.5641 57.1198 73.7066 56.9061 73.7066C56.7211 73.1941 56.5373 72.7078 56.3786 72.2278C54.9986 71.7366 53.6811 73.4216 53.6811 74.8153C53.9161 74.5866 54.1561 74.3591 54.3961 74.1616C54.6061 74.3328 54.8198 74.5328 55.0298 74.7316C55.0298 74.9903 54.6311 75.3866 54.4211 75.6741C54.6573 75.7841 54.9223 75.8966 55.1886 76.0403C56.2973 75.4141 56.9061 74.8466 57.7848 73.7916M51.6923 73.6228C52.7811 73.6228 54.8198 71.5991 56.1136 70.9141C55.9548 70.6303 55.7961 70.3753 55.6636 70.1141C53.7873 69.8891 52.3573 72.0816 51.6923 73.6228ZM51.8511 80.5116C49.1523 76.4716 48.8611 76.0991 48.7598 71.6828C45.3711 74.3328 50.0523 80.3666 51.0848 83.9841C51.0848 84.0153 51.0848 84.0441 51.1098 84.0766C51.9073 83.7291 51.8511 81.0841 51.8511 80.5116M54.8461 94.3853C53.5986 96.1791 53.5986 102.043 53.5986 104.269C53.6248 104.269 53.6548 104.269 53.7061 104.292C53.7061 106.06 52.6998 106.658 54.7386 107.655C54.7948 107.655 54.8711 107.655 54.9536 107.685C55.3723 103.472 55.9548 98.9441 55.5861 94.8953C55.3211 94.7241 55.0811 94.5566 54.8461 94.3853ZM56.5111 94.3253C56.5673 98.8816 56.3786 103.783 56.9061 108.537C57.2223 108.512 57.5698 108.485 57.9123 108.485C57.6211 103.753 57.3348 99.0278 57.0636 94.3253H56.5111ZM57.5698 94.1016C57.5698 99.0003 58.4948 104.064 59.1848 109.109C59.4248 109.219 59.6861 109.364 59.9511 109.505C60.0073 109.505 60.0536 109.505 60.1098 109.533C59.7161 104.269 59.3436 98.9153 58.1011 93.9891C57.9123 94.0141 57.7273 94.0403 57.5698 94.1016M37.6948 85.0728C38.7773 83.8741 39.8361 82.8778 39.5186 81.3141C38.4861 81.8528 38.0111 83.8141 37.6686 84.9816C37.6686 85.0141 37.6686 85.0428 37.6948 85.0728M33.4836 81.0841C32.3898 80.7928 33.3398 80.1466 32.1086 81.1403C32.2923 81.3653 32.5073 81.5928 32.7173 81.8228C32.8748 81.8228 33.3248 81.2528 33.4836 81.0841M44.9973 130.983C44.9973 131.777 45.1811 132.122 45.6873 133.004C45.9273 132.833 46.1886 132.692 46.4536 132.547C46.3723 130.727 46.1623 130.528 44.9973 130.983ZM74.9361 132.89C74.6398 133.229 74.3486 133.604 74.0573 133.974C74.3736 134.255 74.6961 134.573 75.0373 134.884C75.1961 134.884 75.1961 134.884 76.3611 134.345C76.4686 133.943 76.2036 133.349 76.2036 133.315L74.9361 132.89V132.89ZM95.3386 133.685C95.3386 134.312 95.8948 134.657 96.6386 134.854C96.9811 134.8 97.3236 134.772 97.6698 134.744C97.7473 134.345 97.7223 133.943 97.7223 133.829C96.7973 133.374 96.0273 133.229 95.3386 133.685ZM120.245 121.922C120.485 120.987 120.275 121.008 119.851 120.469C118.819 120.527 118.655 121.325 118.312 121.325C118.609 121.642 118.896 121.983 119.187 122.322C119.53 122.184 119.876 122.042 120.245 121.922ZM117.147 118.507C117.73 117.258 117.597 117.512 117.015 116.659H115.799C115.584 116.994 115.4 117.365 115.216 117.738C115.451 118.024 115.691 118.338 115.956 118.65C116.355 118.592 116.754 118.535 117.147 118.507ZM112.145 114.95C112.277 114.544 112.415 114.18 112.542 113.81C111.536 112.269 111.669 113.123 110.187 114.035C110.427 114.314 110.662 114.635 110.902 114.95H112.145ZM106.532 89.8853C105.526 91.5053 105.429 91.3191 106.824 92.8591C107.299 92.8003 107.805 92.9003 108.306 92.8741C108.889 91.9341 109.155 91.4203 109.072 90.3116C107.887 89.7103 107.672 89.7703 106.532 89.8853M108.945 90.5391C108.837 91.4203 108.735 91.7916 108.204 92.5603L106.696 92.4553C105.342 90.0378 106.88 89.6291 108.945 90.5391ZM108.546 90.7353L106.956 90.3116L106.405 91.2516C106.88 91.5916 107.381 91.9341 107.887 92.3041H108.046C108.495 91.5916 108.546 91.4203 108.546 90.7353M107.065 90.5666C107.515 90.6516 107.97 90.7716 108.414 90.8791C108.414 91.2516 108.286 91.5641 107.99 92.0216H107.861L106.67 91.1678L107.065 90.5666ZM80.4148 117.14C80.2511 117.512 80.0936 117.909 79.9598 118.308C80.3586 118.592 80.7823 118.905 81.2061 119.22C81.5486 119.22 82.2398 118.822 82.7136 118.65C82.7136 118.193 81.9473 117.28 81.9223 117.222L80.4148 117.14ZM85.5198 128.245C85.1211 128.363 84.7236 128.507 84.3548 128.649C84.2723 128.987 84.2223 129.329 84.1661 129.699C84.4373 129.958 84.6973 130.242 84.9898 130.528C86.7936 130.3 86.1036 129.13 85.5198 128.245M76.2598 123.349C75.5698 123.319 74.9048 123.293 74.2461 123.293C74.1636 123.667 74.1636 123.917 74.1636 124.493L75.1148 124.745C76.1211 124.745 76.4686 124.229 76.2598 123.349ZM61.3823 115.458C61.3823 116.427 61.4636 116.54 62.2823 117.343C62.6248 117.343 63.3136 116.624 63.6573 116.345C63.6573 114.094 62.1486 115.2 61.3823 115.458M56.5111 119.928H54.9986C55.0561 121.154 55.0561 121.154 55.1323 121.442C55.3973 121.55 55.3973 121.55 56.1136 121.642C57.3348 121.642 56.7211 120.469 56.5111 119.928M62.7061 126.799L62.5473 127.395C62.6798 127.594 62.8386 127.795 62.9973 128.015C63.4473 128.015 63.8911 128.049 64.3461 128.077C64.2948 127.195 64.2648 127.134 63.9486 126.623L62.7061 126.799ZM55.1886 131.182C55.5311 131.148 55.5311 131.148 56.9061 130.727L55.5861 129.214C55.1623 129.214 54.9986 129.475 54.6823 129.613V130.814C54.8461 130.924 54.9986 131.044 55.1886 131.182M43.2248 124.493C42.5086 124.175 42.4836 124.349 41.9523 124.518C41.8998 125.314 42.1923 125.657 42.6973 126.537C43.9136 126.114 43.4898 125.685 43.2248 124.493M44.4411 120.644C44.4411 121.298 44.6811 121.587 45.1311 122.322C45.3711 122.184 45.6311 122.042 45.8973 121.922C45.8973 120.5 45.5186 120.178 44.4411 120.644ZM39.9436 112.75C40.0248 113.724 40.1323 113.867 40.8936 114.863C41.1336 114.72 41.3998 114.579 41.6598 114.459C41.6598 112.609 41.3998 112.188 39.9436 112.75ZM46.0048 109.903C46.9798 108.654 46.9548 108.855 46.3211 107.823C45.9736 107.798 45.6573 107.798 45.3398 107.798C44.8136 109.024 44.7323 108.71 45.4736 109.903H46.0048ZM56.5298 88.4016C56.9886 88.6116 57.1923 89.2228 56.8286 90.3116C56.6198 90.3991 56.4298 90.4828 56.2461 90.5903C54.9986 90.4578 54.7636 89.7391 54.9223 88.7428C55.3036 88.4878 55.6861 88.3441 56.0211 88.3203C55.6898 88.3041 55.3036 88.3466 54.8461 88.4866C54.4773 89.7103 54.8198 90.5903 56.1386 90.7941C57.5898 90.4091 57.7573 88.8028 56.5298 88.4016M56.0211 88.3203C56.2086 88.3291 56.3823 88.3528 56.5298 88.4016C56.3823 88.3341 56.2111 88.3066 56.0211 88.3203ZM114.341 134.14C117.122 133.627 120.245 131.777 122.55 129.784C117.832 128.245 113.759 126.255 109.471 124.262C106.747 122.068 101.351 118.223 98.0648 118.223C99.9711 124.372 108.869 132.577 114.341 134.14ZM100.87 120.839C100.262 120.098 99.3373 119.36 99.1523 118.962C101.719 118.962 106.549 122.847 108.359 123.993C109.642 124.804 109.927 124.997 111.512 125.765C114.956 126.704 117.95 129.577 121.826 129.839C120.152 129.725 116.149 132.795 114.534 132.795C112.705 132.593 108.286 130.639 107.965 129.445C105.404 125.998 101.689 125.342 100.87 120.839ZM44.8648 137.93C40.8686 138.444 36.9536 139.524 33.5136 141.434C33.5136 141.663 33.8061 141.945 34.0398 142.29C36.2636 141.832 41.9523 139.587 44.0161 140.01C45.9273 142.175 47.3486 143.457 49.8423 145.248C54.8973 147.048 56.8848 141.718 60.4261 141.718C68.0773 149.95 67.5461 146.279 76.7098 142.433C76.8111 142.4 83.3486 147.242 86.5523 147.53C90.1248 147.275 92.2961 144.055 95.8123 144.055C102.935 147.077 103.992 146.644 110.53 142.433C114.367 141.322 118.819 144.513 123.766 142.832C123.71 142.685 123.659 142.573 123.607 142.46C118.946 141.919 114.184 140.154 109.736 140.297C105.184 144.198 102.245 146.475 97.0061 142.798C97.0323 142.748 97.0573 142.714 97.0886 142.685C97.0573 142.663 97.0323 142.63 97.0323 142.604C96.9298 142.604 96.8223 142.604 96.7411 142.63C94.7548 140.499 94.4386 141.352 92.3273 142.484C87.0273 147.53 83.2461 146.678 78.8248 141.352C73.5561 137.419 70.5711 149.323 63.1561 142.545C59.9511 138.958 60.4823 139.154 56.2461 141.978C50.2923 145.283 48.8098 142.433 44.8648 137.93M37.9811 145.793C45.2373 144.657 42.4273 143.118 48.9123 147.958C53.2561 150.124 54.9986 147.674 59.6348 146.818C62.9973 149.693 67.0448 150.52 71.5423 150.262C77.8698 146.414 75.7286 146.847 81.3911 151.175C81.9473 151.46 82.7911 151.435 83.5061 151.942C87.7686 151.942 89.6186 151.632 93.2986 149.037C97.1898 147.158 101.32 151.435 106.931 149.128C111.485 147.015 113.52 147.555 118.527 147.447C118.496 147.048 118.471 146.644 118.471 146.279C110.719 144.912 111.567 143.568 105.607 147.758C100.287 150.092 96.9548 145.08 92.5311 147.102C83.7973 153.51 83.7973 147.3 75.8611 145.707C70.4336 148.329 69.1911 149.442 63.4161 146.955C62.3073 146.189 60.4011 144.513 59.5011 144.335C53.0673 146.93 51.9636 149.01 46.3473 144.564C43.9136 142.832 38.5123 141.802 37.9811 145.793M52.9648 150.975C53.1236 151.29 53.2823 151.607 53.4661 151.942C54.8973 151.942 55.7448 151.858 57.3036 151.318C57.3598 151.374 57.4111 151.435 57.4623 151.52C61.4898 151.52 62.0973 152.517 65.9873 153.652C69.1348 154.308 72.7386 152.339 75.9886 152.028C79.8823 153.51 80.9161 154.334 85.7048 154.877C88.7198 154.79 90.5748 154.478 93.4311 152.884C96.6386 151.402 97.6148 153.769 101.775 153.055C101.902 152.769 102.036 152.517 102.194 152.255C99.4136 151.29 93.7786 148.527 91.9748 151.858C88.6423 153.51 84.6973 153.6 81.2836 152.884C79.2436 151.942 77.9511 150.262 75.9623 150.262C72.8961 151.063 67.5198 153.625 64.7961 151.259C58.5761 148.213 59.4761 148.724 52.9648 150.975M70.7498 155.365C70.6686 155.618 70.5411 156.16 70.2998 156.413C71.3323 158.097 74.4298 156.134 75.5136 155.534C77.2048 155.534 78.9786 156.5 80.8898 157.215C81.0736 157.13 81.2836 156.64 81.4161 156.388C77.2361 153.084 75.5386 154.392 70.7498 155.365Z" fill="white"/>
  <path d="M52.02 162.876C52.9888 163.186 53.9763 163.628 54.69 164.11L53.7138 167.16L52.5063 166.773C52.4213 166.221 52.385 165.578 52.415 165.105C52.1225 164.822 51.6225 164.493 50.965 164.282C50.1413 164.018 49.3425 164.12 49.0563 165.016C48.3725 167.152 53.7313 167.985 52.62 171.455C52.0463 173.247 50.01 174.13 47.1925 173.227C46.37 172.963 45.4 172.527 44.7188 172.141L45.6587 169.205L46.8463 169.585C46.9438 170.162 46.9863 170.848 46.9438 171.298C47.145 171.488 47.645 171.753 48.0838 171.895C48.9988 172.187 49.675 171.962 49.925 171.181C50.5475 169.236 45.1775 168.188 46.2638 164.795C46.8613 162.926 49.0575 161.927 52.02 162.876Z" fill="white"/>
  <path d="M43.2478 159.743L42.7591 160.616C42.2266 160.663 41.6478 160.638 41.1166 160.524L37.4453 167.093C37.7953 167.45 38.1441 167.966 38.3928 168.426L37.9153 169.283L33.0703 166.574L33.5491 165.718C34.0716 165.689 34.6941 165.716 35.1816 165.828L38.8541 159.259C38.4791 158.866 38.1541 158.386 37.9153 157.908L38.4028 157.035L43.2478 159.743Z" fill="white"/>
  <path d="M24.6403 150.725L26.8966 148.396C28.2803 148.818 29.7178 149.625 30.9591 150.828C33.4416 153.233 33.4953 156.295 31.2528 158.61C28.7453 161.198 25.3503 161.168 22.4678 158.375C21.6266 157.56 20.7866 156.551 20.1953 155.615L22.4378 153.301L23.3628 154.196C23.2341 154.743 23.0103 155.278 22.7591 155.73C23.0328 156.275 23.4591 156.883 24.0803 157.485C25.6391 158.995 27.5116 158.496 29.0303 156.93C30.4928 155.42 30.8078 153.384 29.1528 151.781C28.7941 151.434 28.4078 151.115 28.0203 150.906L26.4753 152.503C26.6666 152.856 26.8028 153.35 26.9116 153.79L26.2428 154.48L22.8778 151.219L23.5466 150.529C23.8928 150.558 24.2803 150.6 24.6403 150.725Z" fill="white"/>
  <path d="M24.5063 143.589L23.6526 144.111C23.1663 143.893 22.6738 143.586 22.2663 143.228L15.8476 147.16C15.9801 147.643 16.0313 148.264 16.0238 148.786L15.1863 149.299L12.2876 144.568L13.1238 144.056C13.5938 144.285 14.1238 144.614 14.4938 144.95L20.9113 141.018C20.7776 140.491 20.7288 139.914 20.7538 139.38L21.6076 138.858L24.5063 143.589Z" fill="white"/>
  <path d="M19.4517 134.611L18.5154 134.966C18.1042 134.67 17.6579 134.285 17.3179 133.84L10.2804 136.507C10.3192 137.006 10.2617 137.645 10.1492 138.138L9.23166 138.486L7.26416 133.297L8.18166 132.95C8.59416 133.246 9.06666 133.702 9.36166 134.083L16.5479 131.358L15.6204 129.082C15.1617 129.112 14.4554 129.113 13.8429 129.078L13.3929 127.893L16.4629 126.73L19.4517 134.611Z" fill="white"/>
  <path d="M15.2507 122.229L14.2707 122.434C13.9107 122.078 13.5294 121.627 13.2632 121.133L5.89693 122.672C5.85693 123.169 5.70068 123.792 5.51193 124.262L4.55193 124.462L3.41943 119.029L4.37943 118.828C4.73943 119.186 5.13568 119.711 5.36693 120.133L12.8907 118.563L12.3307 116.168C11.8719 116.127 11.1744 116.017 10.5744 115.888L10.3157 114.647L13.5294 113.976L15.2507 122.229Z" fill="white"/>
  <path d="M2.78557 100.177L7.67307 99.7741C10.6668 99.5354 12.3656 101.297 12.6093 104.128C12.9056 107.572 11.2531 108.909 8.83932 109.118L3.59432 109.57C3.48557 109.927 3.20307 110.394 2.98682 110.683L2.01057 110.767L1.59057 105.888L2.56682 105.804C2.85932 106.164 3.19682 106.578 3.37432 107.007L8.20057 106.59C10.0156 106.434 11.0381 105.709 10.8706 103.777C10.7368 102.209 9.73057 101.505 8.09682 101.665L2.95682 102.167C2.87557 102.617 2.57557 103.105 2.36807 103.489L1.39057 103.573L1.01807 99.2491L1.99557 99.1654C2.25932 99.4316 2.63432 99.8229 2.78557 100.177Z" fill="white"/>
  <path d="M11.9058 82.8926L10.9046 82.8738C10.6108 82.5426 10.2983 82.0951 10.2258 81.7101L3.94205 82.6126V82.6313L11.8558 85.5801L11.822 87.3651L3.70205 90.1551V90.1751L10.0146 90.9426C10.2033 90.5051 10.4908 90.1263 10.7771 89.8051L11.7771 89.8226L11.7021 93.8926L10.7008 93.8751C10.4658 93.6013 10.2121 93.2901 10.0171 92.9601L2.49455 91.5738C2.3058 92.0301 2.0383 92.4676 1.7708 92.8663L0.789551 92.8476L0.8683 88.5476L8.10455 85.9538L8.1058 85.9151L0.9683 83.1726L1.0483 78.8726L2.0483 78.8901C2.2808 79.2976 2.5533 79.7251 2.70455 80.2276L10.2771 78.9263C10.4433 78.6213 10.7096 78.3001 10.9946 78.0563L11.9946 78.0738L11.9058 82.8926Z" fill="white"/>
  <path d="M8.16955 70.0995C8.0708 70.9195 7.3183 71.487 6.4633 71.3845C5.6083 71.282 5.00955 70.552 5.1083 69.7333C5.20705 68.9133 5.96205 68.327 6.81705 68.4295C7.67205 68.532 8.26705 69.2795 8.16955 70.0995Z" fill="white"/>
  <path d="M7.19746 51.2949L11.9612 52.4586C14.8762 53.1786 15.9312 55.3861 15.2687 58.1499C14.4612 61.5124 12.4712 62.2586 10.1162 61.6924L4.99746 60.4636C4.78121 60.7674 4.36621 61.1224 4.06996 61.3274L3.11621 61.0986L4.25871 56.3361L5.21246 56.5649C5.37621 56.9999 5.56496 57.4999 5.59871 57.9611L10.3075 59.0924C12.0787 59.5174 13.2775 59.1536 13.73 57.2674C14.0975 55.7361 13.3675 54.7511 11.7662 54.3861L6.73121 53.2374C6.51246 53.6386 6.07371 54.0074 5.75496 54.3061L4.80121 54.0774L5.81371 49.8561L6.76746 50.0849C6.93371 50.4211 7.16621 50.9124 7.19746 51.2949Z" fill="white"/>
  <path d="M14.9953 33.0625L23.2903 37.2825L22.2541 39.32L12.4766 40.5725L18.2803 43.1587C18.6141 42.855 19.0378 42.5962 19.5228 42.3037L20.4141 42.7575L18.2978 46.9175L17.4066 46.4637C17.3566 45.9 17.3241 45.345 17.3916 44.905L10.7453 41.415C10.3766 41.7875 9.90033 42.1062 9.43283 42.4062L8.55908 41.9625L10.5266 38.0937L19.2491 36.9725L14.1766 34.6712C13.8603 34.9837 13.4278 35.2175 12.9853 35.4225L12.1116 34.9787L13.9666 31.3325L14.8416 31.7775C14.9253 32.23 15.0091 32.6387 14.9953 33.0625Z" fill="white"/>
  <path d="M27.2838 31.7393L26.5438 31.0655C26.6201 30.5368 26.7763 29.978 27.0076 29.4868L21.4451 24.4168C21.0176 24.6768 20.4351 24.9005 19.9301 25.038L19.2051 24.3768L22.9438 20.2755L23.6701 20.9355C23.5788 21.4505 23.4113 22.0518 23.1913 22.5005L28.7538 27.5705C29.2213 27.2955 29.7638 27.0868 30.2826 26.963L31.0226 27.6368L27.2838 31.7393Z" fill="white"/>
  <path d="M39.1517 10.4486L40.9204 20.3198L38.9042 21.5498L30.9104 15.4498C30.5929 15.4798 30.2167 15.3798 29.8454 15.3248L29.3354 14.4873L33.4504 11.9786L33.9617 12.8161C33.7854 13.2286 33.5879 13.6061 33.3154 14.0073L38.9329 18.3898L38.9667 18.3698L37.3317 11.5586C36.9317 11.6386 36.3867 11.5948 35.9779 11.5873L35.4667 10.7486L38.9754 8.60981L39.4867 9.44731C39.4042 9.75606 39.3304 10.1523 39.1517 10.4486Z" fill="white"/>
  <path d="M49.8897 15.9648L49.6159 15.0023C49.9509 14.6361 50.3672 14.2061 50.8409 13.9048L48.7859 6.68484C48.2809 6.66234 47.6384 6.51234 47.1659 6.39609L46.8984 5.45359L54.8772 3.18234L55.6334 5.83984L54.4334 6.18109C54.1359 5.91109 53.7009 5.43234 53.4984 5.07359L51.2084 5.72484L52.0797 8.78609L53.9634 8.24984C53.9859 7.90984 54.1384 7.53359 54.2447 7.27484L55.2422 6.99109L56.0972 9.99484L55.0997 10.2786C54.8859 10.0886 54.5109 9.82109 54.3359 9.55859L52.4522 10.0948L53.3997 13.4261L55.6897 12.7736C55.6747 12.2998 55.7859 11.7061 55.8984 11.2586L57.1159 10.9111L57.9059 13.6836L49.8897 15.9648Z" fill="white"/>
  <path d="M74.2988 11.6369L74.1575 10.4631C72.7025 10.7919 72.5238 6.78811 70.6438 6.67186C72.0625 6.14561 72.8563 5.09061 72.74 3.75561C72.5538 1.64061 70.985 0.894356 68.2113 1.13811C66.68 1.27186 64.87 1.51061 64.43 1.54936L63.0713 1.66935L63.1575 2.64561C63.62 2.86686 64.1613 3.10061 64.6913 3.21436L65.35 10.7131C64.8088 10.9219 64.2975 11.2481 63.94 11.5606L64.0275 12.5581L69.1925 12.1044L69.105 11.1081C68.7588 10.8969 68.31 10.6144 67.875 10.4919L67.63 7.69936L68.2425 7.64686C70.1175 7.48186 70.0863 12.1869 72.5738 11.9694C73.1675 11.9169 73.8325 11.8181 74.2988 11.6369ZM68.3788 6.12686L67.4988 6.20436L67.205 2.85311C67.3925 2.79686 67.735 2.74686 67.8888 2.73311C69.3238 2.60811 70.0663 3.16561 70.1663 4.30186C70.2463 5.21936 69.7563 6.00561 68.3788 6.12686Z" fill="white"/>
  <path d="M83.3753 12.0273C82.3591 11.9798 81.2903 11.8098 80.4766 11.5323L80.6266 8.3323L81.8916 8.39105C82.1178 8.9023 82.3203 9.51355 82.4141 9.97855C82.7691 10.1748 83.3378 10.3623 84.0278 10.3948C84.8916 10.4348 85.6353 10.1285 85.6791 9.18855C85.7841 6.94855 80.3941 7.5398 80.5628 3.90105C80.6503 2.02105 82.3878 0.638545 85.3416 0.776045C86.2041 0.816045 87.2541 0.984795 88.0141 1.17979L87.8703 4.2598L86.6228 4.2023C86.3791 3.6698 86.1591 3.01855 86.0841 2.57355C85.8403 2.4423 85.2891 2.31605 84.8291 2.2948C83.8691 2.2498 83.2741 2.64355 83.2366 3.46355C83.1416 5.50355 88.5991 5.1148 88.4328 8.6748C88.3416 10.6348 86.4828 12.171 83.3753 12.0273Z" fill="white"/>
  <path d="M94.1426 12.7424L94.3213 11.7574C94.8101 11.5411 95.3663 11.3774 95.9051 11.3124L97.2501 3.90736C96.8026 3.68361 96.3051 3.30736 95.9213 2.95361L96.0963 1.98736L101.556 2.97986L101.38 3.94611C100.896 4.14236 100.298 4.31861 99.8013 4.36986L98.4551 11.7761C98.9363 12.0274 99.4001 12.3761 99.7813 12.7499L99.6026 13.7349L94.1426 12.7424Z" fill="white"/>
  <path d="M116.386 11.2576C116.353 10.6626 116.316 9.87258 116.391 9.32008L114.678 8.63883L111.831 15.8013C112.249 16.0976 112.638 16.5751 112.956 17.0251L112.586 17.9551L107.411 15.8963L107.781 14.9663C108.338 14.8651 108.931 14.7776 109.439 14.8501L112.287 7.68883L110.573 7.00758C110.274 7.44883 109.664 8.04633 109.248 8.41883L108.142 7.97883L109.362 4.90883L118.731 8.63508L117.509 11.7051L116.386 11.2576Z" fill="white"/>
  <path d="M130.87 16.518L128.676 14.803L120.183 20.028C119.841 19.9642 119.406 19.9292 119.031 19.9417L118.415 20.7292L121.608 23.2242L122.224 22.4355C122.115 22.0455 121.975 21.6317 121.741 21.2455L122.883 20.563L125.985 22.988L125.599 24.2605C125.183 24.138 124.718 24.0792 124.313 24.068L123.696 24.8567L127.494 27.8242L128.11 27.0355C128.064 26.7205 127.943 26.3455 127.809 25.9867L130.87 16.518ZM128.046 17.1055C127.869 17.5517 127.68 18.013 127.523 18.5255L126.515 21.623L124.064 19.708L126.904 17.9142C127.335 17.6417 127.71 17.3505 128.031 17.0942L128.046 17.1055V17.1055Z" fill="white"/>
  <path d="M141.58 33.8977C141.882 33.384 142.288 32.7052 142.655 32.2865L141.605 30.7727L135.272 35.1652C135.458 35.644 135.518 36.2565 135.534 36.8065L134.712 37.3765L131.537 32.8015L132.359 32.2315C132.88 32.4552 133.422 32.709 133.805 33.0515L140.138 28.659L139.088 27.144C138.594 27.3465 137.755 27.5077 137.202 27.5877L136.523 26.609L139.238 24.7265L144.984 33.009L142.27 34.8915L141.58 33.8977Z" fill="white"/>
  <path d="M138.45 44.4764L139.378 44.1052C139.822 44.4027 140.256 44.7877 140.597 45.2102L147.585 42.4152C147.537 41.9164 147.59 41.2964 147.686 40.7814L148.597 40.4177L150.658 45.5689L149.747 45.9339C149.323 45.6277 148.856 45.2152 148.547 44.8214L141.56 47.6164C141.603 48.1577 141.555 48.7352 141.441 49.2564L140.511 49.6289L138.45 44.4764Z" fill="white"/>
  <path d="M142.836 58.5221C142.611 57.5296 142.49 56.4546 142.541 55.5959L145.664 54.8859L145.945 56.1221C145.513 56.4759 144.978 56.8346 144.555 57.0484C144.46 57.4446 144.431 58.0409 144.585 58.7159C144.776 59.5584 145.27 60.1946 146.188 59.9859C148.374 59.4884 146.366 54.4509 149.919 53.6434C151.754 53.2259 153.55 54.5309 154.205 57.4146C154.396 58.2571 154.514 59.3134 154.529 60.0971L151.521 60.7809L151.245 59.5634C151.693 59.1859 152.263 58.8009 152.67 58.6096C152.733 58.3396 152.706 57.7746 152.604 57.3246C152.391 56.3896 151.854 55.9209 151.053 56.1021C149.063 56.5559 150.891 61.7121 147.416 62.5021C145.504 62.9371 143.526 61.5559 142.836 58.5221Z" fill="white"/>
  <path d="M149.866 70.0997C149.768 69.2797 150.366 68.5509 151.221 68.4484C152.076 68.3459 152.828 68.9134 152.927 69.7334C153.026 70.5522 152.43 71.3009 151.575 71.4034C150.72 71.5059 149.963 70.9197 149.866 70.0997Z" fill="white"/>
  <path d="M145.892 77.8563L146.892 77.8138C147.19 78.2238 147.492 78.7301 147.675 79.2601L155.193 78.9413C155.313 78.4563 155.568 77.8688 155.831 77.4351L156.811 77.3938L157.046 82.9376L156.066 82.9788C155.768 82.5688 155.462 81.9863 155.303 81.5313L147.625 81.8576L147.788 84.3101C148.233 84.4263 148.905 84.6476 149.475 84.8738L149.528 86.1401L146.248 86.2788L145.892 77.8563Z" fill="white"/>
  <path d="M155.106 102.033L150.207 101.808C147.208 101.662 145.748 99.6982 145.868 96.8582C146.013 93.4057 147.822 92.2895 150.242 92.392L155.502 92.6132C155.656 92.2732 155.994 91.8457 156.246 91.587L157.226 91.6282L157.021 96.5207L156.041 96.4795C155.797 96.0857 155.514 95.6307 155.393 95.1845L150.554 94.9807C148.734 94.9032 147.628 95.4907 147.547 97.4295C147.481 99.002 148.387 99.8282 150.028 99.8782L155.189 100.038C155.328 99.602 155.687 99.1557 155.943 98.8007L156.922 98.842L156.741 103.178L155.761 103.137C155.533 102.839 155.211 102.403 155.106 102.033Z" fill="white"/>
  <path d="M156.052 109.978L155.084 109.815C154.732 110.224 154.363 110.727 154.149 111.158L146.724 109.914C146.653 109.377 146.482 108.823 146.258 108.338L145.271 108.172L145.023 109.649C144.779 111.108 144.521 112.408 144.368 113.317C143.742 117.048 145.307 118.732 146.966 119.009C148.151 119.208 149.412 118.582 149.889 116.948C150.006 118.312 150.839 119.035 151.846 119.203C153.623 119.502 154.733 118.324 155.207 115.503C155.442 114.102 155.654 112.345 155.811 111.418L156.052 109.978ZM149.464 112.944L149.306 113.89C149.029 115.538 148.302 116.488 147.197 116.303C146.268 116.147 145.563 115.387 145.808 113.928C145.919 113.265 146.087 112.748 146.266 112.408L149.464 112.944V112.944ZM153.947 113.694C153.923 114.08 153.866 114.42 153.786 114.894C153.548 116.315 152.771 116.71 151.863 116.558C150.954 116.407 150.366 115.802 150.633 114.21C150.699 113.813 150.759 113.453 150.827 113.172L153.947 113.694Z" fill="white"/>
  <path d="M142.301 123.381L143.248 123.702C143.36 124.186 143.478 124.772 143.457 125.333L150.568 127.74C150.875 127.336 151.362 126.893 151.726 126.571L152.655 126.885L149.995 134.742L147.377 133.856L147.777 132.673C148.167 132.583 148.81 132.496 149.22 132.533L149.983 130.278L146.968 129.258L146.341 131.113C146.607 131.325 146.83 131.663 146.983 131.898L146.651 132.881L143.692 131.88L144.026 130.897C144.302 130.828 144.736 130.672 145.051 130.677L145.68 128.822L142.398 127.712L141.635 129.967C142.033 130.223 142.46 130.651 142.765 130.998L142.358 132.198L139.628 131.273L142.301 123.381Z" fill="white"/>
  <path d="M134.443 140.92C136.349 137.764 138.927 137.099 141.804 138.839C145.181 140.878 145.736 144.063 143.978 146.971C143.323 148.056 142.659 148.845 142.081 149.415L138.997 147.553L139.672 146.434C140.291 146.494 140.966 146.655 141.477 146.853C141.838 146.644 142.228 146.229 142.527 145.736C143.391 144.305 142.768 142.741 140.694 141.489C138.724 140.298 137.012 140.655 135.732 142.775C135.324 143.449 134.994 144.305 134.899 145.121L133.401 144.62C133.359 143.451 133.718 142.12 134.443 140.92Z" fill="white"/>
  <path d="M129.515 148.105L130.202 148.833C130.074 149.312 129.902 149.886 129.62 150.372L134.772 155.832C135.232 155.618 135.87 155.457 136.343 155.341L137.015 156.055L130.98 161.747L129.084 159.738L129.993 158.881C130.38 158.985 130.988 159.208 131.332 159.435L133.064 157.801L130.88 155.485L129.455 156.83C129.592 157.141 129.629 157.546 129.655 157.825L128.9 158.536L126.758 156.265L127.512 155.552C127.789 155.622 128.245 155.686 128.522 155.84L129.947 154.495L127.57 151.976L125.838 153.61C126.069 154.023 126.245 154.601 126.352 155.051L125.43 155.921L123.452 153.823L129.515 148.105Z" fill="white"/>
  <path d="M113.612 170.05L109.521 161.691L111.573 160.686L120.14 165.562L117.057 160.007C116.607 160.048 116.113 160.001 115.55 159.942L115.11 159.043L119.301 156.991L119.741 157.891C119.442 158.371 119.135 158.833 118.816 159.146L122.03 165.93C122.548 165.853 123.12 165.886 123.675 165.926L124.106 166.807L120.207 168.715L112.563 164.368L115.233 169.256C115.675 169.196 116.16 169.271 116.637 169.371L117.068 170.252L113.393 172.051L112.963 171.17C113.167 170.757 113.346 170.38 113.612 170.05Z" fill="white"/>
  <path d="M100.491 164.093C101.485 163.873 102.56 163.757 103.418 163.813L104.111 166.94L102.873 167.215C102.522 166.78 102.167 166.243 101.955 165.818C101.56 165.722 100.963 165.691 100.288 165.84C99.4447 166.027 98.8059 166.517 99.0084 167.436C99.4934 169.625 104.542 167.643 105.331 171.201C105.737 173.037 104.422 174.825 101.536 175.465C100.692 175.652 99.6347 175.763 98.8509 175.773L98.1834 172.763L99.4022 172.495C99.7772 172.943 100.16 173.515 100.348 173.925C100.618 173.987 101.183 173.965 101.633 173.865C102.571 173.657 103.042 173.122 102.865 172.321C102.423 170.328 97.2559 172.13 96.4859 168.651C96.0609 166.736 97.4534 164.767 100.491 164.093Z" fill="white"/>
  <path d="M90.574 166.014L90.654 167.012C90.2378 167.347 89.7415 167.648 89.2378 167.849L89.8415 175.352C90.3315 175.453 90.909 175.688 91.3715 175.932L91.4503 176.91L85.9178 177.355L85.839 176.377C86.2578 176.063 86.7903 175.738 87.2578 175.56L86.654 168.057C86.124 167.939 85.5865 167.72 85.1215 167.457L85.0415 166.459L90.574 166.014Z" fill="white"/>
  <path d="M76.3395 166.356C77.357 166.381 78.4295 166.527 79.2482 166.787L79.1707 169.988L77.9032 169.958C77.6657 169.451 77.4507 168.846 77.3457 168.382C76.9857 168.193 76.4145 168.02 75.7232 168.002C74.8595 167.981 74.122 168.303 74.0982 169.245C74.0432 171.486 79.4207 170.776 79.332 174.417C79.2857 176.298 77.5807 177.718 74.6245 177.646C73.7595 177.625 72.707 177.48 71.9432 177.3L72.0182 174.218L73.2657 174.25C73.522 174.776 73.7557 175.422 73.842 175.865C74.0882 175.991 74.642 176.105 75.1032 176.116C76.0632 176.14 76.6495 175.733 76.6695 174.913C76.7182 172.872 71.2707 173.38 71.357 169.818C71.4045 167.857 73.2295 166.28 76.3395 166.356Z" fill="white"/>
  <path d="M62.6093 170.244C63.4268 170.362 63.9755 171.129 63.853 171.98C63.7293 172.833 62.9868 173.413 62.1693 173.295C61.3518 173.177 60.7843 172.408 60.9068 171.555C61.0305 170.704 61.7918 170.125 62.6093 170.244Z" fill="white"/>
</svg>
