<svg width="1225" height="234" viewBox="0 0 1225 234" fill="none" xmlns="http://www.w3.org/2000/svg">
  <path d="M365.238 79.4725H340.559V183.314H365.238V79.4725Z" fill="#C6D8DD"/>
  <path d="M115.556 79.4725V183.314H90.7011V121.035L67.8774 183.314H47.8186L24.8554 120.893V183.314H0V79.4725H29.3586L57.9912 151.365L86.3444 79.4725H115.556Z" fill="#C6D8DD"/>
  <path d="M193.485 145.447L180.841 107.429L168.343 145.447H193.485ZM199.88 164.97H161.794L155.692 183.314H129.678L166.598 79.4725H195.377L232.297 183.314H205.982L199.88 164.97Z" fill="#C6D8DD"/>
  <path d="M271.21 126.214H286.612C291.171 126.214 294.585 125.085 296.861 122.811C299.137 120.545 300.275 117.34 300.275 113.198C300.275 109.255 299.137 106.151 296.861 103.877C294.585 101.611 291.171 100.481 286.612 100.481H271.21V126.214ZM298.39 183.314L277.173 144.111H271.21V183.314H246.355V79.4725H288.071C296.114 79.4725 302.97 80.9077 308.633 83.7638C314.309 86.627 318.54 90.5416 321.361 95.522C324.167 100.502 325.571 106.051 325.571 112.161C325.571 119.067 323.658 125.227 319.832 130.655C315.999 136.075 310.357 139.926 302.894 142.193L326.443 183.314H298.39Z" fill="#C6D8DD"/>
  <path d="M115.556 79.4725V183.314H90.7011V121.035L67.8774 183.314H47.8186L24.8554 120.893V183.314H0V79.4725H29.3586L57.9912 151.365L86.3444 79.4725H115.556Z" fill="#C6D8DD"/>
  <path d="M193.485 145.447L180.841 107.429L168.343 145.447H193.485ZM199.88 164.97H161.794L155.692 183.314H129.678L166.598 79.4725H195.377L232.297 183.314H205.982L199.88 164.97Z" fill="#C6D8DD"/>
  <path d="M271.21 126.214H286.612C291.171 126.214 294.585 125.085 296.861 122.811C299.137 120.545 300.275 117.34 300.275 113.198C300.275 109.255 299.137 106.151 296.861 103.877C294.585 101.611 291.171 100.481 286.612 100.481H271.21V126.214ZM298.39 183.314L277.173 144.111H271.21V183.314H246.355V79.4725H288.071C296.114 79.4725 302.97 80.9077 308.633 83.7638C314.309 86.627 318.54 90.5416 321.361 95.522C324.167 100.502 325.571 106.051 325.571 112.161C325.571 119.067 323.658 125.227 319.832 130.655C315.999 136.075 310.357 139.926 302.894 142.193L326.443 183.314H298.39Z" fill="#C6D8DD"/>
  <path d="M595.517 153.574C600.747 148.352 603.365 140.956 603.365 131.394C603.365 121.831 600.747 114.385 595.517 109.056C590.281 103.735 582.964 101.071 573.566 101.071H561.788V161.418H573.566C582.964 161.418 590.281 158.81 595.517 153.574ZM603.365 85.9875C611.408 90.3213 617.629 96.4101 622.041 104.246C626.447 112.09 628.66 121.141 628.66 131.394C628.66 141.553 626.447 150.576 622.041 158.462C617.629 166.348 611.38 172.466 603.288 176.807C595.203 181.14 585.819 183.314 575.158 183.314H536.926V79.4725H575.158C585.917 79.4725 595.315 81.6394 603.365 85.9875Z" fill="#466C77"/>
  <path d="M696.842 145.447L684.198 107.429L671.701 145.447H696.842ZM703.238 164.97H665.152L659.05 183.314H633.035L669.955 79.4725H698.734L735.654 183.314H709.34L703.238 164.97Z" fill="#466C77"/>
  <path d="M814.407 79.4725V99.735H787.374V183.314H762.504V99.735H735.478V79.4725H814.407Z" fill="#466C77"/>
  <path d="M878.197 145.447L865.546 107.429L853.049 145.447H878.197ZM884.592 164.97H846.514L840.404 183.314H814.383L851.303 79.4725H880.082L917.002 183.314H890.702L884.592 164.97Z" fill="#466C77"/>
  <path fill-rule="evenodd" clip-rule="evenodd" d="M375.074 183.324L371.157 183.348V122.642H522.813L522.768 126.63C522.052 148.183 512.579 167.522 497.835 181.02C478.577 176.875 468.754 160.202 457.029 160.326C456.761 160.326 456.494 160.332 456.226 160.341C455.95 160.356 455.671 160.371 455.394 160.392C453.481 160.701 452.037 162.391 452.06 164.411C452.066 165.103 452.239 165.757 452.551 166.331C453.353 167.852 453.814 169.594 453.828 171.429C453.894 177.543 449.068 182.547 443.054 182.614C417.402 182.88 406.44 160.849 392.974 160.994C392.706 160.994 392.439 161.003 392.171 161.009C391.898 161.024 391.616 161.04 391.342 161.055C389.435 161.363 387.982 163.059 388.005 165.079C388.011 165.772 388.193 166.425 388.502 166.999C389.298 168.52 389.758 170.253 389.782 172.091C389.782 172.496 389.767 172.898 389.732 173.289C389.197 178.843 384.618 183.224 379.008 183.282L375.074 183.324Z" fill="#C6D8DD"/>
  <path d="M371.157 116.67V79.4725H465.173V116.67H371.157Z" fill="#466C77"/>
  <path d="M340.559 73.558V36.3605H395.822V73.558H340.559Z" fill="#C6D8DD"/>
  <path d="M961.344 42.8125V211.367H951.48V42.8125H961.344Z" fill="#C6D8DD"/>
  <path d="M1075.84 125.83V137.022H1019.67V125.83H1075.84ZM1021.81 81.2031V185H1008.05V81.2031H1021.81ZM1087.82 81.2031V185H1074.13V81.2031H1087.82ZM1179.21 173.808V185H1124.25V173.808H1179.21ZM1127.03 81.2031V185H1113.27V81.2031H1127.03ZM1171.94 125.83V137.022H1124.25V125.83H1171.94ZM1178.5 81.2031V92.4668H1124.25V81.2031H1178.5ZM1212.01 81.2031V185H1198.25V81.2031H1212.01Z" fill="#C6D8DD"/>
</svg>
