<svg width="672" height="757" viewBox="0 0 672 757" fill="none" xmlns="http://www.w3.org/2000/svg">
  <path d="M42.8781 472.147L26.0426 511.43V540L18.5 560.5L15 569L1.5 606L2.5 612C2.5 612 123 752 251.5 748C380 744 669 623.667 669 623.667V607.633L658.578 577.169L639.338 542.696L593.641 483.371L543.936 450.501L502.248 416.029L484.611 391.978L382.796 359.108L151.908 408.813L111.824 425.649L42.8781 472.147Z" fill="white"/>
  <path d="M2 613C4.5 595 25.7219 554.08 24.4392 535.481C23.1564 516.882 37.2662 486.043 44.4815 472.949C69.6012 453.976 133 407 157.5 414C150.018 432.439 121.123 472.628 119.841 487.379C118.558 502.131 96.8587 540.024 86.1695 557.127C78.1526 572.626 51.5 641.759 51.5 661" stroke="black" stroke-width="4" stroke-linecap="round"/>
  <path d="M104.608 526.662C104.876 540.558 104.608 571.076 101.402 581.979C98.1949 592.882 96.8588 612.71 96.5916 621.262C96.5916 653.5 85.7 675.2 82.5 686" stroke="black" stroke-width="4" stroke-linecap="round"/>
  <path d="M276.171 530.67C297.549 527.464 344.956 515.438 363.555 492.991C382.154 470.543 405.51 428.588 414.864 410.417" stroke="black" stroke-width="4" stroke-linecap="round"/>
  <path d="M301 744.474C300.986 745.579 301.87 746.486 302.974 746.5C304.079 746.514 304.986 745.63 305 744.526L301 744.474ZM371.572 626.072L369.58 626.253L369.581 626.258L371.572 626.072ZM543.936 448.898L543.008 450.67L543.936 448.898ZM653.768 565.945L655.68 565.359L655.649 565.256L655.606 565.157L653.768 565.945ZM667.008 625.323C666.91 626.423 667.723 627.394 668.823 627.492C669.923 627.59 670.894 626.777 670.992 625.677L667.008 625.323ZM497.519 690.776C497.671 691.87 498.682 692.633 499.776 692.481C500.87 692.329 501.633 691.318 501.481 690.224L497.519 690.776ZM387.883 730.176C388.532 731.07 389.783 731.267 390.676 730.617C391.57 729.968 391.767 728.717 391.117 727.824L387.883 730.176ZM366.57 485.697C359.969 499.163 344.007 525.128 329.532 566.982C315.043 608.877 302.003 666.755 301 744.474L305 744.526C305.997 667.245 318.959 609.79 333.312 568.289C347.68 526.745 363.4 501.25 370.161 487.458L366.57 485.697ZM408.234 420.009C401.265 435.286 390.819 460.157 382.11 485.158C373.434 510.064 366.365 535.418 366.365 551.515H370.365C370.365 536.185 377.193 511.433 385.887 486.474C394.548 461.61 404.946 436.856 411.873 421.669L408.234 420.009ZM366.365 551.515C366.365 583.014 368.507 614.449 369.58 626.253L373.564 625.891C372.499 614.179 370.365 582.868 370.365 551.515H366.365ZM477.622 395.833C485.656 403.465 498.546 415.352 511.122 426.22C523.621 437.022 536.028 447.014 543.008 450.67L544.864 447.126C538.375 443.727 526.332 434.078 513.737 423.194C501.22 412.376 488.376 400.533 480.377 392.933L477.622 395.833ZM543.008 450.67C551.26 454.992 566.776 465.523 581.15 477.302C588.325 483.182 595.171 489.336 600.655 495.141C606.184 500.993 610.165 506.323 611.821 510.555L615.546 509.098C613.595 504.111 609.158 498.317 603.563 492.394C597.923 486.425 590.94 480.153 583.685 474.208C569.198 462.336 553.448 451.622 544.864 447.126L543.008 450.67ZM611.821 510.555C615.606 520.229 622.671 526.849 630.006 534.573C637.396 542.356 645.431 551.575 651.93 566.733L655.606 565.157C648.837 549.37 640.437 539.749 632.906 531.819C625.32 523.83 618.976 517.863 615.546 509.098L611.821 510.555ZM651.856 566.532C653.205 570.928 655.018 575.08 656.895 579.214C658.784 583.376 660.73 587.506 662.438 592.005C665.828 600.931 668.259 611.251 667.008 625.323L670.992 625.677C672.307 610.889 669.737 599.958 666.178 590.585C664.412 585.935 662.395 581.654 660.537 577.56C658.666 573.439 656.947 569.489 655.68 565.359L651.856 566.532ZM424.367 410.59C443.702 420.591 473.834 437.238 501.359 454.657C515.122 463.367 528.207 472.253 538.955 480.585C549.749 488.951 558.025 496.639 562.327 502.938L565.63 500.682C560.953 493.833 552.247 485.827 541.406 477.423C530.52 468.985 517.319 460.023 503.498 451.277C475.853 433.782 445.617 417.078 426.204 407.037L424.367 410.59ZM614.205 507.896C604.294 505.217 580.294 499.81 563.978 499.81V503.81C579.731 503.81 603.297 509.091 613.162 511.757L614.205 507.896ZM562.657 500.309C550.607 510.918 529.293 524.309 513.652 552.104C497.959 579.99 487.977 622.222 497.519 690.776L501.481 690.224C492.023 622.278 501.987 580.988 517.138 554.065C532.34 527.051 552.765 514.347 565.3 503.311L562.657 500.309ZM369.581 626.258C370.91 640.493 374.603 665.188 378.356 686.844C380.235 697.678 382.133 707.78 383.764 715.458C384.579 719.294 385.332 722.547 385.987 724.993C386.314 726.213 386.624 727.259 386.911 728.086C387.173 728.84 387.488 729.634 387.883 730.176L391.117 727.824C391.139 727.853 391.097 727.799 391.002 727.586C390.916 727.391 390.811 727.123 390.69 726.774C390.447 726.076 390.166 725.134 389.851 723.958C389.222 721.61 388.486 718.435 387.677 714.627C386.06 707.016 384.171 696.969 382.298 686.16C378.548 664.529 374.877 639.96 373.564 625.886L369.581 626.258Z" fill="black"/>
  <path d="M163.132 435.269C146.457 380.754 156.184 353.229 163.132 346.281C180.449 379.632 306.101 332.385 366.762 304.593C363.555 293.37 371.572 284.551 376.382 268.517C428.492 270.12 438.113 283.749 464.569 304.593C485.733 321.268 482.473 360.177 478.197 377.547C501.179 388.504 517.48 413.624 492.628 402.4C467.775 391.176 393.752 428.054 371.572 444.89C350.461 461.992 310 493.5 288.998 532.274C267.996 571.048 280.5 690 272 738C263.5 786 112.5 715 105.5 699.5C98.5001 684 112.514 639 127 606.5C141.486 574 141.486 535.32 141.486 509.025C141.486 476.156 163.132 453.708 163.132 435.269Z" fill="black" stroke="black" stroke-width="4" stroke-linecap="round"/>
  <path d="M110.221 109.782L115.833 82.5244L123.048 69.6973L162.331 19.9924L201.614 10.372L251.319 3.9585L311.446 10.372L391.615 69.6973L405.244 86.5329V109.782L391.615 137.04V162.694L401.235 180.331L398.028 209.192L386.805 242.061L373.978 282.146L365.961 340.669C359.547 384.763 221.656 463.328 221.656 448.096C221.656 432.864 213.639 401.331 208.829 391.978L170.348 383.159L155.917 360.712L151.107 323.834L139.082 296.576L123.048 263.707V228.432L127.858 195.563L115.833 157.884L110.221 109.782Z" fill="white"/>
  <path d="M208.829 395.185C213.372 408.546 222.137 438.637 220.854 452.105C219.251 468.941 370.771 377.548 369.167 331.851C367.885 295.294 365.426 264.776 364.357 254.087" stroke="black" stroke-width="4" stroke-linecap="round"/>
  <path d="M330.687 258.897C320.265 294.171 288.357 368.568 244.104 383.961C199.851 399.354 173.288 385.03 165.538 375.944C161.262 373.272 152.07 358.628 149.504 321.429C144.694 294.973 128.66 287.758 123.85 264.509C120.002 245.909 125.454 212.933 128.66 198.77L119.04 171.512C115.298 157.884 108.938 125.656 113.428 105.774C117.917 85.8916 146.297 67.0251 159.926 60.0771C196.269 58.7409 274.568 66.0096 297.015 105.774" stroke="black" stroke-width="4" stroke-linecap="round"/>
  <path d="M130.263 282.146C134.539 270.655 149.664 249.116 175.959 254.889C208.829 262.104 222.458 252.484 248.913 287.758C264.947 300.585 298.886 257.294 310.644 224.424L314.652 146.66L367.564 224.424V336.661" stroke="black" stroke-width="4" stroke-linecap="round"/>
  <path d="M159.925 167.504C161.529 178.995 162.17 205.664 151.909 220.416C139.081 238.855 158.322 250.078 179.166 247.673" stroke="black" stroke-width="4"/>
  <path d="M179.968 162.694C193.864 158.952 225.985 153.073 243.302 159.487M159.124 169.107C153.779 167.237 138.44 164.618 119.841 169.107" stroke="black" stroke-width="4"/>
  <path d="M149.504 283.75C163.667 285.62 196.643 287.117 215.242 278.138" stroke="black" stroke-width="4" stroke-linecap="round"/>
  <ellipse cx="220.052" cy="178.728" rx="5.61185" ry="7.21524" fill="black"/>
  <ellipse cx="147.098" cy="189.952" rx="4.81016" ry="7.21524" fill="black"/>
  <path d="M300.222 7.96713C253.403 -8.06673 195.735 11.9756 172.753 24.001L396.425 179.529V127.419C402.037 127.687 411.978 121.487 406.847 94.55C401.717 67.6131 375.849 50.1896 363.556 44.845C361.953 39.2332 347.041 24.001 300.222 7.96713Z" fill="#F0DAFF" stroke="black" stroke-width="4"/>
  <path d="M122.245 96.1535C119.68 102.567 117.97 140.514 117.435 158.686C106.479 152.806 102.373 107.377 115.515 82.5247C146.464 24.0011 175.157 13.5791 194.398 13.5791C213.638 13.5791 236.086 32.018 260.137 40.8367C279.377 47.8916 307.169 71.5682 318.66 82.5247C339.237 104.17 382.956 150.989 393.218 165.099C403.479 179.209 400.166 203.046 397.226 213.201C393.218 222.286 385.04 244.627 384.399 261.302C383.758 277.977 374.511 277.336 369.969 274.931C368.098 264.776 364.517 242.543 365.158 234.846C365.8 227.15 340.84 193.693 328.28 177.926L236.086 85.7315C231.276 82.7919 215.242 75.6301 189.588 70.4993C157.52 64.0858 125.452 88.1365 122.245 96.1535Z" fill="#F0DAFF" stroke="black" stroke-width="4"/>
</svg>
