<svg width="671" height="757" viewBox="0 0 671 757" fill="none" xmlns="http://www.w3.org/2000/svg">
  <path d="M41.8781 472.147L25.0426 511.43V540L17.5 560.5L14 569L1.5 597.5L5.00024 615.65C5.00024 615.65 122 752 250.5 748C379 744 668 623.667 668 623.667V607.633L657.578 577.169L638.338 542.696L592.641 483.371L542.936 450.501L501.248 416.029L483.611 391.978L381.796 359.108L150.908 408.813L110.824 425.649L41.8781 472.147Z" fill="white"/>
  <path d="M23.4392 535.481C24.7219 554.08 -8.89619 603.507 5.8019 617.254C20.5 631 56.0003 672.24 56.0003 653C56.0003 633.759 77.1526 572.626 85.1695 557.127C95.8588 540.024 117.558 502.131 118.841 487.379C120.123 472.628 149.018 432.439 156.5 414C132 407 68.6012 453.976 43.4815 472.949C36.2662 486.043 22.1564 516.882 23.4392 535.481Z" stroke="black" stroke-width="4" stroke-linecap="round"/>
  <path d="M103.608 526.662C103.876 540.558 103.608 571.076 100.402 581.979C97.1949 592.882 95.8588 612.71 95.5916 621.262C95.5916 653.5 84.7 675.2 81.5 686" stroke="black" stroke-width="4" stroke-linecap="round"/>
  <path d="M275.171 530.67C296.549 527.464 343.956 515.438 362.555 492.991C381.154 470.543 404.51 428.588 413.864 410.417" stroke="black" stroke-width="4" stroke-linecap="round"/>
  <path d="M300 744.474C299.986 745.579 300.87 746.486 301.974 746.5C303.079 746.514 303.986 745.63 304 744.526L300 744.474ZM370.572 626.072L368.58 626.253L368.581 626.258L370.572 626.072ZM542.936 448.898L542.008 450.67L542.936 448.898ZM652.768 565.945L654.68 565.359L654.649 565.256L654.606 565.157L652.768 565.945ZM666.008 625.323C665.91 626.423 666.723 627.394 667.823 627.492C668.923 627.59 669.894 626.777 669.992 625.677L666.008 625.323ZM496.519 690.776C496.671 691.87 497.682 692.633 498.776 692.481C499.87 692.329 500.633 691.318 500.481 690.224L496.519 690.776ZM386.883 730.176C387.532 731.07 388.783 731.267 389.676 730.617C390.57 729.968 390.767 728.717 390.117 727.824L386.883 730.176ZM365.57 485.697C358.969 499.163 343.007 525.128 328.532 566.982C314.043 608.877 301.003 666.755 300 744.474L304 744.526C304.997 667.245 317.959 609.79 332.312 568.289C346.68 526.745 362.4 501.25 369.161 487.458L365.57 485.697ZM407.234 420.009C400.265 435.286 389.819 460.157 381.11 485.158C372.434 510.064 365.365 535.418 365.365 551.515H369.365C369.365 536.185 376.193 511.433 384.887 486.474C393.548 461.61 403.946 436.856 410.873 421.669L407.234 420.009ZM365.365 551.515C365.365 583.014 367.507 614.449 368.58 626.253L372.564 625.891C371.499 614.179 369.365 582.868 369.365 551.515H365.365ZM476.622 395.833C484.656 403.465 497.546 415.352 510.122 426.22C522.621 437.022 535.028 447.014 542.008 450.67L543.864 447.126C537.375 443.727 525.332 434.078 512.737 423.194C500.22 412.376 487.376 400.533 479.377 392.933L476.622 395.833ZM542.008 450.67C550.26 454.992 565.776 465.523 580.15 477.302C587.325 483.182 594.171 489.336 599.655 495.141C605.183 500.993 609.165 506.323 610.821 510.555L614.546 509.098C612.595 504.111 608.158 498.317 602.563 492.394C596.923 486.425 589.94 480.153 582.685 474.208C568.198 462.336 552.448 451.622 543.864 447.126L542.008 450.67ZM610.821 510.555C614.606 520.229 621.671 526.849 629.006 534.573C636.396 542.356 644.431 551.575 650.93 566.733L654.606 565.157C647.837 549.37 639.437 539.749 631.906 531.819C624.32 523.83 617.976 517.863 614.546 509.098L610.821 510.555ZM650.856 566.532C652.205 570.928 654.018 575.08 655.895 579.214C657.784 583.376 659.73 587.506 661.438 592.005C664.828 600.931 667.259 611.251 666.008 625.323L669.992 625.677C671.307 610.889 668.737 599.958 665.178 590.585C663.412 585.935 661.395 581.654 659.537 577.56C657.666 573.439 655.947 569.489 654.68 565.359L650.856 566.532ZM423.367 410.59C442.703 420.591 472.834 437.238 500.359 454.657C514.123 463.367 527.207 472.253 537.955 480.585C548.749 488.951 557.025 496.639 561.327 502.938L564.63 500.682C559.953 493.833 551.247 485.827 540.406 477.423C529.52 468.985 516.319 460.023 502.498 451.277C474.853 433.782 444.617 417.078 425.204 407.037L423.367 410.59ZM613.205 507.896C603.294 505.217 579.294 499.81 562.978 499.81V503.81C578.731 503.81 602.297 509.091 612.162 511.757L613.205 507.896ZM561.657 500.309C549.607 510.918 528.293 524.309 512.652 552.104C496.959 579.99 486.977 622.222 496.519 690.776L500.481 690.224C491.023 622.278 500.987 580.988 516.138 554.065C531.34 527.051 551.765 514.347 564.3 503.311L561.657 500.309ZM368.581 626.258C369.91 640.493 373.603 665.188 377.356 686.844C379.235 697.678 381.133 707.78 382.764 715.458C383.579 719.294 384.332 722.547 384.987 724.993C385.314 726.213 385.624 727.259 385.911 728.086C386.173 728.839 386.488 729.634 386.883 730.176L390.117 727.824C390.139 727.853 390.097 727.799 390.002 727.586C389.916 727.391 389.811 727.123 389.69 726.774C389.447 726.075 389.166 725.134 388.851 723.958C388.222 721.61 387.486 718.435 386.677 714.627C385.06 707.016 383.171 696.969 381.298 686.16C377.548 664.529 373.877 639.96 372.564 625.886L368.581 626.258Z" fill="black"/>
  <path d="M162.132 435.269C145.457 380.754 155.184 353.229 162.132 346.281C179.449 379.632 305.101 332.385 365.762 304.593C362.555 293.37 370.572 284.551 375.382 268.517C427.492 270.12 437.113 283.749 463.569 304.593C484.733 321.268 481.473 360.177 477.197 377.547C500.179 388.504 516.48 413.624 491.628 402.4C466.775 391.176 392.752 428.054 370.572 444.89C349.461 461.992 309 493.5 287.998 532.274C266.996 571.048 279.5 690 271 738C262.5 786 111.5 715 104.5 699.5C97.5001 684 111.514 639 126 606.5C140.486 574 140.486 535.32 140.486 509.025C140.486 476.156 162.132 453.708 162.132 435.269Z" fill="black" stroke="black" stroke-width="4" stroke-linecap="round"/>
  <path d="M109.221 109.782L114.833 82.5244L122.048 69.6973L161.331 19.9924L200.614 10.372L250.319 3.9585L310.446 10.372L390.615 69.6973L404.244 86.5329V109.782L390.615 137.04V162.694L400.235 180.331L397.028 209.192L385.805 242.061L372.978 282.146L364.961 340.669C358.547 384.763 220.656 463.328 220.656 448.096C220.656 432.864 212.639 401.331 207.829 391.978L169.348 383.159L154.917 360.712L150.107 323.834L138.082 296.576L122.048 263.707V228.432L126.858 195.563L114.833 157.884L109.221 109.782Z" fill="white"/>
  <path d="M207.829 395.185C212.372 408.546 221.137 438.637 219.854 452.105C218.251 468.941 369.771 377.548 368.167 331.851C366.885 295.294 364.426 264.776 363.357 254.087" stroke="black" stroke-width="4" stroke-linecap="round"/>
  <path d="M329.687 258.897C319.265 294.171 287.357 368.568 243.104 383.961C198.851 399.354 172.288 385.03 164.538 375.944C160.262 373.272 151.07 358.628 148.504 321.429C143.694 294.973 127.66 287.758 122.85 264.509C119.002 245.909 124.454 212.933 127.66 198.77L118.04 171.512C114.298 157.884 107.938 125.656 112.428 105.774C116.917 85.8916 145.297 67.0251 158.926 60.0771C195.269 58.7409 273.568 66.0096 296.015 105.774" stroke="black" stroke-width="4" stroke-linecap="round"/>
  <path d="M129.263 282.146C133.539 270.655 148.664 249.116 174.959 254.889C207.829 262.104 221.458 252.484 247.913 287.758C263.947 300.585 297.886 257.294 309.644 224.424L313.652 146.66L366.564 224.424V336.661" stroke="black" stroke-width="4" stroke-linecap="round"/>
  <path d="M158.925 167.504C160.529 178.995 161.17 205.664 150.909 220.416C138.081 238.855 157.322 250.078 178.166 247.673" stroke="black" stroke-width="4"/>
  <path d="M178.968 162.694C192.864 158.952 224.985 153.073 242.302 159.487M158.124 169.107C152.779 167.237 137.44 164.618 118.841 169.107" stroke="black" stroke-width="4"/>
  <path d="M148.504 283.75C162.667 285.62 195.643 287.117 214.242 278.138" stroke="black" stroke-width="4" stroke-linecap="round"/>
  <ellipse cx="219.052" cy="178.728" rx="5.61185" ry="7.21524" fill="black"/>
  <ellipse cx="146.098" cy="189.952" rx="4.81016" ry="7.21524" fill="black"/>
  <path d="M299.222 7.96713C252.403 -8.06673 194.735 11.9756 171.753 24.001L395.425 179.529V127.419C401.037 127.687 410.978 121.487 405.847 94.55C400.717 67.6131 374.849 50.1896 362.556 44.845C360.953 39.2332 346.041 24.001 299.222 7.96713Z" fill="#F0DAFF" stroke="black" stroke-width="4"/>
  <path d="M121.245 96.1535C118.68 102.567 116.97 140.514 116.435 158.686C105.479 152.806 101.373 107.377 114.515 82.5247C145.464 24.0011 174.157 13.5791 193.398 13.5791C212.638 13.5791 235.086 32.018 259.137 40.8367C278.377 47.8916 306.169 71.5682 317.66 82.5247C338.237 104.17 381.956 150.989 392.218 165.099C402.479 179.209 399.166 203.046 396.226 213.201C392.218 222.286 384.04 244.627 383.399 261.302C382.758 277.977 373.511 277.336 368.969 274.931C367.098 264.776 363.517 242.543 364.158 234.846C364.8 227.15 339.84 193.693 327.28 177.926L235.086 85.7315C230.276 82.7919 214.242 75.6301 188.588 70.4993C156.52 64.0858 124.452 88.1365 121.245 96.1535Z" fill="#F0DAFF" stroke="black" stroke-width="4"/>
</svg>
