<?xml version="1.0" standalone="no"?>
<!DOCTYPE svg PUBLIC "-//W3C//DTD SVG 20010904//EN"
 "http://www.w3.org/TR/2001/REC-SVG-20010904/DTD/svg10.dtd">
<svg version="1.0" xmlns="http://www.w3.org/2000/svg"
 width="204.000000pt" height="204.000000pt" viewBox="0 0 204.000000 204.000000"
 preserveAspectRatio="xMidYMid meet">
<metadata>
Created by potrace 1.14, written by Peter Selinger 2001-2017
</metadata>
<g transform="translate(0.000000,204.000000) scale(0.100000,-0.100000)"
fill="#000000" stroke="none">
<path d="M9 1845 c-4 0 -5 -1651 -2 -1660 2 -7 59 -11 153 -11 l150 0 0 326 0
326 126 0 c102 -1 129 -4 135 -16 12 -21 160 -333 265 -560 l35 -76 175 0 c96
0 174 3 174 6 0 3 -74 156 -165 338 -91 183 -165 339 -165 346 0 8 14 16 30
20 50 10 146 83 206 158 16 21 62 122 70 154 13 59 16 199 4 254 -18 82 -65
173 -120 230 -26 27 -53 50 -58 50 -6 0 -12 4 -14 9 -3 8 -101 62 -123 67 -5
2 -20 5 -33 8 -12 3 -26 7 -30 10 -22 13 -149 19 -464 20 -192 1 -349 1 -349
1z m741 -282 c58 -26 91 -57 121 -113 31 -61 33 -184 3 -250 -34 -74 -99 -126
-170 -135 -16 -2 -29 -5 -29 -6 0 -1 -82 -3 -182 -4 l-183 -2 0 269 0 269 198
-4 c171 -3 203 -6 242 -24z"/>
<path d="M1567 1830 c-27 -10 -55 -24 -63 -30 -8 -7 -14 -9 -14 -6 0 18 -90
-80 -113 -122 -58 -107 -56 -259 5 -363 28 -48 102 -122 112 -112 3 4 6 1 6
-5 0 -7 3 -11 8 -10 4 1 17 -3 30 -10 12 -7 22 -9 22 -5 0 4 4 2 9 -6 13 -21
170 -22 231 -2 57 19 148 79 156 104 3 9 9 17 13 17 5 0 21 28 36 63 25 53 29
75 29 152 1 82 -2 96 -31 155 -41 83 -84 129 -153 163 -18 10 -39 17 -47 17
-7 0 -13 4 -13 8 0 4 -39 8 -87 9 -64 1 -101 -4 -136 -17z m163 -192 c0 -4 7
-8 16 -8 30 0 72 -54 79 -104 20 -129 -99 -220 -208 -161 -47 25 -68 64 -68
128 -1 69 20 109 70 134 39 20 111 27 111 11z"/>
</g>
</svg>
